<svg width="1757" height="909" viewBox="0 0 1757 909" fill="none" xmlns="http://www.w3.org/2000/svg">
<path fill-rule="evenodd" clip-rule="evenodd" d="M1190.32 562.016C1190.38 561.803 1190.44 561.586 1190.5 561.369C1190.72 560.545 1190.95 559.722 1191.44 559.11C1194.36 555.455 1197.31 551.78 1200.54 548.396C1211.23 537.211 1223.89 528.646 1237.44 521.367C1244.95 517.334 1252.54 513.445 1260.13 509.555C1263.08 508.041 1266.04 506.527 1268.99 505.005C1284.8 496.84 1300.14 487.896 1314.56 477.413C1324.16 470.428 1333.3 462.894 1341.58 454.356C1351.08 444.548 1359.33 433.829 1365.24 421.418C1371.02 409.3 1373.25 396.56 1371.91 383.239C1370.67 370.974 1364.84 361.341 1354.72 354.275C1352.96 353.043 1351.19 352.728 1349.13 353.263C1348.26 353.493 1347.38 353.725 1346.5 353.957C1342.85 354.925 1339.2 355.893 1335.5 356.667C1335.02 356.769 1334.53 356.872 1334.04 356.975C1328.73 358.1 1323.41 359.228 1317.93 358.768C1316.73 358.668 1315.49 358.4 1314.4 357.916C1313.87 357.676 1313.36 356.782 1313.33 356.168C1313.3 355.565 1313.76 354.631 1314.28 354.378C1315.58 353.732 1317.01 353.11 1318.43 352.971C1328.73 351.97 1338.68 349.373 1348.64 346.776C1350.37 346.323 1352.11 345.871 1353.84 345.427C1358.23 344.305 1362.07 342.269 1365.7 339.604C1377.31 331.076 1387.58 321.179 1396.89 310.203C1411.49 292.992 1422.33 273.852 1427.71 251.79C1429.11 246.038 1430.54 240.285 1432.17 234.598C1436.18 220.643 1442.39 207.843 1452.61 197.314C1458.64 191.116 1464.71 184.971 1470.98 179.027C1487.65 163.219 1504.3 147.385 1519.65 130.274C1530.4 118.308 1540.36 105.755 1549 92.1723C1558.45 77.3232 1566.41 61.7706 1571.76 44.9419C1574.55 36.182 1576.48 27.3001 1576.28 18.0519C1576.19 13.609 1576.06 9.16512 1575.88 4.72318C1575.84 3.75902 1575.58 2.77064 1575.23 1.86752C1574.54 0.0874554 1571.53 -0.642215 1570.19 0.669822C1568.58 2.24155 1566.84 4.10496 1567.45 6.42961C1568.49 10.4316 1566.77 13.6306 1565.07 16.8017L1565.01 16.9123C1560.78 24.7681 1555.69 32.0424 1549.86 38.7993C1537.65 52.9507 1523.4 64.7668 1507.48 74.3988C1495.89 81.4067 1484.02 87.9474 1472.15 94.4844C1469.53 95.9241 1466.92 97.3637 1464.31 98.8081L1463.71 99.1392C1447.49 108.112 1431.27 117.084 1415.97 127.593C1400.43 138.258 1385.96 150.161 1373.36 164.205C1356.48 183.031 1343.6 204.15 1337.25 228.882C1336.19 233.005 1334.31 236.711 1331.93 240.214C1325.47 249.722 1317.28 257.606 1308.22 264.511C1300.57 270.34 1292.59 275.759 1284.54 281.025C1278.66 284.871 1272.7 288.583 1266.74 292.295C1262.43 294.976 1258.12 297.657 1253.85 300.389C1244.47 306.382 1235.57 313.026 1227.5 320.727C1219.95 327.928 1213.11 335.667 1208.75 345.31C1206.7 349.847 1205.26 354.538 1204.78 359.5C1203.68 370.701 1209.7 380.652 1223.28 383.066C1224.01 383.195 1224.75 383.264 1225.49 383.296C1226.02 383.318 1226.55 383.342 1227.07 383.365C1232.96 383.625 1238.84 383.884 1244.65 382.477C1245.13 382.363 1245.63 382.367 1246.11 382.397C1246.34 382.408 1246.66 382.561 1246.74 382.737C1246.8 382.88 1246.63 383.214 1246.46 383.367C1245.83 383.973 1245.21 384.587 1244.58 385.201C1242.92 386.828 1241.25 388.457 1239.49 389.957C1225.68 401.647 1210.8 411.814 1194.87 420.334C1185.6 425.293 1176.22 430.064 1166.85 434.836C1161.26 437.677 1155.68 440.518 1150.12 443.399C1147.11 444.959 1144.1 446.509 1141.08 448.06C1131.15 453.167 1121.21 458.275 1111.47 463.724C1089.53 475.995 1071.51 492.598 1058.09 513.978L1057.85 514.358C1054.78 519.249 1051.7 524.148 1048.9 529.195C1040.46 544.41 1034.37 560.521 1031.19 577.666C1030.38 582.074 1029.62 586.493 1028.87 590.912C1028.13 595.248 1027.39 599.583 1026.59 603.907C1025 612.513 1021.72 620.455 1016.7 627.652C1014.33 631.041 1014.17 631.152 1011.92 627.779C1008.93 623.284 1004.6 622.109 999.693 622.566C997.021 622.815 994.34 623.544 991.799 624.446C988.088 625.761 984.441 627.294 980.866 628.956C969.378 634.298 959.09 641.551 949.074 649.209C946.137 651.455 943.211 653.718 940.285 655.981C934.422 660.515 928.559 665.05 922.602 669.456C916.24 674.163 909.357 678.068 901.883 680.799C901.217 681.043 900.561 681.331 899.905 681.619C897.883 682.506 895.854 683.396 893.495 683.015C893.696 680.428 895.418 678.953 897.123 677.494C897.748 676.959 898.371 676.425 898.915 675.84C901.318 673.254 903.807 670.748 906.295 668.243C908.506 666.016 910.718 663.789 912.869 661.506C918.118 655.934 923.337 650.327 928.327 644.524C935.102 636.643 941.212 628.27 945.709 618.827C947.735 614.566 949.366 610.171 949.619 605.409C950.061 597.065 945.635 590.897 937.561 589.154C931.664 587.88 926.229 588.121 920.924 592.44C915.136 597.147 908.81 601.203 902.498 605.251C901.113 606.139 899.729 607.027 898.351 607.921C895.583 609.714 892.544 611.114 889.529 612.503C889.181 612.663 888.834 612.824 888.487 612.984C887.182 613.588 885.66 613.832 884.213 613.958C883.619 614.008 882.7 613.46 882.406 612.923C882.128 612.424 882.271 611.425 882.621 610.916C883.158 610.133 883.97 609.486 884.778 608.953C885.04 608.78 885.301 608.608 885.562 608.435C887.977 606.836 890.394 605.236 892.898 603.783C904.034 597.323 914.392 589.75 924.417 581.712C929.434 577.691 934.191 573.382 938.215 568.328C939.831 566.298 941.456 564.277 943.082 562.255C946.718 557.732 950.354 553.21 953.876 548.602C965.745 533.077 976.656 516.935 984.973 499.164C990.429 487.498 995.117 475.573 997.233 462.797C998.792 453.417 998.544 444.118 995.425 435.015C993.549 429.525 990.538 424.784 986.312 420.83C982.561 417.317 978.082 415.484 972.946 415.213C971.135 415.118 969.533 415.468 968.213 416.806C967.173 417.861 966.1 418.885 965 419.877C955.083 428.82 944.796 437.307 933.411 444.332C930.263 446.274 926.876 447.843 923.504 449.406C923.075 449.605 922.645 449.804 922.217 450.004C921.164 450.492 919.834 450.553 918.642 450.5C918.061 450.471 917.285 449.837 917.015 449.274C916.745 448.712 916.711 447.613 917.075 447.248C918.265 446.046 919.59 444.923 921.032 444.04C922.741 442.993 924.482 441.997 926.223 441.001C928.768 439.545 931.311 438.09 933.752 436.477C943.243 430.2 952.063 423.023 960.406 415.302C971.358 405.172 980.414 393.497 987.903 380.585C990.815 375.567 992.494 370.237 992.797 364.464C992.965 361.256 993.116 358.05 993.161 354.839C993.201 351.891 993.209 348.942 993.217 345.992C993.224 343.26 993.231 340.528 993.264 337.796C993.384 327.635 994.685 317.645 997.516 307.85C1000.26 298.354 1005.65 291.398 1014.58 286.643C1030.2 278.319 1043.94 267.454 1054.56 253.11C1064.3 239.961 1072.44 225.838 1078.05 210.418C1080.89 202.598 1083.44 194.673 1086 186.747C1086.93 183.867 1087.86 180.987 1088.8 178.112C1093.59 163.507 1101.55 150.936 1112.57 140.228C1128.32 124.941 1146.01 112.532 1166.03 103.524C1169.46 101.982 1172.99 100.684 1176.54 99.3858C1178.56 98.6442 1180.58 97.9023 1182.58 97.1143C1184.64 96.3061 1186.67 95.4175 1188.58 94.3235C1190.11 93.4436 1190.51 91.0686 1189.52 89.742C1187.55 87.087 1185.32 84.8941 1181.61 85.146C1179.88 85.2656 1178.16 85.3365 1176.43 85.4074C1174.71 85.4785 1172.98 85.5495 1171.26 85.6693C1169.82 85.7683 1168.39 85.9196 1166.95 86.0708C1164.95 86.282 1162.95 86.493 1160.94 86.5608C1153.01 86.8263 1145.21 87.9135 1137.57 90.0308C1108.23 98.1482 1082.4 112.498 1060.22 133.414C1047.49 145.429 1037.22 159.151 1030.53 175.435C1029.6 177.696 1028.61 179.93 1027.62 182.164C1026.9 183.764 1026.19 185.365 1025.5 186.975C1022.75 193.421 1018.7 198.955 1013.82 203.961C1007.38 210.568 1000.15 216.051 991.847 220.099C988.858 221.558 985.851 222.981 982.843 224.404C981.612 224.986 980.382 225.568 979.152 226.153C976.868 227.24 974.582 228.323 972.297 229.407C967.669 231.6 963.043 233.793 958.429 236.013C943.076 243.399 929.962 253.8 918.66 266.415C899.82 287.438 887.248 311.726 881.538 339.477C880.797 343.097 879.95 346.718 878.791 350.219C876.863 356.035 873.348 360.419 867.713 363.443C859.897 367.638 852.373 372.412 844.877 377.178C826.354 388.958 810.343 403.493 797.28 421.189C788.761 432.728 781.084 444.803 774.318 457.457C765.328 474.265 758.443 491.987 751.786 509.792C746.704 523.384 741.749 537.024 736.795 550.665C734.756 556.278 732.717 561.892 730.669 567.502C721.86 591.629 708.156 612.431 688.834 629.461C679.321 637.849 668.746 644.611 657.354 650.111C655.64 650.938 653.802 651.518 651.968 652.097C651.445 652.262 650.923 652.427 650.404 652.597C650.153 652.678 649.838 652.571 649.524 652.465C649.382 652.417 649.24 652.369 649.105 652.339C649.159 652.201 649.203 652.053 649.247 651.905C649.343 651.581 649.44 651.256 649.646 651.037C650.52 650.113 651.416 649.21 652.311 648.307C653.328 647.281 654.344 646.255 655.33 645.199C664.979 634.852 671.557 622.865 674.211 608.901C675.406 602.606 676.531 596.271 677.144 589.9C678.431 576.55 682.493 564.323 690.796 553.692C694.747 548.638 698.804 543.652 703.06 538.853C711.299 529.566 718.156 519.351 724.336 508.619C729.553 499.555 732.433 489.658 735.314 479.757C735.878 477.819 736.441 475.881 737.023 473.95C737.166 473.486 737.179 472.971 737.179 472.483C737.177 471.198 736.835 470.047 735.709 469.281C734.57 468.507 732.522 468.439 731.511 469.31C730.874 469.858 730.298 470.473 729.721 471.088C729.287 471.552 728.852 472.016 728.39 472.453C726.828 473.929 725.291 475.438 723.754 476.947C720.177 480.46 716.599 483.973 712.695 487.074C700.109 497.074 686.956 506.262 671.569 511.639C643.412 525.059 618.023 542.215 597.563 566.12C586.371 579.202 577.463 593.617 571.74 609.88C570.247 614.126 568.986 618.453 567.725 622.78C567.052 625.087 566.38 627.394 565.672 629.689C565.023 631.793 564.386 633.901 563.75 636.01C561.962 641.93 560.174 647.851 558.112 653.676C555.531 660.963 551.478 667.529 545.793 672.831C528.987 688.506 508.847 695.092 486.106 693.894C482.761 693.719 479.381 692.391 476.217 691.11C471.86 689.347 469.272 685.749 467.628 681.419C465.24 675.125 466.565 669.225 469.695 663.639C473.108 657.555 477.707 652.374 482.899 647.754C485.285 645.63 487.745 643.59 490.205 641.55C491.737 640.279 493.269 639.008 494.783 637.717C496.281 636.437 497.785 635.163 499.288 633.889C503.811 630.056 508.333 626.223 512.719 622.239C517.138 618.228 520.464 613.31 523.165 607.968C525.699 602.969 526.549 597.709 526.213 592.168C525.965 588.029 524.308 584.543 521.58 581.523C519.829 579.579 517.911 578.777 515.031 579.369C501.005 582.245 486.882 584.415 472.516 584.826C468.53 584.938 464.643 584.531 460.732 584.095C459.809 583.993 458.84 583.513 458.083 582.95C457.578 582.575 457.121 581.728 457.171 581.138C457.225 580.544 457.845 579.624 458.362 579.511C458.494 579.481 458.627 579.452 458.76 579.422C460.77 578.975 462.825 578.518 464.852 578.556C484.505 578.95 503.681 575.619 522.679 571.093C528.896 569.61 535.1 567.795 541.006 565.393C549.027 562.132 556.325 557.431 563.231 552.181C575.788 542.631 584.799 530.596 589.164 515.278C590.962 508.976 592.774 502.68 594.587 496.383C596.526 489.65 598.464 482.917 600.383 476.178C600.49 475.803 600.278 475.096 599.986 474.913C599.694 474.73 599.068 474.916 598.661 475.101C596.976 475.875 595.296 476.66 593.616 477.445C591.051 478.645 588.486 479.844 585.903 481C583.439 482.102 580.938 483.163 578.363 483.963C577.658 484.18 576.309 483.613 575.858 482.976C575.398 482.323 575.319 480.955 575.706 480.244C576.386 478.992 577.374 477.746 578.542 476.957C580.988 475.311 583.545 473.77 586.217 472.526C592.612 469.55 599.056 466.678 605.499 463.805C606.943 463.161 608.388 462.517 609.832 461.872C618.266 458.102 625.805 453.078 632.16 446.309C638.294 439.773 643.399 432.566 647.114 424.381C650.494 416.932 652.891 409.171 654.659 401.195C655.18 398.845 655.695 396.494 656.21 394.142C657.701 387.335 659.191 380.528 660.842 373.761C663.023 364.834 666.506 356.394 671.454 348.625C678.107 338.179 685.354 328.209 694.941 320.17C696.075 319.218 697.174 318.211 698.172 317.12C698.819 316.411 699.591 315.546 699.698 314.673C699.84 313.556 699.727 312.036 699.056 311.3C698.393 310.577 696.802 310.198 695.79 310.429C694.769 310.659 693.83 311.275 692.898 311.886C692.574 312.098 692.252 312.309 691.927 312.503C679.804 319.754 668.829 328.519 658.101 337.675C638.769 354.175 622.313 373.048 609.432 395.006C606.685 399.687 603.754 404.268 600.784 408.816C585.662 431.945 565.53 449.261 540.371 460.702C535.87 462.748 531.265 464.575 526.339 465.251C524.433 465.515 522.387 465.452 520.505 465.058C516.75 464.275 514.735 461.39 514.76 457.56C514.788 453.179 516.567 449.399 518.736 445.776C523.847 437.238 530.175 429.702 537.575 423.046C543.527 417.692 550.086 413.165 556.649 408.637C558.214 407.557 559.778 406.477 561.335 405.386C562.397 404.641 563.464 403.9 564.532 403.159C569.554 399.673 574.59 396.177 579.198 392.201C592.434 380.775 599.704 366.466 598.591 348.555C598.549 347.878 598.302 347.051 597.269 347.421C596.341 347.753 595.413 348.097 594.545 348.554C588.633 351.681 583.085 355.32 578.077 359.804C576.101 361.575 573.816 363.018 571.554 364.446C571.323 364.592 571.093 364.738 570.863 364.883C570.431 365.156 569.266 364.863 568.858 364.436C568.247 363.797 567.683 362.799 567.689 361.956C567.694 361.059 568.2 360.001 568.813 359.302C569.096 358.977 569.378 358.651 569.661 358.325C571.479 356.228 573.308 354.118 575.389 352.311C583.699 345.096 593.272 340.018 603.679 336.594C607.014 335.497 610.018 334.024 612.945 332.126C615.957 330.175 619.068 328.378 622.179 326.582C623.556 325.787 624.934 324.992 626.302 324.183C627.134 323.69 627.969 323.201 628.804 322.712C630.737 321.58 632.671 320.449 634.567 319.259C646.157 311.993 651.59 301.123 652.767 287.824C653.457 280.181 652.785 272.477 650.781 265.069C648.284 255.813 650.141 247.466 656.251 240.083C656.433 239.863 656.615 239.644 656.797 239.424C658.031 237.932 659.269 236.436 660.615 235.052C665.636 229.881 671.243 225.422 677.664 222.126C683.374 219.194 689.129 216.351 694.885 213.509C697.757 212.09 700.629 210.672 703.496 209.242C706.093 207.948 708.698 206.667 711.303 205.387C717.554 202.314 723.805 199.241 729.953 195.971C743.187 188.926 754.57 179.588 763.916 167.786C772.396 157.081 779.821 145.775 784.666 132.93C788.244 123.44 790.915 113.655 792.76 103.711C794.899 92.1868 798.837 81.3504 803.818 70.8338C807.967 62.0681 813.153 53.9982 820.313 47.3218C836.835 31.9194 855.238 19.955 877.872 15.6449C879.534 15.328 881.183 14.7166 882.715 13.9792C884.174 13.2766 884.481 10.5653 883.351 9.41222C881.156 7.17672 878.772 6.07979 875.398 6.94124C868.716 8.65057 861.979 10.2969 855.165 11.3212C847.605 12.4607 840.123 14.0751 832.766 16.1565C811.834 22.0665 792.61 31.3874 776.104 45.6996C759.556 60.0497 745.594 76.5945 735.096 95.9379C733.788 98.346 732.413 100.717 731.038 103.089C729.565 105.63 728.092 108.171 726.701 110.757C721.021 121.321 712.471 128.968 702.337 135.01C691.923 141.219 681.041 146.425 669.491 150.225C664.124 151.991 658.789 153.853 653.453 155.716C650.638 156.698 647.823 157.681 645.003 158.649C629.12 164.102 613.509 170.217 598.387 177.547C585.24 183.917 572.807 191.473 561.001 200.052C557.417 202.659 553.961 205.501 550.752 208.555C538.916 219.829 528.108 232.015 519.127 245.714C509.925 259.757 500.793 273.846 491.728 287.978C481.818 303.412 470.89 317.99 457.24 330.384C449.916 337.035 442.515 343.522 433.633 348.122C416.753 356.869 399.686 365.225 382.154 372.573C371.878 376.884 361.509 380.976 351.14 385.068C346.134 387.044 341.128 389.02 336.132 391.02C335.575 391.243 335.017 391.466 334.46 391.688C330.892 393.112 327.323 394.537 323.818 396.103C288.247 412 254.832 431.335 225.534 457.342C208.709 472.276 192.415 487.702 177.666 504.738C162.12 522.699 148.214 541.863 134.84 561.461C108.808 599.603 87.6881 640.204 72.966 684.045C72.6178 685.083 72.2813 686.126 71.9447 687.171C70.838 690.603 69.7299 694.04 68.1997 697.272L67.6139 698.511C62.3242 709.699 57.0274 720.903 50.5539 731.48C39.2273 749.987 24.0751 764.537 5.16412 775.174C4.92567 775.308 4.68404 775.438 4.44201 775.569C3.59942 776.025 2.75191 776.483 2.01665 777.078C-0.907038 779.448 -0.614477 783.941 2.65215 785.843C3.92993 786.573 5.3443 787.033 6.80712 787.192C9.75396 787.503 12.7159 787.647 15.6789 787.625C29.1343 787.506 42.5903 787.368 56.0462 787.23C65.3285 787.135 74.6107 787.04 83.8927 786.951V908.414H1527.33V765.974H1504.9C1506.2 764.66 1507.47 763.328 1508.7 761.961C1511.71 758.639 1513.71 754.679 1514.96 750.318C1517.08 742.938 1518.68 735.461 1519.19 727.808C1519.57 721.966 1521.5 716.731 1524.54 711.838C1527.93 706.357 1532.4 701.613 1537.66 697.886C1541.39 695.235 1545.19 692.69 1548.99 690.144C1551.34 688.569 1553.69 686.993 1556.03 685.391C1556.93 684.776 1557.82 684.162 1558.72 683.549C1562.72 680.823 1566.71 678.097 1570.56 675.181C1578.92 668.854 1585.77 661.094 1591.23 652.158C1599 639.476 1602.03 625.765 1599.85 611.003C1599.56 609.051 1599.03 607.143 1598.27 605.324C1596.82 601.937 1593.64 601.373 1591.19 603.991C1590.59 604.638 1590.06 605.347 1589.52 606.057C1589.01 606.731 1588.51 607.406 1587.94 608.028C1587.02 609.041 1586.12 610.07 1585.21 611.101C1582.69 613.965 1580.17 616.836 1577.35 619.368C1567.14 628.528 1555.32 635.182 1542.64 640.28C1539.92 641.376 1536.98 642.158 1534.08 642.493C1526.65 643.354 1519.82 636.863 1519.72 630.613C1519.63 625.087 1520.2 619.796 1522.58 614.748C1525.53 608.439 1529.38 602.721 1533.96 597.495C1539.68 590.974 1545.92 584.989 1552.81 579.74C1560.27 574.051 1567.91 568.594 1575.59 563.216C1583.6 557.603 1591.65 552.03 1599.69 546.458C1608.49 540.361 1617.29 534.265 1626.06 528.116C1634.16 522.427 1641.55 515.872 1648.36 508.669C1655.43 501.19 1660.42 492.514 1663.78 482.795C1668.49 469.218 1667.32 456.039 1661.28 443.228C1660.24 441.018 1658.68 439.042 1657.12 437.079C1656.67 436.518 1656.23 435.959 1655.8 435.395C1654.3 433.419 1652.25 432.972 1649.84 433.615C1648.47 433.98 1647.1 434.35 1645.72 434.719C1640.66 436.082 1635.61 437.443 1630.5 438.565C1621.11 440.635 1611.67 442.514 1602.21 444.197C1599.64 444.651 1596.93 444.421 1594.28 444.197C1594 444.173 1593.71 444.148 1593.42 444.125C1592.72 444.072 1591.69 442.917 1591.59 442.177C1591.5 441.441 1592.25 440.091 1592.92 439.871C1595.48 439.029 1598.12 438.329 1600.78 437.942C1618.64 435.333 1636.08 430.9 1653.37 425.878C1656.66 424.925 1659.96 423.626 1662.86 421.85C1684.72 408.506 1700.15 389.835 1708.84 365.67C1713.66 352.249 1714.01 338.662 1710.58 324.877C1708.42 316.166 1704.92 308.019 1700.29 300.39C1695.69 292.79 1690.93 285.28 1685.87 277.975C1679.45 268.693 1679.36 259.114 1683.79 249.188C1684.98 246.503 1686.59 243.971 1688.19 241.495C1693.05 234.004 1698.86 227.289 1705.23 221.037C1706.94 219.351 1708.66 217.675 1710.39 215.999C1714.87 211.65 1719.35 207.3 1723.63 202.771C1737.96 187.626 1748.48 170.22 1753.41 149.793C1757.15 134.261 1757.35 118.506 1755.33 102.701C1755.21 101.729 1755.08 100.744 1754.83 99.7984C1754.36 98.1172 1751.97 97.1259 1750.63 98.2364C1749.35 99.2994 1748.15 100.619 1747.35 102.071C1746.68 103.286 1746.13 104.57 1745.58 105.853C1744.97 107.3 1744.35 108.746 1743.56 110.091C1736 122.958 1726.9 134.611 1715.49 144.299C1703.43 154.547 1690.7 163.909 1676.8 171.566C1669.02 175.853 1661.16 179.986 1653.23 184.009C1637.89 191.804 1624.41 202.102 1612.29 214.239C1605.75 220.783 1600.68 228.304 1597.36 236.984C1594.69 244.014 1593.26 251.166 1594.63 258.72C1595.11 261.33 1595.52 263.951 1595.94 266.572C1596.41 269.551 1596.88 272.531 1597.44 275.496C1598.42 280.728 1598.3 285.831 1596.28 290.783C1592.62 299.726 1587.14 307.196 1578.33 311.657C1573.27 314.217 1568.09 316.546 1562.86 318.736C1555.12 321.979 1547.33 325.087 1539.5 328.112C1520.59 335.429 1505.26 347.512 1492.6 363.191C1487.62 369.369 1483.28 375.933 1480.86 383.614C1476.36 397.982 1478.78 410.86 1488.88 422.223C1490.95 424.54 1493.16 425.272 1496.1 424.684C1501.9 423.532 1507.72 422.448 1513.55 421.43C1514.72 421.222 1516.11 421.038 1517.11 421.477C1518.09 421.907 1519.05 423.032 1519.4 424.065C1519.87 425.423 1518.71 426.287 1517.53 426.814C1516.85 427.119 1516.15 427.415 1515.43 427.543C1513.67 427.859 1511.92 428.189 1510.17 428.519C1505.38 429.42 1500.59 430.321 1495.76 430.945C1489.87 431.709 1484.11 432.692 1478.45 434.595C1473.19 436.365 1467.87 437.952 1462.54 439.538C1460.54 440.137 1458.53 440.735 1456.53 441.343C1444 445.146 1431.53 449.075 1419.86 455.122C1391.21 469.958 1366.49 489.731 1345.87 514.561C1335.08 527.555 1326.69 542.083 1319.02 557.061C1317.57 559.909 1316.13 562.77 1314.7 565.63C1311.59 571.82 1308.49 578.009 1305.15 584.068C1301.58 590.554 1297.63 596.827 1293.33 602.858C1290.34 607.043 1286.76 610.927 1282.94 614.361C1277.51 619.22 1270.93 621.034 1263.66 619.525C1257.97 618.346 1255.06 615.101 1254.92 609.272C1254.84 606.104 1255.24 602.853 1255.93 599.752C1257.53 592.448 1260.68 585.763 1264.7 579.466C1271.96 568.094 1281.28 558.625 1291.71 550.2C1300.18 543.367 1308.52 536.412 1315.95 528.442C1322.9 520.99 1328.92 512.895 1332.98 503.478C1333.76 501.681 1334.51 499.791 1334.76 497.882C1334.88 496.903 1334.02 495.617 1333.26 494.764C1332.38 493.76 1331.05 493.8 1329.85 494.421C1329.21 494.758 1328.57 495.172 1328.03 495.669C1322.49 500.828 1315.76 503.923 1308.83 506.571C1303.08 508.769 1297.21 510.687 1291.33 512.542C1286.89 513.943 1282.43 515.288 1277.97 516.634C1271.33 518.638 1264.69 520.642 1258.11 522.831C1236.34 530.066 1216.5 540.883 1198.7 555.413C1196.75 557.006 1194.76 558.555 1192.77 560.104C1191.95 560.74 1191.14 561.377 1190.32 562.016ZM1143.84 267.458C1144.7 267.466 1145.56 267.474 1146.41 267.48C1162.09 267.512 1177.27 264.471 1192.27 260.193C1197.54 258.684 1202.42 256.454 1207.04 253.502C1215.78 247.888 1223.82 241.341 1231.67 234.558C1249.22 219.379 1261.95 200.885 1269.53 178.899C1269.98 177.578 1270.41 176.247 1270.84 174.917C1271.47 172.959 1272.1 171.002 1272.81 169.075C1273.48 167.277 1274.13 165.472 1274.78 163.668C1276.73 158.277 1278.68 152.885 1280.99 147.657C1289.95 127.395 1302.05 109.159 1317.13 92.9127C1319.15 90.744 1321.01 88.4204 1322.76 86.0434C1323.63 84.8777 1324.28 83.4823 1324.71 82.0927C1325.57 79.2855 1323.1 76.4366 1320.25 76.9017C1319.47 77.0291 1318.71 77.2985 1317.95 77.5678C1317.55 77.7104 1317.14 77.853 1316.74 77.9744C1304.35 81.6887 1293.01 87.6694 1281.98 94.2538C1267.89 102.666 1255.16 112.735 1245.07 125.844C1239.77 132.716 1235.45 140.194 1231.36 147.809C1227.15 155.665 1222.32 163.105 1216.95 170.204C1212.45 176.15 1207.23 181.352 1201.18 185.723C1193.53 191.235 1185.35 195.771 1176.68 199.425C1169.86 202.298 1163.02 205.117 1156.17 207.91C1155.39 208.225 1154.62 208.541 1153.84 208.856C1141.6 213.846 1129.35 218.833 1117.86 225.498C1105.4 232.735 1093.87 241.138 1084.41 252.116C1073.9 264.316 1067.64 278.141 1068.45 294.671C1069.08 307.746 1075.44 316.952 1086.8 323.01C1088.65 323.994 1090.41 324.351 1092.41 323.361C1094.12 322.518 1095.94 321.856 1097.73 321.199L1097.9 321.139C1098.9 320.772 1099.9 320.397 1100.91 320.021C1104.06 318.84 1107.22 317.657 1110.45 316.746C1112.58 316.14 1114.87 316.022 1117.13 315.906C1117.57 315.884 1118.01 315.861 1118.44 315.835C1118.99 315.801 1120.02 316.55 1120.03 316.972C1120.07 317.835 1119.84 319.041 1119.24 319.531C1118.11 320.445 1116.72 321.071 1115.35 321.593C1112.58 322.651 1109.78 323.601 1106.97 324.516C1090.99 329.73 1076.94 338.115 1064.77 349.735C1046.31 367.36 1035.32 389.117 1029.61 413.666C1027.65 422.09 1026.51 430.725 1025.38 439.32L1025.2 440.673C1024.77 443.896 1024.86 447.195 1024.95 450.481C1024.97 451.404 1025 452.326 1025.01 453.244C1025.03 454.828 1026.34 456.03 1027.79 456.263C1029.24 456.495 1030.86 455.779 1031.46 454.38C1032.03 453.068 1032.52 451.721 1033.01 450.375C1033.27 449.634 1033.54 448.894 1033.82 448.16C1041.18 428.931 1052.81 413.091 1070.43 402.001C1071.78 401.148 1073.13 400.272 1074.47 399.397C1077.26 397.574 1080.06 395.751 1082.97 394.137C1097 386.361 1111.09 378.716 1125.2 371.088C1136.72 364.857 1147.93 358.154 1158.46 350.347C1168.65 342.801 1177.78 334.214 1185 323.709C1189.35 317.373 1193.25 310.765 1195.23 303.289C1196.28 299.279 1197.1 295.048 1197.05 290.929C1196.97 282.092 1192 275.696 1185.39 270.399C1184.16 269.416 1182.86 269.258 1181.25 269.624C1172.1 271.707 1162.83 272.995 1153.49 273.871C1146.56 274.521 1139.7 274.164 1132.92 272.579C1131.14 272.165 1129.61 270.441 1130.27 269.636C1130.98 268.766 1132.06 267.923 1133.12 267.692C1134.43 267.404 1135.82 267.417 1137.19 267.43C1137.56 267.434 1137.92 267.437 1138.27 267.435C1140.13 267.423 1141.99 267.441 1143.84 267.458ZM679.62 416.17C679.827 416.21 680.058 416.254 680.326 416.307C680.969 416.185 681.648 416.075 682.348 415.963C683.927 415.708 685.614 415.437 687.247 414.965C688.132 414.709 689.017 414.452 689.902 414.196C697.292 412.056 704.687 409.915 711.982 407.483C719.726 404.901 726.943 401.123 733.716 396.541C746.678 387.771 758.086 377.313 767.837 365.057C779.556 350.324 789.285 334.357 797.495 317.429C802.876 306.337 808.27 295.248 813.955 284.313C817.03 278.41 820.445 272.691 824.18 267.184C830.456 257.921 838.156 249.885 847.404 243.58C851.457 240.815 854.836 237.469 858.253 234.087L858.477 233.866C859.166 233.186 859.959 232.325 860.091 231.456C860.259 230.351 860.068 229.017 859.554 228.027C858.895 226.756 856.906 226.511 855.607 227.377C854.384 228.191 853.242 229.14 852.13 230.105C846.706 234.829 840.787 238.731 834.259 241.82C827.802 244.875 821.506 248.283 815.242 251.722C791.532 264.734 771.738 282.245 755.468 303.83C745.938 316.472 737.726 329.917 730.322 343.885C729.01 346.359 727.706 348.838 726.401 351.317C722.308 359.093 718.215 366.87 713.906 374.523C708.944 383.333 703.428 391.827 697.019 399.684C693.538 403.958 689.66 407.659 683.804 408.46C682.37 408.657 680.913 409.225 679.647 409.938C678.632 410.511 677.773 411.483 677.052 412.436C676.173 413.597 677.107 415.633 678.541 415.954C678.864 416.025 679.188 416.087 679.62 416.17Z" fill="#CEFD3B"/>
</svg>
