<svg width="115" height="95" viewBox="0 0 115 95" fill="none" xmlns="http://www.w3.org/2000/svg">
<path d="M58.3857 94.8654C56.8873 94.8274 55.3809 94.8024 53.8745 94.7475C52.7933 94.7041 51.713 94.6412 50.634 94.5588C49.5857 94.4839 48.5389 94.39 47.494 94.2772C45.5153 94.0615 43.5416 93.7969 41.5778 93.4664C37.7825 92.8263 34.0478 91.9505 30.4026 90.7043C28.4697 90.0433 26.5844 89.2704 24.7688 88.3277C23.4563 87.6457 22.1935 86.8818 21.0272 85.9681C20.008 85.1692 19.0723 84.2855 18.3276 83.216C17.8337 82.5226 17.4596 81.7505 17.2209 80.9323C16.8699 79.6891 16.9485 78.4708 17.3979 77.2696C17.7618 76.296 18.3356 75.4552 19.0256 74.6893C19.6732 73.98 20.3938 73.3417 21.1753 72.785C22.633 71.7285 24.212 70.8917 25.8586 70.1757C26.837 69.7503 27.8323 69.3669 28.8415 69.0224C29.1537 68.9155 29.464 68.8027 29.7702 68.6829C30.854 68.2535 31.9826 67.9859 33.1161 67.7342C34.0796 67.5195 35.0411 67.2929 36.0106 67.1021C37.164 66.8755 38.3214 66.6677 39.4817 66.479C40.5029 66.3123 41.53 66.1814 42.5542 66.0377C42.8654 65.9947 43.1776 65.9638 43.4888 65.9278C43.5515 65.9208 43.6141 65.9158 43.6768 65.9178C44.0258 65.9278 44.2306 66.1575 44.1918 66.502C44.1849 66.5629 44.161 66.6228 44.1401 66.6817C44.1153 66.7516 44.1729 66.7756 44.2087 66.7746C44.4275 66.7666 44.6462 66.7536 44.865 66.7346C44.9112 66.7294 44.9538 66.707 44.9843 66.6717C45.042 66.5919 44.9525 66.5639 44.9137 66.529C44.4673 66.1315 44.0168 65.7391 43.5704 65.3426C43.4958 65.2757 43.4322 65.2727 43.3815 65.3566C43.2721 65.5334 43.111 65.5543 42.929 65.5164C42.8535 65.4994 42.7789 65.4725 42.7023 65.4535C42.1127 65.3057 41.5271 65.2937 40.9384 65.4795C40.5834 65.5923 40.2334 65.5523 39.8805 65.4225C39.4251 65.2558 38.9567 65.123 38.4934 64.9782C38.3661 64.9382 38.2528 64.9742 38.1315 65.0261C37.9169 65.1207 37.6964 65.2007 37.4712 65.2658C37.0168 65.3926 36.5684 65.2877 36.1229 65.1959C35.8624 65.1409 35.6039 65.076 35.3444 65.0161C35.229 64.9902 35.1435 65.0281 35.0451 65.101C34.717 65.3437 34.3829 65.5773 34.0378 65.794C33.5188 66.1195 32.9481 66.1765 32.3594 66.0546C31.607 65.8943 30.8742 65.6523 30.1739 65.3327C29.1836 64.8883 28.1554 64.5538 27.1273 64.2183C26.7843 64.1064 26.4432 63.9886 26.1091 63.8518C24.903 63.3605 23.6631 62.9631 22.4371 62.5277C21.2986 62.1233 20.1681 61.6999 19.0296 61.2954C18.0253 60.939 17.0111 60.6084 16.0088 60.2439C14.2409 59.5999 12.4462 59.0307 10.6912 58.3477C10.5306 58.2851 10.3705 58.2212 10.211 58.1559C10.0916 58.107 9.97531 58.0461 9.9246 57.9243C9.85798 57.7675 9.72574 57.6846 9.60046 57.5918C7.64065 56.1298 6.00102 54.3604 4.63682 52.3323C3.51697 50.6551 2.60005 48.85 1.90542 46.955C1.22313 45.1077 0.724857 43.1971 0.417916 41.2512C0.260814 40.2726 0.159395 39.284 0.0838263 38.2944C-0.0235601 36.8914 -0.0136205 35.4904 0.0351011 34.0884C0.0669193 33.1598 0.164369 32.2351 0.271756 31.3124C0.490506 29.4461 0.852436 27.6097 1.33965 25.7983C2.24324 22.4321 3.57676 19.1975 5.30698 16.1751C6.50655 14.0659 7.90502 12.0773 9.48313 10.2366C12.137 7.15301 15.2044 4.5807 18.8069 2.67942C21.0145 1.50432 23.3851 0.668534 25.8397 0.199973C26.2245 0.127077 26.6133 0.0781478 27.001 0.0192322C27.0627 0.00924652 27.1283 -0.00673053 27.188 0.0052523C27.6374 0.0901307 28.0958 0.0352095 28.5452 0.109104C28.9787 0.179003 29.4113 0.255894 29.8448 0.326792C31.7479 0.63535 33.6361 1.02879 35.5253 1.41523C36.8925 1.69483 38.2538 2.00139 39.619 2.28998C41.1979 2.6245 42.7799 2.94904 44.3589 3.28455C45.6933 3.56815 47.0266 3.85374 48.358 4.15032C49.8724 4.48783 51.3827 4.84831 52.8981 5.17884C53.5941 5.33162 54.2315 5.6282 54.8738 5.91678C55.1771 6.05259 55.4406 6.25131 55.6822 6.47998C56.2002 6.97028 56.6526 7.5105 56.933 8.17755C56.9927 8.32034 57.0872 8.38525 57.2482 8.41221C57.7275 8.49209 58.2098 8.56998 58.6761 8.70179C60.1039 9.10422 61.315 9.85215 62.2258 11.0504C62.3302 11.1882 62.4456 11.327 62.5102 11.4838C62.6225 11.7534 62.8244 11.9002 63.073 12.021C63.6228 12.2907 64.1657 12.5722 64.7126 12.8489C64.824 12.9058 64.9383 12.9597 65.0477 13.0206C65.1292 13.0665 65.2296 13.1045 65.2803 13.1754C65.4484 13.412 65.7039 13.4909 65.9485 13.5918C66.6326 13.8724 67.2978 14.1939 67.9262 14.5834C68.5527 14.9718 69.2109 15.3123 69.7965 15.7647C69.9208 15.8605 70.0501 15.9524 70.1635 16.0603C71.5426 17.3764 72.861 18.7434 73.9259 20.3401C74.9573 21.8862 75.8185 23.5402 76.4943 25.2731C77.2877 27.3143 77.8627 29.4346 78.2095 31.598C78.3915 32.7184 78.5187 33.8438 78.6003 34.9762C78.7116 36.5199 78.7106 38.0637 78.639 39.6065C78.57 40.9278 78.4313 42.2444 78.2234 43.5509C77.7216 46.808 76.8226 49.9907 75.5467 53.0273C75.3767 53.4337 75.1897 53.8341 75.0137 54.2376C74.9859 54.3015 75.0028 54.3614 75.0714 54.3933C75.1281 54.4193 75.1858 54.4453 75.2444 54.4652C75.666 54.607 76.0359 54.8427 76.3968 55.0973C76.539 55.1982 76.6673 55.31 76.7488 55.4698C76.892 55.7504 77.1356 55.9191 77.412 56.048C77.8416 56.2497 78.291 56.3935 78.7623 56.4384C79.6055 56.5183 80.4517 56.5762 81.2998 56.4943C81.3625 56.4883 81.4251 56.4853 81.4878 56.4823C82.6004 56.4204 83.7121 56.3405 84.8247 56.3026C85.5297 56.2786 86.2366 56.3156 86.9416 56.3276C87.0679 56.3296 87.1932 56.3395 87.3185 56.3435C88.1656 56.3655 89.0098 56.4354 89.853 56.5233C90.5858 56.6002 91.3206 56.6611 92.0524 56.753C92.7057 56.8348 93.3569 56.9357 94.0052 57.0525C95.1318 57.2552 96.2564 57.4689 97.379 57.6906C100.446 58.2924 103.426 59.2752 106.251 60.6164C107.549 61.2315 108.743 62.0164 109.905 62.8512C110.33 63.1568 110.683 63.5402 111.002 63.9506C111.707 64.8593 112.372 65.793 112.94 66.7966C113.607 67.9769 114.057 69.2331 114.233 70.5722C114.377 71.6726 114.332 72.777 114.035 73.8555C113.813 74.6603 113.599 75.4691 113.321 76.254C112.718 77.9526 111.813 79.4714 110.539 80.7566C109.261 82.0467 107.849 83.1701 106.352 84.1896C104.201 85.6525 101.919 86.8738 99.5555 87.9443C95.6846 89.6978 91.6676 91.0199 87.5471 92.0384C84.3357 92.836 81.0794 93.4389 77.7959 93.8438C76.5666 93.9967 75.3344 94.1243 74.1 94.2263C73.1146 94.3062 72.1282 94.3631 71.1419 94.421C70.2172 94.4749 69.2914 94.5009 68.3657 94.4969C67.3459 94.4947 66.3264 94.53 65.3092 94.6027C63.8064 94.7081 62.3012 94.773 60.795 94.7974C59.9936 94.8094 59.1941 94.8414 58.3857 94.8654ZM75.5626 24.8537L75.5755 24.9455C75.5785 24.9605 75.5845 24.9745 75.5885 24.9895C75.5974 24.9675 75.6203 24.9395 75.6143 24.9256C75.6014 24.9016 75.5725 24.8856 75.5507 24.8656C75.5407 24.7917 75.5606 24.7039 75.4562 24.6769C75.4373 24.587 75.4333 24.4882 75.3966 24.4063C75.2355 24.0468 75.0704 23.6893 74.8944 23.3378C73.9916 21.5404 72.8949 19.8768 71.5336 18.3949C71.3646 18.2102 71.2065 18.0145 70.9718 17.8986C70.8923 17.8587 70.8336 17.7738 70.77 17.7039C70.4846 17.3903 70.2042 17.0718 69.9139 16.7612C69.6534 16.4871 69.3558 16.2512 69.0299 16.0603C68.842 15.9474 68.6531 15.8346 68.4711 15.7108C66.3363 14.2608 63.9907 13.3841 61.4214 13.1584C60.0746 13.0381 58.7177 13.1032 57.3884 13.3521C55.2854 13.7476 53.3227 14.5135 51.4762 15.5959C49.2022 16.928 47.2434 18.6376 45.5023 20.6067C43.8697 22.4541 42.4965 24.4852 41.3312 26.6581C39.5245 30.0262 38.2886 33.6011 37.5299 37.3458C37.5136 37.4226 37.5046 37.5009 37.503 37.5794C37.503 37.6473 37.5398 37.7012 37.6114 37.7112C37.8908 37.7512 38.1712 37.7851 38.4506 37.8251C38.6207 37.849 38.6584 37.893 38.6435 38.0787C38.5968 38.6599 38.5491 39.241 38.4924 39.8212C38.4646 40.1028 38.4178 40.3834 38.3771 40.663C38.2682 41.3478 38.1945 42.0377 38.1563 42.73C38.1147 43.7535 38.1144 44.7782 38.1553 45.8016C38.1653 46.1012 38.1712 46.4008 38.1931 46.6994C38.2378 47.2805 38.2995 47.8597 38.3403 48.4419C38.3959 49.2437 38.4715 50.0436 38.6336 50.8314C38.6873 51.0921 38.7718 51.3467 38.8494 51.6023C38.8901 51.7381 38.9518 51.867 38.9935 52.0018C39.3119 53.024 39.6675 54.0343 40.0594 55.0304C40.4413 56.014 40.829 56.9956 41.3183 57.9323C41.9722 59.1723 42.716 60.3625 43.5435 61.4932C45.3791 64.0245 47.7147 65.9228 50.6052 67.1191C50.9244 67.2509 51.2515 67.3608 51.5766 67.4756C51.6651 67.5056 51.7586 67.5255 51.8511 67.5355C51.9465 67.5475 52.0907 67.4027 52.0937 67.2859C52.0957 67.192 52.0151 67.163 51.9366 67.1391C51.8473 67.1101 51.7588 67.0788 51.6711 67.0452C50.4461 66.5929 49.2738 66.0397 48.19 65.2967C46.2958 63.9986 44.7467 62.3659 43.468 60.4676C42.0491 58.3617 41.0359 56.0639 40.3279 53.6274C39.8794 52.0689 39.5562 50.4767 39.3614 48.8663C39.0995 46.77 39.0353 44.6537 39.1695 42.5453C39.3149 40.1228 39.6996 37.7207 40.318 35.3746C41.2079 31.9834 42.5393 28.782 44.3877 25.8053C45.9697 23.2589 47.8649 20.9822 50.1856 19.0779C51.7139 17.8247 53.3734 16.7882 55.196 16.0203C57.0075 15.2546 58.9439 14.8302 60.9083 14.7681C61.7559 14.7484 62.6033 14.811 63.4389 14.9548C65.0954 15.2225 66.6585 15.7757 68.1181 16.6065C68.5954 16.8791 69.0677 17.1607 69.5331 17.4533C69.9308 17.7049 70.3186 17.9745 70.6527 18.312C70.9957 18.6595 71.3447 19.001 71.6867 19.3475C72.2262 19.8984 72.7322 20.4813 73.2021 21.093C73.9659 22.0944 74.6416 23.1606 75.2216 24.2795C75.2922 24.4143 75.328 24.5751 75.4682 24.6669C75.4751 24.7418 75.4672 24.8247 75.5626 24.8537ZM0.580986 35.6192C0.614793 36.4011 0.647604 37.0302 0.666496 37.6603C0.691354 38.5281 0.788799 39.3898 0.898174 40.2486C1.02445 41.2482 1.20641 42.2407 1.4371 43.2223C2.04065 45.7817 2.94051 48.2262 4.25003 50.5119C5.79023 53.198 7.76394 55.4948 10.2835 57.3022C10.373 57.3671 10.4695 57.431 10.5321 57.5169C10.6216 57.6407 10.7429 57.7016 10.8752 57.7515C11.3584 57.9353 11.8407 58.124 12.3289 58.2967C13.5559 58.7301 14.7858 59.1575 16.0148 59.5849C17.1105 59.9673 18.2093 60.3418 19.303 60.7303C20.5141 61.1616 21.7212 61.606 22.9313 62.0424C23.9196 62.3989 24.91 62.7494 25.8983 63.1049C26.4303 63.2966 26.9553 63.5043 27.4912 63.681C28.4886 64.0116 29.4849 64.3431 30.4464 64.7755C31.033 65.0401 31.6405 65.2548 32.268 65.4046C32.8546 65.5434 33.4174 65.5154 33.9305 65.1409C34.1572 64.9742 34.4087 64.8404 34.6474 64.6886C34.712 64.6476 34.7816 64.6047 34.8303 64.5468C34.8747 64.4912 34.9326 64.448 34.9984 64.4214C35.0643 64.3948 35.1358 64.3857 35.2062 64.395C35.3772 64.409 35.5502 64.421 35.7182 64.4549C35.9628 64.5058 36.2035 64.5847 36.4481 64.6347C36.9532 64.7395 37.4474 64.7345 37.9038 64.4469C37.9425 64.422 37.9883 64.406 38.029 64.384C38.1058 64.3433 38.1899 64.3186 38.2764 64.3116C38.3629 64.3045 38.4499 64.3153 38.5322 64.3431C39.1009 64.5188 39.6597 64.7325 40.2563 64.7984C40.491 64.9602 40.7316 64.8953 40.9792 64.8304C41.3441 64.7335 41.716 64.6606 42.0958 64.7155C42.3434 64.7515 42.589 64.8064 42.8356 64.8514C42.8813 64.8593 42.9281 64.8613 42.9748 64.8613C42.9887 64.8613 43.0066 64.8514 43.0146 64.8394C43.0205 64.8314 43.0165 64.8094 43.0096 64.7994C42.9509 64.7275 42.8893 64.6566 42.8296 64.5847C42.4259 64.1014 42.0053 63.6321 41.6225 63.1338C40.0236 61.0568 38.8474 58.7501 37.9734 56.2836C37.1584 53.9645 36.6145 51.5581 36.3526 49.1129C36.1802 47.578 36.0995 46.0341 36.111 44.4895C36.114 44.128 36.1488 43.7656 36.1557 43.4041C36.1836 41.9831 36.3417 40.5761 36.5455 39.1711C36.8536 37.0505 37.3331 34.9586 37.9793 32.9161C39.1119 29.3312 40.7057 25.974 42.8604 22.8905C44.4205 20.6587 46.2292 18.6575 48.3491 16.948C50.2622 15.4062 52.3542 14.1829 54.6759 13.3701C55.9845 12.9108 57.3288 12.5982 58.7109 12.4914C60.0115 12.3915 61.314 12.3975 62.6046 12.6392C62.6504 12.6471 62.6981 12.6441 62.7448 12.6431C62.7597 12.6431 62.7747 12.6332 62.7896 12.6282C62.7826 12.6152 62.7796 12.5982 62.7697 12.5912C62.6792 12.5293 62.5897 12.4664 62.4963 12.4085C62.2911 12.2891 62.1252 12.1121 62.019 11.8992C61.7754 11.3899 61.4055 10.9845 60.9869 10.624C60.2406 9.96668 59.3472 9.50009 58.3828 9.26399C58.1232 9.20208 57.8637 9.13018 57.6012 9.09822C57.296 9.06028 56.9947 8.94245 56.6745 9.05728C56.5184 9.1122 56.3593 8.96941 56.3414 8.80564C56.3335 8.75928 56.3345 8.71183 56.3444 8.66585C56.4011 8.48111 56.3235 8.32933 56.244 8.17255C55.9924 7.67127 55.6166 7.27085 55.2129 6.89438C55.0062 6.69976 54.7682 6.54174 54.5089 6.42705C53.8955 6.14737 53.2582 5.92379 52.6048 5.75901C51.5528 5.50637 50.4978 5.27171 49.4428 5.03305C48.2656 4.76743 47.0893 4.49382 45.909 4.24318C44.4981 3.94161 43.0832 3.66401 41.6722 3.36843C38.8185 2.76829 35.9688 2.15417 33.1131 1.56302C31.9776 1.32736 30.8332 1.13563 29.6927 0.92793C29.1368 0.827075 28.577 0.747189 28.0252 0.633352C27.7448 0.575435 27.4783 0.49555 27.2029 0.636348C27.1502 0.66331 27.0786 0.652325 27.017 0.660314C25.5851 0.863024 24.1812 1.18756 22.809 1.6489C20.6511 2.38224 18.5973 3.39393 16.6989 4.65859C13.6394 6.67769 11.0313 9.1841 8.78412 12.079C6.64374 14.846 4.88886 17.893 3.56792 21.136C2.57224 23.5544 1.81945 26.0666 1.32076 28.6352C1.05826 29.9963 0.844477 31.3653 0.753 32.7503C0.684392 33.7559 0.631696 34.7625 0.580986 35.6192ZM64.2204 33.8218L64.1757 32.6495C64.1647 32.3659 64.1637 32.0803 64.1379 31.7987C64.0394 30.7482 63.9082 29.7017 63.6855 28.6692C63.3235 26.9816 62.7866 25.3579 61.9822 23.8301C61.2643 22.4671 60.3654 21.2418 59.209 20.2173C58.1332 19.2647 56.9132 18.5776 55.5201 18.2112C55.021 18.074 54.5093 17.9884 53.9928 17.9555C53.785 17.9446 53.622 17.8737 53.5961 17.636C53.5872 17.5521 53.5474 17.5271 53.4748 17.5661C53.3644 17.624 53.2551 17.6859 53.1467 17.7498C51.0139 19.008 49.1873 20.6307 47.5715 22.499C45.9687 24.3524 44.6413 26.3934 43.5356 28.5803C42.5634 30.506 41.7722 32.5185 41.1721 34.5917C40.8535 35.6959 40.5838 36.8137 40.3637 37.9419C40.3259 38.1346 40.3388 38.1556 40.5228 38.2085C40.9603 38.3313 41.4008 38.4442 41.8353 38.579C42.6628 38.828 43.4475 39.2028 44.162 39.6904C45.041 40.2995 45.6942 41.0854 46.0462 42.1039C46.261 42.728 46.444 43.3631 46.6428 43.9932C46.7085 44.2029 46.7621 44.4196 46.8477 44.6223C47.1808 45.4162 47.7276 45.9844 48.5678 46.25C49.063 46.4068 49.5631 46.5356 50.0742 46.6135C51.159 46.7792 52.2448 46.937 53.3336 47.0748C54.485 47.2206 55.6364 47.3614 56.7779 47.5691C57.3149 47.666 57.8637 47.7319 58.3619 47.9915C58.4328 48.0215 58.5112 48.0291 58.5866 48.0135C59.1424 47.9186 59.6973 47.8178 60.2521 47.7169C60.4211 47.6859 60.62 47.6939 60.7453 47.6021C60.8725 47.5092 60.9312 47.3165 61.0098 47.1627C62.576 44.0669 63.5865 40.7181 63.9947 37.2699C64.1309 36.1415 64.1717 35.0101 64.2204 33.8218ZM77.6666 37.861C77.6738 36.7416 77.6207 35.6225 77.5075 34.5088C77.3899 33.365 77.2113 32.2283 76.9726 31.1037C76.4386 28.6253 75.6083 26.2556 74.3833 24.0338C73.6207 22.6498 72.7238 21.3597 71.644 20.2033C71.5376 20.0885 71.4322 19.9627 71.3009 19.8838C71.1572 19.7896 71.029 19.6734 70.9211 19.5393C70.3882 18.9401 69.8701 18.321 69.1244 17.9675C69.0687 17.9406 69.021 17.8966 68.9693 17.8607C67.226 16.638 65.2233 15.8394 63.1197 15.528C62.7637 15.4741 62.4018 15.4551 62.0429 15.4222C62.017 15.4192 61.9892 15.4361 61.9613 15.4441C61.9822 15.4661 61.9991 15.4941 62.023 15.511C62.0757 15.545 62.1303 15.5759 62.186 15.6049C62.9258 15.9963 63.599 16.4826 64.2373 17.0229C65.3123 17.9444 66.3051 18.9585 67.2044 20.0535C68.033 21.0444 68.7428 22.1297 69.3193 23.2869C69.9994 24.6609 70.4826 26.1069 70.8515 27.5937C71.113 28.6502 71.3308 29.7157 71.3885 30.8041C71.4514 32.0482 71.4269 33.2952 71.3149 34.5358C71.3106 34.5987 71.3013 34.6611 71.287 34.7225C71.2363 34.9282 71.0902 35.06 70.938 35.0421C70.7601 35.0221 70.6527 34.8493 70.6755 34.6087C70.6954 34.389 70.7372 34.1713 70.7431 33.9516C70.764 33.2426 70.7789 32.5337 70.7839 31.8247C70.7978 31.0518 70.7432 30.2792 70.6208 29.516C70.4273 28.3829 70.1552 27.2648 69.8065 26.1698C69.2984 24.5691 68.6153 23.0522 67.6508 21.6732C66.5166 20.0617 65.1745 18.6084 63.6596 17.3514C62.9388 16.7406 62.135 16.2362 61.2722 15.8535C61.0272 15.7485 60.7882 15.6299 60.5563 15.4981C60.4479 15.4349 60.3217 15.4096 60.1974 15.4262C59.9011 15.4561 59.6028 15.4781 59.3085 15.523C58.1113 15.7058 56.939 15.9884 55.8144 16.4457C55.2924 16.6584 54.7803 16.8991 54.2663 17.1317C54.2016 17.1617 54.0972 17.2326 54.1042 17.2685C54.1251 17.3874 54.2484 17.3544 54.3349 17.3714C54.3657 17.3774 54.3975 17.3744 54.4283 17.3794C54.7376 17.4283 55.0508 17.4632 55.356 17.5311C56.6616 17.8256 57.8891 18.398 58.9555 19.2097C60.2193 20.1564 61.2206 21.3387 62.0409 22.6808C62.8512 24.0039 63.4428 25.4248 63.8823 26.9117C64.4521 28.8419 64.7275 30.8191 64.809 32.8242C64.8668 34.3372 64.802 35.8524 64.6152 37.3547C64.4541 38.6836 64.2053 40.0003 63.8704 41.2961C63.1953 43.9024 62.2188 46.3858 60.8646 48.7135C60.5404 49.2717 60.1964 49.8179 59.8633 50.3711C59.7957 50.4829 59.8116 50.5428 59.916 50.6028C60.0254 50.6647 60.1367 50.7236 60.2471 50.7835C60.3953 50.8634 60.4231 50.8604 60.5116 50.7206C61.0396 49.8968 61.489 49.032 61.8669 48.1293C62.0806 47.62 62.012 47.638 62.536 47.7379C62.6285 47.7558 62.724 47.7558 62.8154 47.7778C64.4988 48.1703 66.0032 48.9072 67.269 50.1045C67.3028 50.1374 67.3356 50.1794 67.3774 50.1934C67.4112 50.2043 67.4818 50.1953 67.4947 50.1714C67.5544 50.0615 67.6071 49.9467 67.6498 49.8299C68.0485 48.7514 68.4622 47.679 68.837 46.5945C69.3213 45.1945 69.7309 43.7735 70.0422 42.3236C70.2201 41.4918 70.3434 40.651 70.4687 39.8102C70.4926 39.6554 70.5274 39.5007 70.5681 39.3509C70.591 39.265 70.6676 39.235 70.7511 39.2311C70.7987 39.2298 70.8451 39.2461 70.8815 39.2768C70.9179 39.3075 70.942 39.3505 70.949 39.3978C70.9589 39.4597 70.9639 39.5226 70.9659 39.5855C70.9891 40.2637 70.9388 40.9424 70.8157 41.6096C70.5672 42.9246 70.2428 44.2239 69.8443 45.5011C69.2344 47.4717 68.5232 49.4092 67.7135 51.3058C67.3814 52.0876 67.0413 52.8675 66.7042 53.6474C66.6237 53.8331 66.5392 54.0189 66.4556 54.2046L66.8524 54.6649C66.8633 54.6769 66.8762 54.6969 66.8862 54.6949C66.925 54.6919 66.9816 54.6929 66.9985 54.6689C67.0612 54.5791 67.1149 54.4822 67.1646 54.3843C67.5186 53.6983 67.8358 52.9963 68.1162 52.2764C68.1619 52.1585 68.2066 52.0417 68.2593 51.9279C68.2693 51.9049 68.3081 51.8809 68.3339 51.8809C68.3538 51.8809 68.3826 51.9129 68.3936 51.9368C68.4612 52.0796 68.5169 52.2284 68.5924 52.3662C68.7515 52.6548 68.9056 52.9474 69.0886 53.221C69.3541 53.6164 69.7399 53.8551 70.1973 53.9679C70.41 54.0199 70.6278 54.0558 70.8456 54.0798C71.7365 54.1736 72.6314 54.1726 73.5252 54.1926C73.6943 54.1956 73.7868 54.1267 73.8534 53.9849C74.0542 53.5585 74.265 53.1361 74.4619 52.7067C75.4837 50.472 76.2641 48.1336 76.7896 45.7317C77.0292 44.6393 77.245 43.5429 77.3643 42.4295C77.4518 41.6156 77.5503 40.8018 77.6059 39.985C77.6547 39.28 77.6487 38.57 77.6666 37.861ZM51.8332 90.5455C53.3475 90.5336 54.6938 90.5146 56.0362 90.3408C57.0635 90.2163 58.0747 89.9827 59.0529 89.6438C59.1564 89.6074 59.2566 89.562 59.3522 89.508C59.4457 89.4541 59.4845 89.3293 59.4586 89.2174C59.446 89.1636 59.4163 89.1152 59.374 89.0798C59.3316 89.0443 59.279 89.0236 59.2239 89.0207C59.1461 89.0202 59.0684 89.0282 58.9923 89.0447C57.8538 89.2674 56.7163 89.498 55.5589 89.5969C54.9026 89.6538 54.2464 89.7247 53.5891 89.7427C52.2719 89.7815 50.9536 89.7648 49.6377 89.6928C48.5732 89.6346 47.51 89.5533 46.4489 89.4491C45.2955 89.3343 44.1461 89.1685 42.9977 89.0117C41.3679 88.7839 39.7465 88.4995 38.1364 88.159C34.8986 87.4782 31.719 86.5433 28.6268 85.363C26.9384 84.7229 25.2858 84.0039 23.7069 83.1202C23.4881 82.9974 23.2694 82.8735 23.0516 82.7467C22.932 82.6703 22.7927 82.6307 22.6509 82.6329C22.4232 82.6429 22.283 82.8276 22.3268 83.0553C22.3476 83.1653 22.4108 83.2625 22.5027 83.3259C22.6042 83.3978 22.7125 83.4627 22.8209 83.5266C23.7684 84.0834 24.7468 84.5855 25.7512 85.0304C27.7716 85.9371 29.8488 86.6901 31.9577 87.3581C34.3634 88.1239 36.8146 88.7373 39.2968 89.1945C40.2981 89.3772 41.3013 89.558 42.3066 89.7187C43.0643 89.8396 43.8269 89.9354 44.5896 90.0283C45.2896 90.1132 45.9916 90.1861 46.6935 90.25C47.661 90.3378 48.6295 90.4317 49.5989 90.4876C50.3974 90.5346 51.1978 90.5306 51.8332 90.5455ZM89.8032 89.0856C89.9176 89.0557 90.0081 89.0317 90.0996 89.0097C91.2706 88.7169 92.4231 88.3538 93.5508 87.9223C97.0936 86.5852 100.504 84.9605 103.833 83.1581C104.98 82.537 106.105 81.883 107.177 81.136C107.331 81.0292 107.482 80.9153 107.633 80.8025C107.683 80.7656 107.732 80.7246 107.775 80.6787C107.898 80.5429 107.919 80.3372 107.828 80.1984C107.738 80.0606 107.543 80.0176 107.367 80.1085C107.27 80.1603 107.178 80.2197 107.09 80.2862C106.417 80.7785 105.715 81.2249 104.996 81.6443C102.282 83.228 99.467 84.612 96.5964 85.8852C94.8902 86.6421 93.1402 87.2922 91.3922 87.9433C90.8781 88.135 90.3621 88.3217 89.85 88.5194C89.7509 88.5619 89.6598 88.621 89.5805 88.6942C89.5099 88.7551 89.5119 88.8869 89.5835 88.9508C89.6501 89.0097 89.7366 89.0457 89.8032 89.0856ZM85.467 58.0271C85.8508 58.0371 86.3838 58.0551 86.9167 58.0641C87.0559 58.0671 87.1961 58.0541 87.3344 58.0331C87.4179 58.0201 87.4497 57.8494 87.3811 57.7955C87.334 57.7552 87.2806 57.7231 87.223 57.7006C86.9829 57.6255 86.7327 57.5884 86.4812 57.5908C85.1328 57.5611 83.7837 57.6011 82.4393 57.7106C82.0187 57.7465 81.5991 57.8005 81.1795 57.8554C80.7291 57.9153 80.2807 58.0052 79.8292 58.0411C79.4234 58.0806 79.0147 58.0789 78.6092 58.0361C77.8139 57.9371 77.0416 57.701 76.3262 57.3381C75.9225 57.1314 75.5477 56.8688 75.1589 56.6331C74.8646 56.4534 74.5713 56.2716 74.273 56.0999C74.1636 56.037 74.093 56.0769 74.0154 56.2197C73.9329 56.3675 73.9409 56.4154 74.0642 56.4913C74.3963 56.699 74.7383 56.8928 75.0605 57.1164C75.9266 57.7177 76.9014 58.1431 77.9301 58.3686C78.3447 58.4615 78.7603 58.5184 79.1859 58.5244C79.6433 58.5294 80.0937 58.4725 80.5412 58.3946C81.5464 58.2208 82.5616 58.1509 83.5768 58.08C84.1555 58.0391 84.7372 58.0451 85.467 58.0271ZM52.0509 65.1639C52.743 65.1849 53.5056 65.086 54.2613 64.9442C54.7227 64.8573 55.1741 64.7215 55.6285 64.6007C55.7518 64.5678 55.7846 64.5069 55.7617 64.394C55.7399 64.2862 55.712 64.1793 55.6852 64.0725C55.6275 63.8448 55.6136 63.8338 55.4078 63.8937C54.4562 64.1703 53.4887 64.3491 52.5004 64.4389C51.3734 64.5389 50.2378 64.4385 49.1455 64.1424C48.3352 63.9277 47.5854 63.5732 46.8745 63.1318C46.7552 63.0579 46.6269 62.999 46.4996 62.9391C46.4798 62.9291 46.433 62.9451 46.4181 62.9641C46.4062 62.98 46.4121 63.03 46.4281 63.0449C46.79 63.3715 47.143 63.708 47.5198 64.0155C47.8847 64.3131 48.2745 64.5797 48.6553 64.8583C48.7478 64.9262 48.8393 64.9812 48.9228 64.8314C48.9437 64.7944 49.0312 64.7825 49.0889 64.7815C49.1495 64.7815 49.2112 64.8064 49.2718 64.8214C50.1568 65.058 51.0556 65.1719 52.0509 65.1639ZM51.7288 69.0613C51.7715 69.0324 51.8491 69.0074 51.8551 68.9715C51.862 68.9185 51.8232 68.8546 51.7924 68.8027C51.7805 68.7807 51.7407 68.7707 51.7119 68.7598C51.653 68.7375 51.5933 68.7175 51.5329 68.6998C50.0573 68.2804 48.713 67.5774 47.4234 66.7596C46.09 65.9138 44.9107 64.8823 43.8388 63.724C43.5306 63.3914 43.5903 63.3725 43.0732 63.5582C43.0587 63.5635 43.0444 63.5695 43.0305 63.5762C42.9738 63.6021 42.9499 63.682 42.9917 63.733C43.0901 63.8558 43.1886 63.9786 43.295 64.0934C43.7849 64.6249 44.3048 65.1277 44.8521 65.5993C46.5792 67.0822 48.5181 68.1746 50.7086 68.8017C51.0387 68.8956 51.3758 68.9714 51.7288 69.0613ZM55.9974 84.7478L55.9984 84.7738C56.6874 84.7379 57.3755 84.7019 58.0646 84.664C58.7059 84.629 59.3482 84.5981 59.9886 84.5501C60.1894 84.5362 60.3903 84.4862 60.5862 84.4323C60.7433 84.3894 60.8487 84.2436 60.8298 84.1237C60.8232 84.0603 60.7967 84.0006 60.7542 83.9533C60.7116 83.9059 60.6553 83.8733 60.5931 83.8601C60.442 83.8206 60.2869 83.7982 60.1308 83.7932C59.7241 83.7942 59.3164 83.8072 58.9087 83.8272C58.0009 83.8721 57.0941 83.935 56.1853 83.971C55.5748 83.9949 54.9633 83.9829 54.3508 83.9889C54.2583 83.9899 54.1599 83.9889 54.0724 84.0149C54.0117 84.0323 53.9567 84.0655 53.913 84.1112C53.8692 84.1568 53.8383 84.2133 53.8232 84.2748C53.8082 84.3363 53.8096 84.4008 53.8274 84.4616C53.8451 84.5224 53.8785 84.5774 53.9242 84.621C53.9914 84.6857 54.0762 84.7288 54.1678 84.7449C54.3846 84.7758 54.6043 84.7948 54.8231 84.7928C55.2149 84.7878 55.6056 84.7638 55.9974 84.7478ZM60.8616 56.2636C60.8159 56.3016 60.7473 56.3395 60.7075 56.3975C60.6848 56.4307 60.676 56.4716 60.6829 56.5113C60.6897 56.551 60.7118 56.5865 60.7443 56.6102C60.8566 56.692 60.9789 56.7669 61.1072 56.8179C61.311 56.8977 61.5238 56.9537 61.7326 57.0216C62.8168 57.3662 63.7693 58.0373 64.461 58.9438C64.7484 59.3173 65.0169 59.7057 65.2724 60.1012C65.6035 60.6164 65.9068 61.1497 66.2339 61.6689C66.7778 62.5307 67.5017 63.2247 68.2981 63.8468C68.4075 63.9337 68.5358 63.9986 68.66 64.0645C68.7147 64.0948 68.7767 64.109 68.839 64.1054C68.8937 64.0994 68.9643 64.0655 68.9892 64.0215C69.014 63.9786 69.012 63.8867 68.9812 63.8518C68.8887 63.7479 68.7824 63.6531 68.671 63.5692C67.6976 62.8302 66.8723 61.9565 66.2697 60.883C66.1703 60.7043 66.0649 60.5285 65.9555 60.3558C65.6681 59.9064 65.3917 59.4471 65.0845 59.0107C64.2741 57.8584 63.2171 57.0286 61.8698 56.5922C61.5874 56.5003 61.308 56.3975 61.0267 56.3006C60.9829 56.2856 60.9362 56.2806 60.8616 56.2636ZM101.63 60.3398H101.532C101.448 60.3498 101.384 60.3897 101.355 60.4716C101.341 60.5164 101.342 60.5648 101.36 60.6085C101.377 60.6522 101.409 60.6885 101.45 60.7113C101.505 60.7412 101.562 60.7712 101.623 60.7852C102.612 61.0318 103.567 61.3873 104.511 61.7628C106.708 62.6355 108.683 63.8498 110.256 65.6552C110.296 65.7039 110.34 65.7487 110.388 65.789C110.452 65.8419 110.53 65.8599 110.604 65.812C110.622 65.802 110.636 65.7886 110.648 65.7725C110.66 65.7565 110.668 65.7382 110.673 65.7188C110.677 65.6994 110.677 65.6794 110.674 65.6598C110.67 65.6403 110.662 65.6217 110.651 65.6053C110.513 65.3786 110.384 65.1409 110.213 64.9392C109.999 64.6879 109.765 64.4551 109.513 64.2432C108.108 63.0709 106.587 62.0813 104.873 61.4223C104.084 61.1197 103.283 60.8471 102.487 60.5665C102.28 60.4946 102.066 60.4437 101.854 60.3867C101.765 60.3618 101.672 60.3488 101.63 60.3398ZM75.4821 67.1561C75.4652 67.1211 75.4502 67.0312 75.3966 66.9903C75.2353 66.8678 75.0655 66.757 74.8885 66.6588C74.0145 66.1755 73.1007 65.7601 72.3102 65.1339C72.2474 65.0886 72.1754 65.0579 72.0994 65.0441C72.0189 65.0271 71.9363 65.0601 71.9045 65.1379C71.8825 65.1952 71.8829 65.2587 71.9055 65.3157C71.9373 65.3826 71.993 65.4465 72.0536 65.4914C72.2913 65.6692 72.523 65.8619 72.7795 66.0067C73.5282 66.4271 74.2879 66.8285 75.0446 67.2349C75.1261 67.2779 75.2196 67.2998 75.3091 67.3248C75.3737 67.3428 75.4731 67.2649 75.4821 67.1561ZM70.5672 55.8582C70.8654 55.8862 71.2691 55.9191 71.6708 55.9631C71.9502 55.994 72.2277 56.038 72.5051 56.0759C72.6264 56.0929 72.7189 56.0559 72.7765 55.9431C72.8054 55.8882 72.8382 55.8333 72.8581 55.7754C72.865 55.7554 72.8471 55.7114 72.8292 55.7025C72.7745 55.6727 72.7154 55.6518 72.6542 55.6405C72.1601 55.5716 71.6669 55.4918 71.1707 55.4468C70.8127 55.4204 70.4536 55.4137 70.0948 55.4269C69.9417 55.4289 69.7886 55.4768 69.6375 55.5117C69.5919 55.5215 69.5511 55.5469 69.5221 55.5836C69.4903 55.6326 69.4565 55.6995 69.4664 55.7514C69.4764 55.8023 69.5301 55.8652 69.5788 55.8842C69.6526 55.9061 69.73 55.9133 69.8065 55.9052C70.0243 55.8952 70.242 55.8782 70.5672 55.8582ZM50.646 49.8518C50.635 49.8259 50.6301 49.7879 50.6102 49.7789C50.5913 49.77 50.5595 49.7909 50.5326 49.7989L50.5783 49.8968C50.6002 49.8808 50.6241 49.8668 50.646 49.8518Z" fill="black"/>
<path d="M31.7111 37.6355C32.0591 37.6075 32.3405 37.5805 32.6219 37.5626C32.7651 37.5536 32.8228 37.6145 32.8089 37.7633C32.7671 38.2186 32.7174 38.672 32.6696 39.1263C32.6239 39.5657 32.5662 40.0031 32.5304 40.4424C32.4237 41.8254 32.3809 43.2125 32.4022 44.5995C32.4121 45.4682 32.4579 46.333 32.5334 47.1958C32.6508 48.5468 32.8446 49.8869 33.1071 51.217C33.6033 53.7414 34.3292 56.1999 35.1932 58.6204C35.7302 60.1232 36.4063 61.5602 37.2863 62.8943C37.4026 63.07 37.4056 63.2048 37.2883 63.3616C37.2783 63.3746 37.2714 63.3886 37.2634 63.4015C37.1829 63.5294 37.1371 63.5483 36.991 63.5204C36.637 63.4525 36.284 63.3806 35.929 63.3187C35.5283 63.2488 35.1455 63.3266 34.7846 63.4984C34.5434 63.6127 34.3087 63.7404 34.0816 63.8809C33.6093 64.1724 33.1121 64.2104 32.5861 64.0746C31.8255 63.8769 31.0946 63.5873 30.3648 63.3047C28.8137 62.7025 27.2695 62.0864 25.7223 61.4743C24.2776 60.9021 22.797 60.4298 21.3304 59.9205C19.7296 59.3653 18.1287 58.8111 16.51 58.3128C15.5206 58.0083 14.5313 57.7027 13.5489 57.3752C12.9841 57.1874 12.4323 56.9588 11.8784 56.7411C11.6149 56.6372 11.3654 56.4974 11.0989 56.4076C10.4158 56.1779 9.84305 55.7685 9.28921 55.3251C8.52358 54.713 7.86535 53.997 7.24688 53.2381C6.94859 52.8726 6.63737 52.5171 6.32217 52.1666C6.11886 51.9475 5.94624 51.7016 5.80909 51.4357C4.83565 49.4905 3.94972 47.5083 3.26065 45.4423C2.77244 43.9774 2.42543 42.4745 2.16392 40.9517C1.8358 39.0324 1.75028 37.1012 1.78409 35.159C1.80397 34.0536 1.88551 32.9542 2.01676 31.8597C2.2554 29.8546 2.65909 27.8814 3.2169 25.9412C4.43395 21.7133 6.26947 17.7789 8.78012 14.1681C10.2413 12.0551 11.9406 10.1187 13.8442 8.39734C15.4905 6.90895 17.3153 5.63259 19.2762 4.59779C19.999 4.21633 20.7149 3.82889 21.4806 3.5403C22.0831 3.31463 22.6887 3.09694 23.3211 2.97112C23.505 2.93517 23.6989 2.93118 23.8759 2.87426C24.3462 2.72447 24.8066 2.7744 25.258 2.92918C25.4877 3.00906 25.7134 3.03103 25.951 3.00607C26.0445 2.99608 26.1399 2.99608 26.2334 2.98809C28.6765 2.80635 30.8103 3.54629 32.6478 5.16497C33.7843 6.16654 34.6463 7.3788 35.3444 8.71688C36.0682 10.1069 36.5803 11.5768 36.9363 13.1006C37.1073 13.8356 37.2336 14.5825 37.3807 15.3234C37.4277 15.5248 37.4045 15.7363 37.3151 15.9226C37.2246 16.1043 37.1331 16.286 37.0387 16.4668C37.0327 16.4768 36.9721 16.4758 36.9681 16.4668C36.9513 16.4231 36.9399 16.3775 36.9343 16.331C36.8023 15.3157 36.6158 14.3083 36.3755 13.3133C35.9877 11.7635 35.4547 10.2707 34.6802 8.86967C34.1213 7.85712 33.4532 6.92645 32.6199 6.1226C31.5819 5.12203 30.3827 4.39907 28.9827 4.0336C28.3465 3.85857 27.6895 3.7709 27.0299 3.77297C27 3.77297 26.9702 3.78695 26.9404 3.79394C26.9553 3.83188 26.9613 3.87882 26.9881 3.90478C27.0547 3.97168 27.1333 4.02461 27.2019 4.09051C27.3709 4.25328 27.5429 4.41605 27.705 4.5868C27.9436 4.83844 28.1147 5.13402 28.2857 5.43758C28.9201 6.56397 29.1995 7.77423 29.2184 9.0574C29.2343 10.1219 29.0583 11.1594 28.7809 12.1829C28.4478 13.4172 27.9804 14.6025 27.4743 15.7738C26.6251 17.7223 25.6963 19.6349 24.6902 21.5066C23.2684 24.1727 21.8236 26.8289 20.3918 29.4891C20.1382 29.9614 19.9105 30.4468 19.7753 30.968C19.7316 31.1338 19.7117 31.3075 19.6958 31.4793C19.6842 31.6056 19.7024 31.7329 19.7489 31.8508C19.7953 31.9688 19.8688 32.0741 19.9632 32.1583C20.0766 32.2671 20.1979 32.368 20.3252 32.4599C20.5668 32.6336 20.8164 32.7984 21.063 32.9661C22.7603 34.1245 24.0867 35.6074 24.9875 37.4657L25.1556 37.8052C25.3723 38.2506 25.2739 38.2416 25.8675 38.1647C26.5834 38.0738 27.2983 37.981 28.0152 37.9091C28.7809 37.8322 29.5465 37.7792 30.3121 37.7153C30.511 37.6994 30.5408 37.6764 30.5786 37.4597C30.6263 37.1801 30.6651 36.8995 30.7029 36.6189C30.9129 35.1055 31.2124 33.606 31.5998 32.1283C32.4022 29.0208 33.5297 26.0371 35.0411 23.2051C36.8557 19.8 39.1258 16.7424 41.9556 14.1181C44.6601 11.6117 47.7097 9.65454 51.1729 8.37238C51.7457 8.16068 52.3323 7.98493 52.914 7.7982C53.0032 7.77084 53.0961 7.75737 53.1894 7.75826C53.2968 7.75826 53.3972 7.85412 53.4241 7.95797C53.4549 8.07481 53.438 8.19164 53.3405 8.25754C53.2401 8.32744 53.1198 8.37038 53.0025 8.41032C52.4825 8.58707 51.9565 8.74485 51.4414 8.93358C48.9168 9.86025 46.6011 11.1704 44.4682 12.808C41.6334 14.9849 39.2779 17.6052 37.3151 20.5889C35.1704 23.8482 33.5983 27.3722 32.5155 31.1198C32.0185 32.8281 31.6359 34.5678 31.3701 36.3273C31.3174 36.6858 31.2567 37.0433 31.207 37.4018C31.1812 37.5865 31.2269 37.6345 31.3999 37.6355H31.7111V37.6355ZM2.40156 34.6218H2.38068C2.38068 35.0312 2.37968 35.4406 2.38167 35.851C2.38167 35.8969 2.40156 35.9419 2.4135 35.9868C2.47017 35.9668 2.53679 35.9609 2.58253 35.9269C2.75753 35.7921 2.9206 35.6443 3.09659 35.5125C3.17812 35.4506 3.26861 35.3288 3.375 35.4027C3.4267 35.4396 3.42273 35.5774 3.42074 35.6683C3.39489 37.0283 3.55498 38.3724 3.76577 39.7125C3.88111 40.4434 3.99446 41.1734 3.99446 41.9193C3.99446 42.3896 4.03921 42.864 4.08693 43.3333C4.21222 44.5565 4.43395 45.7638 4.6875 46.9671C4.80284 47.5143 5.08622 47.9477 5.40838 48.3751C5.43324 48.408 5.49886 48.3861 5.51776 48.3391C5.53366 48.2962 5.55157 48.2522 5.56449 48.2073C5.69674 47.723 5.82799 47.2367 5.96222 46.7524C5.97997 46.6927 6.00328 46.6349 6.03182 46.5796C6.10739 46.4259 6.19091 46.2751 6.26449 46.1193C6.66421 45.2705 7.16634 44.4956 7.87131 43.8675C8.99191 42.868 10.2975 42.5294 11.7621 42.805C12.0992 42.869 12.4203 43.0217 12.7574 43.0757C13.0209 43.1176 13.2287 43.2314 13.4335 43.3792C13.6125 43.508 13.7935 43.6319 13.9725 43.7587C14.9356 44.4438 15.7646 45.3016 16.4175 46.2891C17.0986 47.3026 17.5968 48.404 17.9955 49.5544C18.3683 50.6248 18.6647 51.7183 18.95 52.8157C19.1926 53.7444 19.4402 54.673 19.6948 55.5977C19.8161 56.0391 19.9791 56.4645 20.184 56.8759C20.4723 57.4541 20.9188 57.8505 21.5263 58.0602C21.8365 58.167 22.1527 58.2639 22.4689 58.3528C24.372 58.882 26.302 59.3084 28.223 59.7648C28.5134 59.8337 28.8047 59.8906 29.0971 59.9495C29.1696 59.9645 29.2233 59.9025 29.1965 59.8416C29.1839 59.813 29.17 59.785 29.1547 59.7578C28.7441 59.0288 28.4438 58.2499 28.1574 57.465C27.526 55.7325 27.0299 53.9601 26.5765 52.1736C26.2426 50.8777 26.0049 49.5586 25.8655 48.2273C25.8247 47.8209 25.8556 47.4075 25.7442 47.007C25.7262 46.9136 25.7268 46.8176 25.7462 46.7244C25.8118 46.2741 25.8496 45.8157 25.958 45.3764C26.13 44.6754 26.1777 43.9804 26.0326 43.2724C26.0137 43.1805 26.0127 43.0846 26.0047 42.9908C25.9729 42.6613 25.9471 42.3317 25.9063 42.0022C25.8894 41.8644 25.8725 41.7066 25.7989 41.5958C25.6338 41.3501 25.5891 41.0755 25.5424 40.7969C25.4572 40.2517 25.3046 39.7194 25.088 39.2122C24.8801 38.7359 24.6753 38.2586 24.4536 37.7892C23.7188 36.2365 22.6519 34.9523 21.2996 33.9048C20.9645 33.6452 20.6036 33.4205 20.2595 33.1709C20.0189 32.9961 19.7723 32.8233 19.5556 32.6196C19.1479 32.2372 19.0007 31.7579 19.0902 31.2017C19.1419 30.8908 19.2259 30.5863 19.3408 30.293C19.5904 29.6439 19.9245 29.0378 20.2556 28.4286C21.3135 26.4784 22.3834 24.5342 23.4294 22.576C24.5858 20.4091 25.7034 18.2233 26.7047 15.9785C27.1979 14.8711 27.6513 13.7477 28.0172 12.5903C28.4299 11.2872 28.6576 9.9611 28.573 8.58907C28.5357 7.92743 28.3999 7.27514 28.1703 6.65384C27.711 5.42161 26.9245 4.47496 25.7273 3.90378C25.0034 3.55728 24.2507 3.39152 23.4443 3.57226C22.9382 3.68609 22.447 3.84187 21.9598 4.01862C21.235 4.28124 20.5489 4.62774 19.8578 4.96626C18.5274 5.61733 17.2607 6.36825 16.1003 7.29293C15.7324 7.5875 15.3715 7.89207 15.0105 8.19663C13.1461 9.77087 11.468 11.555 10.0091 13.514C7.59092 16.7534 5.74546 20.3023 4.43097 24.1298C3.79383 25.9756 3.30147 27.8687 2.95838 29.7917C2.79929 30.6904 2.67599 31.5961 2.56861 32.5028C2.48906 33.2058 2.45625 33.9148 2.40156 34.6218V34.6218Z" fill="black"/>
<path d="M33.4622 43.5969C33.5069 42.7581 33.5497 41.7505 33.6203 40.745C33.6769 39.9441 33.7585 39.1443 33.846 38.3464C33.8847 37.9879 33.9603 37.6334 34.0259 37.2779C34.1721 36.4891 34.3113 35.6982 34.4744 34.9123C35.0109 32.3518 35.8031 29.852 36.8389 27.451C37.9328 24.8841 39.3134 22.4503 40.9544 20.1964C43.0613 17.3145 45.5402 14.8101 48.4744 12.773C50.0625 11.6696 51.7643 10.7412 53.5504 10.004C53.6806 9.95205 53.817 9.91747 53.9561 9.90116C54.0903 9.88518 54.2057 9.98104 54.2395 10.1029C54.2553 10.1564 54.2536 10.2136 54.2347 10.2661C54.2157 10.3186 54.1804 10.3636 54.1341 10.3945C54.0346 10.4683 53.9213 10.5283 53.8059 10.5742C52.4447 11.1144 51.1561 11.7974 49.9152 12.5713C48.5169 13.4487 47.1971 14.4464 45.9707 15.5531C43.2532 17.9926 41.0389 20.8355 39.2431 24.0129C37.3629 27.3382 36.0305 30.8781 35.1774 34.6018C34.9944 35.3986 34.8572 36.2065 34.7011 37.0103C34.6892 37.0722 34.6842 37.1351 34.6772 37.1981C34.6444 37.5106 34.6543 37.5246 34.9546 37.5356C35.1893 37.5456 35.4249 37.5456 35.6596 37.5575C35.8406 37.5675 35.8803 37.6214 35.8545 37.7942C35.764 38.3864 35.6616 38.9755 35.586 39.5697C35.4906 40.3351 35.4051 41.1017 35.3295 41.8694C35.1963 43.2055 35.2191 44.5465 35.2579 45.8856C35.2907 47.034 35.3603 48.1823 35.5005 49.3257C35.9723 53.1979 37.155 56.9487 38.9886 60.3878C39.5345 61.4164 40.1191 62.4249 40.6859 63.4415C40.7167 63.4964 40.7535 63.5483 40.7853 63.6012L41.0438 64.0426C40.8848 64.1764 40.6929 64.1135 40.5159 64.1275C40.3757 64.1375 40.2325 64.1085 40.0923 64.1235C39.8129 64.1534 39.623 64.0236 39.439 63.8299C38.7165 63.061 38.0962 62.2014 37.5936 61.2726C37.021 60.2216 36.5355 59.1251 36.1418 57.9943C35.5751 56.3746 35.0491 54.7429 34.6444 53.0723C34.2593 51.5132 33.9658 49.9328 33.7654 48.3391C33.6451 47.3545 33.5497 46.3659 33.5328 45.3713C33.5238 44.8371 33.491 44.3029 33.4622 43.5969V43.5969ZM37.7109 17.9586C37.6821 18.1444 37.6592 18.3311 37.6214 18.5138C37.6015 18.589 37.5667 18.6593 37.519 18.7205C37.4315 18.8394 37.2257 18.8314 37.159 18.7006C37.1044 18.5917 37.0467 18.4659 37.0497 18.3491C37.0556 18.0994 37.0934 17.8498 37.1312 17.6031C37.1491 17.4883 37.2306 17.4104 37.348 17.3794C37.5379 17.3285 37.7059 17.4374 37.7149 17.6291C37.7198 17.7369 37.7049 17.8468 37.699 17.9566L37.7109 17.9586V17.9586ZM71.3935 37.0772C71.3626 37.3768 71.3348 37.6714 71.297 37.965C71.2825 38.0412 71.2539 38.1141 71.2125 38.1797C71.1509 38.2835 71.0494 38.3185 70.9321 38.3045C70.8307 38.2925 70.7531 38.2346 70.7233 38.1417C70.6925 38.0547 70.679 37.9624 70.6835 37.8701C70.7034 37.6055 70.7322 37.3419 70.77 37.0812C70.7879 36.9584 70.8277 36.8376 70.8744 36.7237C70.9172 36.6189 70.9997 36.544 71.125 36.549C71.2284 36.553 71.308 36.6319 71.3428 36.7587C71.3547 36.8036 71.3666 36.8486 71.3736 36.8955C71.3835 36.9564 71.3875 37.0193 71.3935 37.0772V37.0772Z" fill="black"/>
</svg>
