<svg width="47" height="37" viewBox="0 0 47 37" fill="none" xmlns="http://www.w3.org/2000/svg">
<path fill-rule="evenodd" clip-rule="evenodd" d="M45.3752 27.474C45.3807 27.527 45.3863 27.58 45.3929 27.6329V27.634C45.373 27.9188 45.3431 28.1627 45.2535 28.5003C45.0842 29.1495 44.7856 29.746 44.4272 30.3126C43.8616 31.2123 43.1595 32.0185 42.3463 32.7025C41.8653 33.1167 41.3374 33.473 40.7733 33.7641C40.4747 33.9124 40.166 34.0359 39.8474 34.1195C39.5786 34.1922 39.2899 34.242 39.0012 34.2261C38.7423 34.2122 38.5034 34.1564 38.2744 34.023C38.2047 33.9801 38.135 33.9323 38.125 33.8447C38.1051 33.782 38.0653 33.7441 38.0155 33.7093L37.8961 33.6137C37.5591 33.347 37.222 33.0802 36.885 32.8135C35.5196 31.7327 34.1541 30.652 32.7887 29.5738C32.5995 29.4324 32.4402 29.282 32.3208 29.0848C32.3102 29.0653 32.2941 29.0469 32.2783 29.0289C32.2643 29.0129 32.2505 28.9972 32.2412 28.9813C31.7135 28.3161 31.1958 27.6449 30.7378 26.9319C30.7004 26.8767 30.6652 26.8215 30.6301 26.7665C30.5904 26.7045 30.551 26.6426 30.5087 26.5814C30.2997 26.2717 30.0906 25.963 29.8218 25.7011C29.553 25.4402 29.2643 25.2042 28.9457 24.9991C28.8356 24.9236 28.7194 24.8462 28.6018 24.768C28.5705 24.7471 28.5391 24.7263 28.5077 24.7053C28.1393 24.4474 27.8008 24.1437 27.5022 23.7952C27.3532 23.6104 27.1986 23.4272 27.0426 23.2425C26.9901 23.1803 26.9375 23.1179 26.8849 23.0553C26.7853 22.9318 26.6857 22.8034 26.5961 22.6699C25.9988 21.7737 25.3317 20.9273 24.5651 20.1705C24.0673 19.6825 23.5297 19.2424 22.9323 18.8809C22.79 18.7948 22.6578 18.6939 22.525 18.5925C22.472 18.552 22.4188 18.5114 22.3649 18.4717C22.341 18.4531 22.3206 18.431 22.2996 18.4081C22.2856 18.3928 22.2713 18.3772 22.2554 18.3621C22.1645 18.2513 22.0653 18.1404 21.9655 18.0288C21.9559 18.0181 21.9463 18.0074 21.9367 17.9967C21.6841 17.7017 21.3764 17.4588 21.0308 17.2817C20.6127 17.0596 20.1745 16.958 19.7066 16.9839C19.619 16.9889 19.5314 17.0026 19.4439 17.0163C19.3921 17.0243 19.3403 17.0324 19.2885 17.0387C19.2458 17.0458 19.2022 17.0468 19.1591 17.0417C18.8206 16.9839 18.4821 16.979 18.1336 17.0039C18.0117 17.0126 17.8897 17.0053 17.7677 16.998C17.7503 16.9969 17.7329 16.9959 17.7154 16.9949C17.7047 16.9942 17.6941 16.9934 17.6836 16.9926C17.6066 16.987 17.5354 16.9818 17.4566 17.0029C17.4016 17.0199 17.3431 17.0213 17.2874 17.0068C17.25 16.9929 17.2098 16.9878 17.1701 16.9919C17.1304 16.9961 17.0922 17.0094 17.0584 17.0307C16.9887 17.0686 16.9489 17.0517 16.8991 17.0128C16.8045 16.9381 16.7075 16.8635 16.6104 16.7888C16.5133 16.7141 16.4162 16.6394 16.3216 16.5647C13.0167 13.9481 9.70515 11.3321 6.39236 8.71516C5.67336 8.14718 4.95429 7.57915 4.23523 7.01106C4.15653 6.94594 4.07779 6.87825 3.99907 6.81058C3.96825 6.78408 3.93742 6.75758 3.90661 6.73124L3.75724 6.34089C3.70746 6.20447 3.67762 6.06705 3.65771 5.91768C3.61788 5.49247 3.68763 5.08719 3.83697 4.69286C3.96639 4.34034 4.15549 4.02069 4.39443 3.72893C4.99179 2.98507 6.01724 2.23424 7.37124 2.15656C7.44685 2.14861 7.52334 2.15694 7.59547 2.18098C7.66759 2.20503 7.73372 2.24424 7.78943 2.29597C7.97675 2.45811 8.16407 2.61946 8.35093 2.78041C8.6805 3.06429 9.00861 3.34691 9.33264 3.63034C11.8614 5.81113 14.3902 7.99192 16.9091 10.1727L23.8383 16.1544C24.9251 17.0923 26.0096 18.0301 27.094 18.9678C28.3045 20.0145 29.5148 21.061 30.7279 22.1073C32.2603 23.4323 33.7955 24.7573 35.3305 26.0822C36.6876 27.2535 38.0446 28.4247 39.3994 29.5957C39.5739 29.7452 39.7483 29.8928 39.9227 30.0404C40.027 30.1287 40.1314 30.217 40.2357 30.3057C40.2887 30.3527 40.3419 30.4014 40.395 30.4502C40.4116 30.4654 40.4282 30.4807 40.4448 30.4959C40.4846 30.5247 40.4846 30.5566 40.4646 30.5935C40.4598 30.606 40.4526 30.6184 40.4454 30.6309C40.4377 30.644 40.43 30.6573 40.4249 30.6711C40.395 30.7438 40.3452 30.7697 40.2656 30.7647C40.1475 30.7612 40.0306 30.7894 39.9271 30.8464L39.8949 30.8633C39.7154 30.9577 39.5286 31.056 39.3596 31.164C39.2102 31.2557 39.0809 31.3781 38.9614 31.5156C38.9324 31.5547 38.9008 31.5933 38.8689 31.6323C38.8132 31.7002 38.7568 31.7691 38.7125 31.8432C38.5632 32.0692 38.4237 32.3002 38.2844 32.5342C38.2147 32.6537 38.1748 32.7872 38.1549 32.9286C38.1251 33.2044 38.2146 33.4474 38.354 33.6734C38.378 33.7031 38.4088 33.7267 38.4437 33.7421C38.7025 33.8567 38.9813 33.9174 39.27 33.8825C39.5089 33.8547 39.738 33.8069 39.957 33.7332C40.4249 33.5798 40.843 33.3588 41.2512 33.0949C42.0486 32.571 42.7634 31.931 43.3718 31.1959C43.8596 30.6094 44.2877 29.98 44.6063 29.284C44.7855 28.8847 44.9448 28.4784 45.0046 28.0372C45.0345 27.8042 45.0444 27.5702 45.0245 27.3382C45.0046 27.1918 44.9648 27.0494 44.8951 26.92C44.8555 26.8423 44.8052 26.7706 44.7457 26.7069C44.5964 26.5515 44.4072 26.447 44.1981 26.4002C44.1185 26.3832 44.0488 26.3783 43.9791 26.3932C43.7899 26.431 43.6108 26.4948 43.4416 26.5804C43.2126 26.7009 42.9836 26.8443 42.7844 27.0126C41.8242 27.7904 41.0887 28.8103 40.6539 29.9671C40.6443 29.9873 40.637 30.0074 40.6297 30.0274C40.622 30.0488 40.6143 30.07 40.604 30.0906C40.5941 30.1155 40.5742 30.1374 40.5344 30.1284C40.4548 30.1095 40.3751 30.0826 40.3154 30.0059C40.176 29.8197 39.9968 29.6883 39.8076 29.5588C39.509 29.3507 39.2103 29.1326 38.9415 28.8807C38.9089 28.8481 38.8733 28.8164 38.838 28.7849C38.8086 28.7587 38.7794 28.7327 38.7523 28.7064C37.7069 27.8052 36.6715 26.903 35.6361 26.0008L30.0807 21.1792C29.2046 20.4184 28.3309 19.6579 27.4573 18.8974C26.5837 18.1368 25.71 17.3763 24.8339 16.6155L20.0253 12.4401C17.9843 10.6646 15.9433 8.89112 13.8924 7.11562L8.87459 2.75405C8.86393 2.74463 8.85358 2.73498 8.84327 2.72537C8.79583 2.68114 8.74913 2.63761 8.67552 2.61961C8.64299 2.60985 8.62377 2.58348 8.60154 2.55298C8.59655 2.54614 8.59142 2.5391 8.58595 2.53199C8.53617 2.44635 8.50627 2.36369 8.55605 2.26411C8.57597 2.2193 8.57599 2.16354 8.57599 2.11275C8.60711 1.81307 8.71319 1.52607 8.88455 1.27828C9.3027 0.655907 9.88013 0.255594 10.6169 0.0962671C10.7762 0.0624101 10.9354 0.039511 11.0947 0.0195951C11.3536 -0.0122703 11.6025 -0.015258 11.8514 0.0893004C11.9178 0.120012 11.9812 0.157026 12.0406 0.199834C12.0772 0.231268 12.1137 0.264179 12.1507 0.297531C12.2146 0.355039 12.2799 0.413861 12.3492 0.468695C12.4768 0.569592 12.6045 0.670479 12.7321 0.771357C13.829 1.6382 14.925 2.50442 16.013 3.37143L24.6149 10.1896C27.3329 12.3386 30.0408 14.4875 32.7488 16.6374L44.0687 25.6075C44.1218 25.6501 44.175 25.6918 44.2282 25.7336C44.2946 25.7856 44.3609 25.8377 44.4272 25.8913C44.467 25.9232 44.5168 25.964 44.5267 26.0078C44.5453 26.094 44.5983 26.1293 44.6618 26.1715C44.6665 26.1747 44.6713 26.1778 44.6761 26.1811C45.0146 26.4251 45.2634 26.7338 45.3331 27.155C45.353 27.2613 45.3641 27.3676 45.3752 27.474ZM5.85803 36.2973H5.05155H4.34472C4.3289 36.2973 4.31257 36.2975 4.29596 36.2976C4.23935 36.2982 4.17947 36.2987 4.1256 36.2934C3.95635 36.2764 3.89661 36.132 3.99616 35.9936C4.02033 35.9588 4.05079 35.9288 4.08586 35.905C4.13546 35.8727 4.18891 35.847 4.24506 35.8283C4.29781 35.8107 4.35057 35.7927 4.40332 35.7747C4.57957 35.7146 4.75585 35.6545 4.93208 35.6063C5.34027 35.4967 5.74846 35.434 6.1666 35.43C6.44537 35.427 6.72409 35.3932 6.9929 35.3533C6.99701 35.3529 7.00112 35.3525 7.00521 35.3522C7.05065 35.348 7.09339 35.3441 7.10252 35.2966C7.10252 35.2752 7.08356 35.2493 7.06577 35.2251C7.06122 35.2189 7.05675 35.2128 7.05269 35.2069C7.01287 35.1442 7.02282 35.0815 7.05269 35.0197C7.09252 34.948 7.0626 34.8923 7.00286 34.8455C6.98295 34.8266 6.96309 34.8106 6.93323 34.7957C6.8934 34.7688 6.85359 34.7688 6.82373 34.8116C6.72417 34.9421 6.58477 34.9779 6.43543 34.9739H6.34586C6.2261 34.9749 6.10632 34.9758 5.98688 34.9766C5.73896 34.9784 5.4925 34.9802 5.25062 34.9829C5.18093 34.9839 5.11128 34.9869 5.05155 34.9899C4.99181 34.9928 4.93205 35.0118 4.90219 35.0695C4.83249 35.2139 4.69314 35.2727 4.55375 35.3045C4.39446 35.3384 4.23518 35.3713 4.07589 35.3981C3.58805 35.4818 3.09027 35.5336 2.59247 35.4778C2.5626 35.4748 2.53265 35.4778 2.50278 35.4818C2.4938 35.4836 2.4849 35.4935 2.47593 35.5034L2.47301 35.5067C2.47301 35.5176 2.47302 35.5395 2.48297 35.5445C2.5135 35.5651 2.54989 35.5828 2.58764 35.6012C2.59913 35.6068 2.61075 35.6124 2.62237 35.6182C2.64513 35.6323 2.66995 35.6458 2.6959 35.6599C2.72672 35.6767 2.75912 35.6943 2.79154 35.7148C2.81743 35.7319 2.83936 35.7543 2.85571 35.7807C2.87205 35.8071 2.88243 35.8366 2.88621 35.8674C2.89 35.8982 2.88705 35.9294 2.87759 35.959C2.86812 35.9885 2.85238 36.0156 2.8314 36.0384C2.81134 36.0649 2.78585 36.0867 2.75666 36.1025C2.72747 36.1183 2.69522 36.1277 2.66211 36.1301C2.61208 36.1351 2.56211 36.1359 2.51795 36.1366C2.50938 36.1367 2.50103 36.1369 2.49294 36.137C2.15308 36.1431 1.82083 36.1073 1.48955 36.0715C1.44235 36.0664 1.39517 36.0613 1.34798 36.0564C1.22788 36.0429 1.10776 36.0074 0.987649 35.9719C0.938507 35.9574 0.889365 35.9429 0.840224 35.9299C0.798264 35.9163 0.758144 35.8975 0.720758 35.8741C0.611243 35.8074 0.58141 35.7078 0.631189 35.5893C0.673328 35.4853 0.750893 35.3996 0.85019 35.3474C0.949749 35.2826 1.06919 35.2398 1.18866 35.2149C1.27328 35.1995 1.352 35.1871 1.42935 35.1749C1.45209 35.1713 1.47472 35.1677 1.49735 35.1641C1.74624 35.1253 1.99514 35.0586 2.24404 34.9829C2.32369 34.958 2.38334 34.9202 2.41321 34.8305C2.45304 34.7061 2.54264 34.6433 2.66211 34.6105C2.72107 34.5936 2.78713 34.5796 2.84828 34.5667C2.85941 34.5643 2.87038 34.562 2.88111 34.5597C2.9508 34.5457 3.00059 34.5119 3.02051 34.4432C3.08024 34.2998 3.18981 34.2261 3.31923 34.1683C3.38892 34.1395 3.45857 34.1086 3.5183 34.0757C3.55224 34.0614 3.58249 34.0395 3.60666 34.0118C3.63082 33.984 3.64826 33.951 3.6577 33.9154C3.68189 33.831 3.72248 33.7521 3.77716 33.6834C3.84686 33.5818 3.90663 33.4743 3.94646 33.3528C3.97633 33.2642 4.02611 33.1795 4.07589 33.1018C4.19536 32.9306 4.33467 32.7822 4.49396 32.6507C4.62339 32.5422 4.73298 32.4177 4.82258 32.2753C4.86557 32.2094 4.91885 32.1481 4.97132 32.0877C4.99176 32.0642 5.01208 32.0409 5.03162 32.0174C5.15109 31.879 5.27054 31.7416 5.39001 31.6062C5.43392 31.5604 5.47648 31.5143 5.51868 31.4685C5.59131 31.3897 5.66288 31.3121 5.73845 31.2397C5.92761 31.0585 6.10684 30.8653 6.26614 30.6522C6.34579 30.5466 6.41555 30.4341 6.46533 30.3156C6.55493 30.1145 6.63457 29.9093 6.70426 29.7002C6.79386 29.3895 6.94313 29.1037 7.1323 28.8428C7.27168 28.6546 7.40113 28.4585 7.53056 28.2603C7.63012 28.093 7.70974 27.9128 7.75952 27.7206C7.79486 27.5918 7.83276 27.4635 7.87061 27.3354C7.90741 27.2109 7.94417 27.0864 7.97852 26.9618C8.04821 26.7198 8.14783 26.4928 8.28721 26.2846C8.41664 26.0974 8.5461 25.9112 8.69544 25.7369C8.8846 25.5049 9.06383 25.2679 9.21317 25.002C9.21709 24.9946 9.22101 24.9866 9.22501 24.9785C9.24129 24.9455 9.25882 24.9099 9.2828 24.8955C9.39534 24.8279 9.48006 24.7223 9.52173 24.5978C9.54353 24.5668 9.57043 24.5399 9.60134 24.5181C9.64116 24.4852 9.68098 24.4564 9.7208 24.4285C10.1489 24.1397 10.617 23.9256 11.0849 23.7314C11.22 23.6783 11.3644 23.6505 11.5001 23.6243L11.5129 23.6219C11.701 23.5862 11.8904 23.5569 12.0805 23.5342C12.3692 23.5004 12.6379 23.4128 12.8569 23.2236C12.863 23.2181 12.8728 23.2127 12.8817 23.2076C12.8875 23.2044 12.8929 23.2014 12.8968 23.1987C13.1756 23.0354 13.4543 22.884 13.7829 22.8282C13.8318 22.8211 13.879 22.8053 13.9223 22.7814C13.9588 22.7625 13.9876 22.7316 14.004 22.6939C14.0203 22.6561 14.0231 22.6139 14.0119 22.5743C13.9919 22.4897 13.9322 22.4319 13.8525 22.4249C13.7993 22.4221 13.7459 22.4251 13.6933 22.4339C13.5539 22.4578 13.4145 22.4996 13.2751 22.5614C13.2037 22.5965 13.1288 22.6294 13.0524 22.663C13.001 22.6857 12.9489 22.7086 12.8968 22.7326C12.8371 22.7585 12.7872 22.7665 12.7275 22.7436C12.6976 22.7306 12.6877 22.7077 12.7076 22.6779C12.7522 22.6202 12.7985 22.5631 12.8451 22.5056C12.9129 22.422 12.9813 22.3376 13.0462 22.2497C13.1955 22.0445 13.3448 21.8354 13.4941 21.6223C13.6073 21.4509 13.7176 21.2783 13.828 21.1054C13.9217 20.9588 14.0155 20.812 14.1114 20.6654C14.1169 20.6557 14.1226 20.6461 14.1282 20.6364C14.1737 20.5588 14.2209 20.4783 14.2209 20.3836C14.2292 20.2945 14.2721 20.2123 14.3404 20.1545C14.3533 20.1422 14.3662 20.1298 14.3791 20.1173C14.456 20.0433 14.5339 19.9684 14.6191 19.9036C15.1369 19.5013 15.6845 19.1687 16.3117 18.9616C16.5108 18.8958 16.6899 18.7923 16.8194 18.6329C16.909 18.5254 16.9986 18.4199 17.1081 18.3272C17.2276 18.2207 17.3173 18.1042 17.3073 17.9319V17.912C17.3372 17.7367 17.4267 17.6571 17.6059 17.6531C17.7321 17.6489 17.8584 17.6522 17.9842 17.663C18.1582 17.6841 18.3269 17.7368 18.482 17.8184C18.5318 17.8463 18.5418 17.8761 18.5119 17.9229C18.502 17.9419 18.4895 17.96 18.4771 17.9782C18.4646 17.9964 18.4521 18.0146 18.4422 18.0335C18.3725 18.156 18.273 18.2496 18.1436 18.3053C18.0712 18.3336 18.0093 18.3739 17.9464 18.4149C17.9229 18.4303 17.8992 18.4457 17.8747 18.4607C17.8216 18.4998 17.7831 18.5555 17.7652 18.619C17.7453 18.7385 17.8548 18.8431 17.9643 18.8082C17.9969 18.7976 18.0294 18.781 18.062 18.7645C18.0693 18.7608 18.0765 18.7571 18.0838 18.7534C18.106 18.7417 18.1282 18.7301 18.1504 18.7185C18.2377 18.6727 18.3251 18.627 18.4124 18.5762C18.5916 18.4676 18.7209 18.3302 18.6911 18.0982C18.6862 18.0879 18.6838 18.0767 18.6838 18.0653C18.6838 18.054 18.6862 18.0428 18.6911 18.0325C18.701 17.8552 18.8007 17.7188 18.9002 17.5844C18.9297 17.5701 18.9582 17.5549 18.9865 17.5398C19.0923 17.4836 19.1947 17.429 19.3283 17.429C19.6416 17.4303 19.9545 17.4549 20.2642 17.5027C20.4832 17.5346 20.7023 17.5804 20.9014 17.6541C21.1711 17.755 21.4036 17.9356 21.5683 18.1719C21.5772 18.183 21.5859 18.1941 21.5946 18.2051C21.6741 18.3056 21.7494 18.4009 21.8571 18.4736C22.0463 18.6061 22.1856 18.7773 22.325 18.9576C22.3839 19.035 22.4571 19.1075 22.5264 19.1762C22.5391 19.1888 22.5516 19.2012 22.5639 19.2135C22.6522 19.2965 22.744 19.3781 22.8352 19.4592C22.8982 19.5152 22.9609 19.571 23.022 19.6268C23.1912 19.7821 23.3703 19.9414 23.5496 20.0908C24.2763 20.7002 24.9235 21.3853 25.4811 22.1521C25.5309 22.2186 25.5797 22.2853 25.6284 22.352C25.7257 22.4851 25.8229 22.6182 25.929 22.7496C26.1481 23.0324 26.3571 23.3231 26.5463 23.6259C26.6756 23.8377 26.8258 24.0362 26.9944 24.2184C27.2632 24.4972 27.532 24.7591 27.8306 24.9951C27.9231 25.0687 28.017 25.1424 28.1113 25.2164C28.2607 25.3337 28.4109 25.4516 28.5574 25.5706C28.7757 25.7521 28.9669 25.9641 29.125 26.2C29.1826 26.2822 29.2429 26.3625 29.3031 26.4426C29.3574 26.5148 29.4115 26.5869 29.4634 26.66C29.5134 26.7288 29.5644 26.7973 29.6155 26.8659C29.727 27.0157 29.8388 27.1659 29.9413 27.3203C30.0209 27.4437 30.1006 27.5622 30.2001 27.6688C30.2402 27.7101 30.2803 27.7514 30.3204 27.7926C30.6087 28.0895 30.8961 28.3855 31.1758 28.6845L31.2 28.7104C31.401 28.9258 31.6016 29.1408 31.7931 29.3686C31.9529 29.5654 32.1097 29.7661 32.2668 29.9673C32.3934 30.1296 32.5204 30.2921 32.6493 30.453C32.7224 30.5455 32.801 30.6355 32.8794 30.7252C32.9504 30.8065 33.0211 30.8875 33.0874 30.9698C33.1267 31.0155 33.1667 31.0605 33.2067 31.1055C33.3185 31.2315 33.43 31.3572 33.5254 31.4936C33.834 31.9358 34.1725 32.362 34.511 32.7782C34.6128 32.8929 34.7053 33.0103 34.7981 33.1281C34.8414 33.1831 34.8848 33.2382 34.9292 33.293C35.0188 33.4165 35.0884 33.5539 35.1283 33.7053C35.1681 33.9303 35.1283 34.1235 34.9292 34.2699C34.7599 34.3944 34.5807 34.486 34.3816 34.5408C34.3026 34.5622 34.2223 34.5833 34.1415 34.6046C34.0085 34.6396 33.8745 34.6748 33.7444 34.712C33.5453 34.7698 33.3362 34.8106 33.1172 34.8076C32.928 34.8056 32.7389 34.8276 32.5597 34.8823C32.3705 34.9391 32.1714 34.9749 31.9723 34.9809C31.8329 34.9859 31.7035 35.0148 31.5741 35.0695C31.4446 35.1213 31.3252 35.1621 31.1957 35.188C31.16 35.197 31.1263 35.2125 31.0962 35.2338C30.8672 35.44 30.6083 35.5684 30.2798 35.5445C30.1205 35.5326 30.001 35.5943 29.9014 35.7198C29.8516 35.7895 29.792 35.8582 29.7322 35.9209C29.5232 36.133 29.2842 36.2595 28.9656 36.2008C28.8529 36.1799 28.7401 36.1795 28.6273 36.1791C28.6107 36.179 28.594 36.179 28.5773 36.1788C28.3683 36.1778 28.1592 36.1848 27.9601 36.2276C27.9202 36.2356 27.8805 36.2406 27.8705 36.1988C27.8406 36.132 27.7809 36.1191 27.7211 36.1261C27.6863 36.1298 27.6509 36.1333 27.6151 36.1368C27.5077 36.1474 27.3975 36.1582 27.293 36.1768C27.1436 36.2017 27.0143 36.2087 26.8749 36.1589C26.8139 36.1381 26.7481 36.1357 26.6857 36.152C26.5065 36.1888 26.3272 36.2207 26.148 36.2505C26.0783 36.2615 26.0187 36.2675 25.949 36.2675C25.8693 36.2675 25.8195 36.2187 25.8096 36.1539C25.8052 36.1211 25.8129 36.0878 25.8312 36.0601C25.8495 36.0325 25.8772 36.0124 25.9091 36.0036C25.9506 35.9911 25.9921 35.983 26.0303 35.9755C26.047 35.9722 26.0632 35.9691 26.0784 35.9657C26.1071 35.9606 26.1359 35.956 26.1643 35.9515C26.2245 35.9419 26.2832 35.9325 26.3373 35.9189C26.387 35.907 26.4468 35.8901 26.4767 35.8582C26.626 35.7317 26.7952 35.6839 26.9844 35.6521C27.1517 35.6222 27.319 35.5934 27.4863 35.5646C27.5978 35.5454 27.7092 35.5262 27.8207 35.5067C27.8705 35.4987 27.9102 35.4728 27.9102 35.422C27.9115 35.3225 27.9377 35.2249 27.9864 35.1381C28.0351 35.0513 28.1048 34.9781 28.189 34.9251C28.189 34.9239 28.1907 34.9221 28.1928 34.9201C28.1956 34.9172 28.199 34.9137 28.199 34.9102C28.204 34.9077 28.2065 34.905 28.209 34.9022C28.2115 34.8995 28.214 34.8968 28.2189 34.8943C28.2388 34.8674 28.2289 34.8196 28.189 34.8036C28.0829 34.7579 27.97 34.745 27.856 34.7319C27.831 34.7291 27.8059 34.7262 27.7808 34.723C27.7662 34.7209 27.7515 34.719 27.7368 34.7171C27.6818 34.7099 27.6268 34.7027 27.5718 34.6861C27.5514 34.68 27.5311 34.6735 27.5106 34.667C27.441 34.6447 27.3699 34.6219 27.293 34.6135C27.2532 34.6095 27.2034 34.5836 27.1835 34.5517C27.1437 34.4591 27.074 34.4492 26.9944 34.4541C26.7554 34.4691 26.5264 34.48 26.2874 34.489C26.1288 34.4953 25.9661 34.4997 25.802 34.504C25.7086 34.5065 25.6148 34.509 25.5209 34.5119C25.4612 34.5129 25.4014 34.5189 25.3516 34.5248C25.3326 34.5267 25.3226 34.5377 25.3131 34.5483L25.3118 34.5497C25.3118 34.5577 25.3217 34.5786 25.3317 34.5826C25.4611 34.6384 25.5906 34.6941 25.72 34.7449C25.7744 34.7669 25.8312 34.7823 25.8893 34.7907C26.1282 34.8335 26.3771 34.8624 26.626 34.8295C26.7498 34.8127 26.8815 34.8148 27.014 34.8168C27.0307 34.8171 27.0473 34.8174 27.064 34.8176C27.1437 34.8196 27.1934 34.8992 27.1735 34.9769C27.1536 35.0387 27.1238 35.0825 27.064 35.1034C27.0499 35.1079 27.0357 35.1117 27.0218 35.1155C26.9771 35.1278 26.9351 35.1392 26.9047 35.1681C26.8215 35.2422 26.717 35.2879 26.6061 35.2986C26.5549 35.3069 26.5059 35.3179 26.4571 35.3289C26.4013 35.3414 26.3458 35.3538 26.2874 35.3623C26.2612 35.3661 26.2353 35.3701 26.2094 35.374C26.0586 35.3973 25.9129 35.4197 25.7599 35.3942C25.5807 35.3623 25.4014 35.3872 25.2222 35.4479C25.2003 35.4558 25.178 35.4638 25.1555 35.4718C25.0555 35.5075 24.9514 35.5448 24.8538 35.5814C24.7913 35.6047 24.7287 35.6287 24.6661 35.6526C24.5097 35.7126 24.3532 35.7726 24.1967 35.8223C24.0902 35.8568 23.9702 35.8723 23.859 35.8867C23.835 35.8898 23.8114 35.8929 23.7885 35.896C23.7021 35.9063 23.6127 35.913 23.5236 35.9198C23.4485 35.9255 23.3735 35.9311 23.3007 35.9389C23.2011 35.9498 23.1016 35.9428 23.0021 35.906C22.8826 35.8602 22.7631 35.8472 22.6337 35.8522C22.5939 35.8542 22.5441 35.8542 22.5043 35.8532C22.4346 35.8532 22.3748 35.8233 22.3549 35.7536C22.325 35.658 22.2652 35.6252 22.1756 35.6331C22.1456 35.6356 22.112 35.6347 22.0791 35.6339C22.0575 35.6333 22.0362 35.6328 22.0164 35.6331C22.005 35.6336 21.993 35.633 21.9809 35.6323C21.9407 35.6301 21.9 35.6279 21.877 35.667C21.871 35.6844 21.8831 35.7095 21.8959 35.7359C21.9042 35.7531 21.9128 35.7709 21.9168 35.7875C21.9218 35.805 21.9243 35.8231 21.9268 35.8413C21.9293 35.8592 21.9318 35.8772 21.9367 35.895C21.9566 36.0633 22.0263 36.143 22.1856 36.1709C22.1987 36.1728 22.2118 36.1744 22.2245 36.1759C22.2505 36.1789 22.275 36.1818 22.2951 36.1878C22.3648 36.2057 22.4047 36.2655 22.4047 36.3362C22.4061 36.3803 22.3901 36.4231 22.3604 36.4557C22.3306 36.4882 22.2894 36.5079 22.2454 36.5104C22.1787 36.5123 22.1119 36.5073 22.0462 36.4955C22.027 36.4924 22.0077 36.4893 21.9885 36.4862C21.7787 36.4521 21.5682 36.4179 21.3493 36.4188C21.2916 36.4169 21.2345 36.4061 21.18 36.387C21.1104 36.368 21.0507 36.369 20.981 36.388C20.9159 36.406 20.8508 36.4225 20.7857 36.439C20.6815 36.4655 20.5774 36.4919 20.4732 36.5244C20.3637 36.5602 20.2642 36.5473 20.1547 36.5015C20.0551 36.4567 19.9655 36.3969 19.8958 36.3033C19.866 36.2485 19.8161 36.2296 19.7465 36.2276C19.6469 36.2256 19.5473 36.2227 19.4477 36.2177C19.4403 36.2174 19.4328 36.2172 19.4254 36.217C19.3731 36.2153 19.3209 36.2137 19.2686 36.2067C19.1491 36.1918 19.0993 36.1171 19.1292 36.0056C19.1392 35.9448 19.169 35.894 19.2287 35.8731C19.2894 35.8496 19.3531 35.8349 19.418 35.8293C19.4401 35.8285 19.4625 35.8274 19.4851 35.8263C19.5947 35.821 19.7088 35.8155 19.8161 35.8353C19.8867 35.8534 19.9609 35.8522 20.031 35.8319C20.101 35.8116 20.1643 35.7729 20.2144 35.7198C20.261 35.6735 20.3174 35.6383 20.3794 35.6166C20.4414 35.5949 20.5074 35.5873 20.5728 35.5943C20.6325 35.5973 20.6922 35.5993 20.752 35.6003C20.8018 35.6013 20.8516 35.5853 20.8715 35.5286C20.9013 35.421 20.981 35.3902 21.0805 35.3683C21.3234 35.3161 21.55 35.2249 21.775 35.1343C21.7991 35.1247 21.8231 35.115 21.8471 35.1054C21.863 35.1011 21.877 35.0916 21.887 35.0785V35.0416C21.856 35.0287 21.8259 35.0153 21.7958 35.002C21.7195 34.9683 21.6441 34.9349 21.5584 34.9092C21.5186 34.8943 21.4489 34.9172 21.4389 34.9729C21.3792 35.1452 21.2498 35.1771 21.0905 35.192C20.9411 35.2079 20.7918 35.2249 20.6325 35.2508C20.4036 35.2916 20.1745 35.2627 19.9455 35.2318C19.9008 35.226 19.8572 35.2136 19.8161 35.195C19.7763 35.1761 19.7465 35.1392 19.7465 35.0924C19.7265 34.9948 19.7863 34.9152 19.8859 34.9092L19.8919 34.9089C19.9795 34.904 20.0669 34.8991 20.1447 34.9361C20.1854 34.9542 20.2296 34.963 20.2741 34.962C20.3443 34.9629 20.4221 34.9576 20.5008 34.9522C20.5115 34.9515 20.5223 34.9508 20.533 34.95C20.5927 34.9451 20.6524 34.9401 20.7022 34.9271C20.7619 34.9152 20.7919 34.8604 20.7919 34.7917C20.8018 34.7499 20.7719 34.719 20.7122 34.7031C20.6973 34.6991 20.6823 34.695 20.6674 34.691C20.5927 34.6706 20.518 34.6503 20.4433 34.6403C20.1347 34.6005 19.8361 34.5348 19.5374 34.4581C19.2188 34.3784 18.9101 34.3127 18.5915 34.2878C18.3128 34.2669 18.054 34.2052 17.8051 34.0887C17.6956 34.0369 17.576 34.006 17.4466 33.9742C17.3769 33.9532 17.3371 33.9771 17.3271 34.0548C17.3172 34.1922 17.2376 34.258 17.1181 34.3018C17.0128 34.3397 16.9075 34.3836 16.8021 34.4274C16.7581 34.4458 16.7141 34.4641 16.6701 34.482C16.6505 34.4902 16.6306 34.4975 16.6103 34.5039C16.5307 34.5238 16.461 34.4571 16.4709 34.3784C16.4764 34.3593 16.4849 34.3398 16.4931 34.321C16.4998 34.3057 16.5063 34.2908 16.5108 34.2769C16.521 34.261 16.5339 34.2467 16.5467 34.2324C16.5588 34.219 16.5708 34.2057 16.5804 34.1912C16.6003 34.1693 16.5805 34.1285 16.5507 34.1245C16.5408 34.1231 16.531 34.1216 16.5212 34.1201C16.4016 34.102 16.2827 34.084 16.1723 34.1604C16.1225 34.1942 16.0628 34.2042 16.003 34.2042C15.9001 34.2068 15.8014 34.2456 15.7242 34.3137C15.6844 34.3446 15.6744 34.3824 15.6943 34.4282C15.8536 34.6881 15.8039 34.9331 15.6446 35.1701C15.5949 35.2438 15.545 35.3095 15.4853 35.3772C15.4698 35.3978 15.4517 35.4174 15.4337 35.4368C15.4169 35.455 15.4002 35.473 15.3858 35.4917C15.3559 35.5276 15.336 35.5664 15.3559 35.6132C15.3591 35.6219 15.3634 35.6306 15.3676 35.6394C15.3766 35.6577 15.3858 35.6763 15.3858 35.6959C15.4057 35.8293 15.3359 35.9269 15.1965 35.9389C15.1568 35.9426 15.1167 35.9468 15.0762 35.951C14.9238 35.9668 14.7665 35.983 14.6092 35.9807C14.2109 35.9747 13.8227 36.0315 13.4345 36.0962C12.9864 36.1709 12.5483 36.1669 12.1003 36.152C12.0487 36.1501 11.9971 36.1469 11.9454 36.1437C11.8577 36.1382 11.77 36.1328 11.6822 36.134C11.0849 36.142 10.4775 36.152 9.88013 36.1689C9.7531 36.1724 9.62611 36.1885 9.49555 36.2049C9.44193 36.2117 9.3877 36.2186 9.33263 36.2247L9.32808 36.2252C9.23967 36.235 9.14193 36.2458 9.05384 36.2625C8.94931 36.282 8.8427 36.2864 8.7359 36.2908C8.60873 36.2961 8.48131 36.3013 8.35685 36.3322C8.2892 36.3498 8.21237 36.3421 8.13572 36.3344C8.09956 36.3308 8.06345 36.3272 8.02835 36.3262C7.98842 36.3253 7.94848 36.3242 7.90868 36.3231C7.77979 36.3195 7.65226 36.316 7.53056 36.3182C7.31153 36.3212 7.09246 36.3302 6.87343 36.3422C6.75591 36.3483 6.64226 36.358 6.53006 36.3675C6.46166 36.3733 6.3938 36.3791 6.32593 36.384L6.32306 36.3842C6.22465 36.3911 6.13588 36.3973 6.04714 36.3332C6.00403 36.2952 5.94603 36.2961 5.88599 36.2971C5.87671 36.2972 5.86737 36.2973 5.85803 36.2973ZM23.3664 30.2279C23.3205 30.2257 23.2753 30.2235 23.231 30.22C23.002 30.219 22.773 30.2499 22.554 30.3086C22.2852 30.3793 22.0064 30.4002 21.7376 30.4092C21.7243 30.4095 21.7113 30.4098 21.6985 30.41C21.6347 30.4113 21.5767 30.4124 21.5186 30.4231C21.429 30.4381 21.3493 30.4889 21.3194 30.5805C21.2896 30.6821 21.3294 30.7767 21.4389 30.8016C21.488 30.8118 21.5381 30.8171 21.5883 30.8175C21.9168 30.8205 22.2453 30.7956 22.5639 30.7119C22.9622 30.6084 23.3605 30.6074 23.7587 30.6741C23.9468 30.7057 24.1395 30.7255 24.3305 30.7451C24.4226 30.7546 24.5143 30.764 24.6049 30.7747C24.6281 30.7767 24.6513 30.7777 24.6746 30.7777C24.7841 30.7767 24.8539 30.7169 24.8738 30.6124C24.8837 30.5128 24.8339 30.4261 24.7244 30.3973C24.6746 30.3823 24.6148 30.3754 24.5551 30.3704C24.2564 30.3435 23.9577 30.3106 23.669 30.2559C23.5671 30.2375 23.4652 30.2326 23.3664 30.2279ZM16.0117 23.9091C16.0086 23.9191 16.0058 23.9284 16.003 23.9365C16.013 24.0053 16.0229 24.0511 16.0727 24.0789C16.1224 24.1018 16.1623 24.1018 16.2021 24.075C16.211 24.0682 16.2203 24.0613 16.2297 24.0544C16.2727 24.0225 16.3188 23.9884 16.3515 23.9475C16.4042 23.8781 16.4569 23.8033 16.5096 23.7285C16.5166 23.7185 16.5237 23.7085 16.5307 23.6986C16.6439 23.5325 16.7549 23.3657 16.8658 23.1991C16.9889 23.0142 17.1118 22.8294 17.2376 22.646C17.5064 22.2616 17.7553 21.8623 17.9942 21.461C17.9981 21.4528 18.002 21.4445 18.006 21.4362C18.0321 21.381 18.0591 21.3238 18.0937 21.2658C18.1137 21.218 18.1137 21.1682 18.0937 21.1165C18.0639 20.994 17.9245 20.9581 17.8448 21.0497C17.8137 21.0816 17.787 21.1174 17.7652 21.1563C17.4267 21.7458 17.0484 22.3084 16.6502 22.8651C16.4909 23.0981 16.3316 23.3371 16.1823 23.5761C16.1325 23.6557 16.0827 23.7404 16.0429 23.825C16.0286 23.8529 16.0194 23.8834 16.0117 23.9091ZM12.9167 35.5336V35.5156C12.9958 35.5104 13.0748 35.5055 13.1539 35.5007C13.3436 35.4891 13.5333 35.4775 13.7231 35.4599C13.8365 35.45 13.9449 35.4309 14.0518 35.4122C14.0951 35.4046 14.1381 35.3971 14.1811 35.3902C14.2005 35.387 14.2199 35.3839 14.2392 35.3807C14.3291 35.3662 14.4177 35.3518 14.4997 35.3354C14.5893 35.3205 14.6092 35.2826 14.5992 35.196C14.5893 35.1113 14.5694 35.0815 14.4798 35.0626C14.4001 35.0446 14.3105 35.0317 14.2209 35.0197L14.2179 35.0193C14.139 35.0064 14.0508 34.9921 13.982 34.9341C13.9322 34.8943 13.8725 34.8873 13.8128 34.8863C13.6535 34.8853 13.4941 34.9002 13.3448 34.9441C13.1656 34.9919 13.0063 35.0576 12.8868 35.194C12.8389 35.2501 12.7863 35.3016 12.7323 35.3544C12.7077 35.3785 12.6828 35.4028 12.6579 35.428C12.6479 35.4439 12.6379 35.4818 12.6479 35.5057C12.6479 35.5186 12.6878 35.5316 12.6977 35.5326C12.7549 35.5347 12.8069 35.5343 12.8575 35.5339C12.8774 35.5337 12.897 35.5336 12.9167 35.5336ZM14.9775 25.1196C15.0273 25.005 14.9577 24.8796 14.8084 24.8736C14.8039 24.8752 14.7989 24.877 14.7935 24.8789C14.7634 24.8895 14.7212 24.9043 14.6789 24.9313C14.4101 25.1096 14.1413 25.2898 13.8824 25.4741C13.8127 25.5238 13.7431 25.5836 13.6834 25.6473C13.6549 25.6815 13.6354 25.7284 13.6164 25.7741L13.6136 25.7808C13.5837 25.8833 13.6634 25.9769 13.7729 25.957C13.8365 25.9452 13.8972 25.9216 13.9521 25.8873C14.0194 25.8435 14.0873 25.8003 14.1552 25.7571C14.3884 25.6087 14.6223 25.4599 14.8381 25.2849C14.8979 25.239 14.9576 25.1922 14.9775 25.1196ZM6.47293 34.6035C6.48332 34.6042 6.49419 34.605 6.50507 34.6065C6.5102 34.6042 6.51666 34.6018 6.52376 34.5992C6.54422 34.5917 6.57001 34.5822 6.58479 34.5667C6.60471 34.5487 6.55486 34.494 6.51504 34.479L6.4454 34.4661C6.40557 34.4611 6.36567 34.486 6.36567 34.5189C6.36567 34.5617 6.3956 34.5846 6.42547 34.5965C6.43813 34.601 6.45479 34.6022 6.47293 34.6035ZM11.1944 19.2065L7.93878 19.2782C7.89826 19.2794 7.84619 19.2816 7.7866 19.2842C7.69977 19.2878 7.59697 19.2922 7.49069 19.2952L3.89663 19.3828L2.13442 19.4256C2.03198 19.4277 1.92955 19.4293 1.82711 19.4309C1.69062 19.433 1.55413 19.4351 1.41762 19.4385C1.2882 19.4425 1.17872 19.4196 1.08912 19.334C1.05949 19.3088 1.02435 19.2919 0.991899 19.2763C0.980732 19.2709 0.969885 19.2657 0.95969 19.2603C0.909911 19.2364 0.880077 19.1996 0.870121 19.1458C0.860137 19.0929 0.849032 19.04 0.837926 18.9872C0.815807 18.882 0.793687 18.7769 0.78043 18.6708C0.750563 18.2844 0.730724 17.8981 0.730724 17.5097C0.735692 17.4441 0.738186 17.3783 0.740675 17.3125C0.743174 17.2466 0.745668 17.1807 0.750655 17.1154L0.75074 17.1138C0.760668 16.9311 0.770541 16.7494 0.790396 16.5677C0.800352 16.2978 0.810356 16.027 0.840224 15.7581C0.860231 15.5533 0.88917 15.3494 0.918066 15.1458C0.932309 15.0455 0.946542 14.9452 0.95969 14.8449L0.960518 14.8392C0.990112 14.6319 1.01997 14.4228 1.07916 14.2216C1.14885 14.0314 1.2385 13.8551 1.37788 13.7157C1.42208 13.675 1.47018 13.6424 1.51785 13.6101C1.57758 13.5696 1.63662 13.5296 1.68645 13.4747C1.72119 13.4479 1.7624 13.4307 1.80592 13.4249C1.87804 13.4098 1.95128 13.4008 2.02492 13.3981C2.47321 13.388 2.92502 13.379 3.37618 13.3701C3.68649 13.3639 3.9965 13.3577 4.30486 13.3513L6.17657 13.3134L8.82487 13.2616C8.94593 13.2594 9.06699 13.258 9.18895 13.2565C9.33779 13.2547 9.48798 13.253 9.6412 13.2497C9.94397 13.2433 10.2467 13.2344 10.5495 13.2255C10.6251 13.2232 10.7006 13.221 10.7762 13.2188C10.8658 13.2168 10.9454 13.2218 11.0251 13.2885C11.0636 13.3232 11.1127 13.3439 11.1645 13.3473C11.2518 13.3583 11.3327 13.3991 11.3934 13.4628C11.5428 13.6122 11.712 13.7346 11.9012 13.8442C11.9586 13.8822 12.0211 13.9207 12.0851 13.9602C12.11 13.9755 12.135 13.9909 12.1601 14.0065C12.638 14.3082 13.1059 14.6199 13.534 14.9854C13.9117 15.3064 14.2993 15.6186 14.6869 15.9307L14.6889 15.9324C15.127 16.2908 15.5649 16.6603 15.9731 17.0626C16.1933 17.2856 16.422 17.5069 16.6513 17.7289C16.6708 17.7478 16.6904 17.7666 16.7099 17.7855C16.7121 17.7878 16.7143 17.7901 16.7165 17.7924C16.7341 17.8107 16.7508 17.8281 16.7597 17.8503C16.7696 17.8642 16.7696 17.8931 16.7597 17.906C16.7469 17.9188 16.7301 17.9295 16.7144 17.9395C16.7055 17.9451 16.6971 17.9504 16.6899 17.9558C16.1025 18.3103 15.5251 18.6638 14.9476 19.0203C14.8366 19.0883 14.7094 19.1251 14.5793 19.1269C13.8876 19.1414 13.1997 19.1582 12.5133 19.175C12.0732 19.1857 11.6338 19.1964 11.1944 19.2065ZM35.0686 12.7329L36.4027 12.71V12.697H36.5819L38.9514 12.6492L40.9227 12.6094C41.253 12.6028 41.582 12.5966 41.9107 12.5904C42.4734 12.5798 43.0351 12.5692 43.6007 12.5566C43.9492 12.5486 44.2479 12.6542 44.5167 12.8583C44.6743 12.9779 44.8178 13.1149 44.9448 13.2666C45.1249 13.4793 45.2819 13.7106 45.4128 13.9567C45.741 14.5627 45.9505 15.2258 46.03 15.9104C46.0898 16.3257 46.0997 16.7409 46.0201 17.1552C45.9803 17.4241 45.9006 17.682 45.7513 17.916L45.7449 17.9262C45.6973 18.0033 45.6504 18.0792 45.6218 18.1669C45.572 18.3033 45.4625 18.374 45.3231 18.384C45.2733 18.388 45.2237 18.388 45.164 18.388H45.1639C45.1042 18.3888 45.0445 18.3895 44.9848 18.3902C44.8354 18.3919 44.686 18.3937 44.5367 18.3979C44.084 18.4091 43.6347 18.4213 43.1849 18.4336C42.8729 18.442 42.5607 18.4505 42.2468 18.4587L40.3154 18.5045C40.1549 18.5079 39.9927 18.5103 39.8294 18.5128C39.6077 18.5162 39.3841 18.5197 39.1605 18.5254C38.9886 18.5297 38.8167 18.5339 38.6449 18.5381C37.9008 18.5562 37.1567 18.5744 36.4126 18.6011C36.0741 18.613 35.7854 18.5174 35.5166 18.3183C35.2478 18.1151 34.979 17.908 34.7202 17.6939C34.5379 17.5411 34.3556 17.3836 34.1733 17.226C34.0668 17.1341 33.9604 17.0421 33.854 16.9511C33.6947 16.8077 33.5255 16.6643 33.3562 16.5288C32.9679 16.2271 32.5796 15.9284 32.1913 15.6306C31.8329 15.3588 31.4844 15.0849 31.1459 14.7862C30.9966 14.6438 30.8373 14.4984 30.678 14.362C30.23 13.9836 29.782 13.6112 29.324 13.2367C29.312 13.2255 29.2991 13.2145 29.2861 13.2034C29.2346 13.1595 29.1806 13.1135 29.1647 13.0396C29.157 13.0158 29.1317 12.9974 29.1069 12.9793C29.0994 12.9738 29.092 12.9684 29.0851 12.9629C29.0785 12.9578 29.0719 12.9529 29.0653 12.948C29.0425 12.931 29.021 12.915 29.0055 12.8972C28.9955 12.8932 28.9955 12.8822 28.9955 12.8763C28.9955 12.8713 29.0054 12.8663 29.0153 12.8663C29.0215 12.8653 29.0273 12.8642 29.0329 12.8632C29.0539 12.8595 29.0714 12.8563 29.0951 12.8563L30.3892 12.8235C31.949 12.7919 33.5088 12.7617 35.0686 12.7329ZM27.9601 11.1625L34.3418 11.1426V11.1456C34.672 11.143 35.0021 11.1403 35.3322 11.1376C36.1569 11.1308 36.9817 11.1239 37.8065 11.1197C38.7088 11.115 39.611 11.113 40.5133 11.1111C40.965 11.1101 41.4167 11.1091 41.8684 11.1077C42.2062 11.1092 42.5306 11.2404 42.7744 11.4742C42.9238 11.5897 43.0433 11.7251 43.1428 11.8785C43.1895 11.9399 43.2211 12.0116 43.2349 12.0875C43.2488 12.1635 43.2444 12.2416 43.2224 12.3156C43.2125 12.3644 43.1826 12.3933 43.1328 12.3983C43.0532 12.4072 42.9736 12.4132 42.8939 12.4142C42.3563 12.4252 41.8087 12.4351 41.2711 12.4421C40.1768 12.458 39.0824 12.4719 37.9881 12.4859L37.9856 12.4859L34.4911 12.5307L31.0962 12.5745C30.8306 12.5779 30.565 12.581 30.2994 12.5841C29.7685 12.5903 29.2376 12.5964 28.7068 12.6044C28.5773 12.6064 28.4778 12.5805 28.3683 12.5128C28.1044 12.3361 27.8298 12.1621 27.5562 11.9888C27.4582 11.9268 27.3604 11.8648 27.2632 11.8028C27.1039 11.7012 26.9446 11.5937 26.845 11.4304C26.8132 11.3867 26.7751 11.3493 26.7357 11.3107C26.7257 11.3009 26.7157 11.2911 26.7056 11.281L26.6757 11.2272C26.6757 11.2183 26.6757 11.1944 26.6857 11.1934L26.6857 11.1934C26.7255 11.1854 26.7554 11.1794 26.7952 11.1794C26.8505 11.1784 26.9059 11.1774 26.9613 11.1764C27.2942 11.1703 27.6271 11.1642 27.9601 11.1625ZM7.12082 12.8886C6.91211 12.8927 6.69768 12.8969 6.47529 12.9012C6.40191 12.9012 6.31913 12.9008 6.22984 12.9004C6.02841 12.8995 5.79385 12.8984 5.55931 12.9012C5.08782 12.907 4.61395 12.9135 4.13886 12.9201C3.64085 12.927 3.14151 12.9339 2.64218 12.94C2.60268 12.9413 2.55886 12.9409 2.51355 12.9404C2.49033 12.9402 2.46672 12.94 2.44311 12.94C2.40329 12.938 2.36348 12.9201 2.33361 12.8783C2.25396 12.7398 2.17427 12.5984 2.16431 12.4331C2.15934 12.3784 2.15684 12.3236 2.15435 12.2688C2.15185 12.2141 2.14936 12.1593 2.14438 12.1045C2.14438 11.8864 2.1942 11.6853 2.30371 11.4961L2.30713 11.4902C2.4232 11.2889 2.42547 11.285 2.66211 11.283C2.97598 11.2817 3.28985 11.2803 3.60407 11.2788C4.24669 11.2759 4.89079 11.273 5.53938 11.271C5.91569 11.2692 6.292 11.2685 6.66831 11.2678C6.91923 11.2673 7.17014 11.2669 7.42106 11.2661C7.48102 11.2656 7.53884 11.2639 7.59651 11.2621C7.66332 11.2601 7.72992 11.2581 7.79938 11.2581C8.01126 11.2556 8.2257 11.2538 8.44141 11.2521C8.6514 11.2503 8.86259 11.2486 9.07377 11.2462C9.10873 11.2443 9.1436 11.2499 9.17622 11.2626C9.20884 11.2753 9.2384 11.2948 9.26287 11.3198C9.34104 11.3877 9.42069 11.4537 9.5018 11.518C9.83782 11.7786 10.154 12.0638 10.4477 12.3714C10.5299 12.4642 10.6063 12.562 10.6767 12.6642C10.7663 12.8036 10.7464 12.8384 10.5871 12.8434C10.5274 12.8464 10.4676 12.8464 10.4079 12.8464H10.4078C10.2106 12.8481 10.0122 12.8494 9.81341 12.8507C9.42031 12.8534 9.02578 12.856 8.63564 12.8613C8.14293 12.8685 7.65025 12.8782 7.12082 12.8886ZM40.9295 30.4831C40.9276 30.4612 40.9255 30.4381 40.9227 30.4132C40.9304 30.3756 40.9367 30.3351 40.9431 30.293C40.9533 30.2269 40.9641 30.1569 40.9823 30.0876C41.0421 29.8745 41.1317 29.6743 41.2312 29.4781C41.5498 28.8568 41.9681 28.3021 42.4459 27.7913C42.7446 27.4627 43.0732 27.1619 43.4415 26.905C43.6008 26.7985 43.7601 26.7268 43.9393 26.673C44.017 26.6511 44.0976 26.6411 44.1783 26.6431C44.3873 26.6451 44.5167 26.7537 44.5764 26.9498C44.6128 27.062 44.6197 27.1817 44.5963 27.2974C44.5565 27.5682 44.4569 27.8182 44.3375 28.0611C44.0089 28.7154 43.5709 29.2939 43.083 29.8267C42.8142 30.1174 42.5156 30.3833 42.197 30.6143C42.0378 30.7299 41.8685 30.8304 41.6793 30.9021C41.5624 30.9486 41.4361 30.9664 41.311 30.9539C41.1218 30.935 40.9924 30.8185 40.9526 30.6293C40.9384 30.5839 40.9343 30.5374 40.9295 30.4831Z" fill="black"/>
</svg>
