<svg width="65" height="31" viewBox="0 0 65 31" fill="none" xmlns="http://www.w3.org/2000/svg">
<path d="M36.7563 21.757C36.6254 21.6818 36.4936 21.6076 36.3637 21.5303C35.8941 21.2387 35.3925 21.0019 34.8688 20.8246C34.6325 20.7439 34.4007 20.6507 34.1744 20.5454C33.9868 20.4619 33.788 20.4104 33.5922 20.3496C32.8195 20.1147 32.0066 20.0374 31.2215 19.8571C31.1865 19.8489 31.1514 19.8396 31.1154 19.8386C31.0659 19.8365 31.0196 19.8633 31.0051 19.9128C30.9731 20.0235 30.9476 20.136 30.9289 20.2497C30.9237 20.2775 30.9516 20.3218 30.9763 20.3383C31.0721 20.4032 31.1751 20.4516 31.2936 20.4722C31.6831 20.5423 32.0705 20.6175 32.4579 20.6927C32.6258 20.7247 32.7927 20.7587 32.9596 20.7957C33.0204 20.8091 33.0822 20.8256 33.1368 20.8534C33.2656 20.9194 33.4016 20.9544 33.549 20.9657C33.6365 20.973 33.7272 20.9967 33.8065 21.0337C34.2568 21.2501 34.7328 21.4047 35.1985 21.5839C35.3067 21.6251 35.4107 21.6767 35.5107 21.7343C35.966 21.996 36.4194 22.2619 36.8737 22.5277C37.0427 22.6256 37.2107 22.7265 37.3786 22.8254C37.734 23.0336 38.1173 23.1788 38.516 23.286C38.991 23.4137 39.4639 23.5477 39.9399 23.6754C40.2171 23.7496 40.4994 23.8042 40.792 23.8053C41.2216 23.8073 41.6368 23.8794 42.0541 23.9516C42.3632 24.0051 42.6774 24.0443 42.9896 24.0886L44.2188 24.2637C44.3259 24.2792 44.4331 24.2936 44.5402 24.305C44.7772 24.3317 45.0121 24.2977 45.246 24.2133C45.3497 24.173 45.4575 24.144 45.5674 24.1267C45.7498 24.103 45.8848 24.0196 45.9538 23.8331C45.9806 23.7589 46.029 23.7239 46.1001 23.7177C46.4113 23.693 46.7214 23.6682 47.0222 23.7455C47.117 23.7702 47.2149 23.7867 47.3117 23.8053C47.4577 23.837 47.6103 23.8139 47.7403 23.7403C48.0546 23.5621 48.3791 23.5405 48.7068 23.5765C49.3456 23.6487 49.9699 23.7723 50.586 23.932C51.0888 24.0618 51.5854 24.2163 52.0944 24.3214C52.692 24.4451 53.2762 24.6151 53.8665 24.7645C54.4013 24.9005 54.9453 24.952 55.5068 24.9046C55.8993 24.8706 56.2919 24.8469 56.6844 24.8016C57.2325 24.7356 57.7796 24.7212 58.3267 24.6965C59.0304 24.6656 59.7331 24.6099 60.4347 24.4822C60.4883 24.4719 60.546 24.4616 60.5975 24.4688C60.6253 24.4729 60.649 24.512 60.6665 24.5409C60.6707 24.5502 60.6439 24.5934 60.6253 24.5996C60.3121 24.7068 60.0277 24.884 59.7434 25.0602C59.4023 25.2714 59.0603 25.4816 58.7203 25.6948C58.6317 25.7505 58.541 25.8071 58.4627 25.8772C58.397 25.9339 58.3416 26.0015 58.2989 26.0771C58.201 26.2594 58.3082 26.4315 58.5039 26.4119C58.5681 26.4037 58.6307 26.3856 58.6894 26.3583C58.7584 26.3274 58.8233 26.2852 58.8882 26.245C59.3189 25.9792 59.7516 25.7165 60.1802 25.4455C60.5171 25.2333 60.8736 25.0952 61.2497 25.022C61.3218 25.0076 61.3939 24.9891 61.4671 24.9788C62.2079 24.8696 62.8394 24.4945 63.4061 23.9722C63.5345 23.8442 63.6882 23.7445 63.8574 23.6796C63.9682 23.6459 64.0655 23.5781 64.1356 23.4859C64.1976 23.3996 64.2914 23.3414 64.3962 23.3241C64.5178 23.3035 64.6157 23.354 64.6507 23.4714C64.6718 23.5449 64.6778 23.6218 64.6682 23.6976C64.6586 23.7734 64.6338 23.8465 64.5951 23.9124C64.4447 24.1741 64.3087 24.4451 64.1232 24.6872C63.9759 24.8809 63.843 25.0859 63.6977 25.2817C63.4288 25.6474 63.1001 25.9452 62.7374 26.2028C62.3927 26.4436 62.0312 26.6595 61.6556 26.8488C61.4197 26.9693 61.1848 27.095 60.9509 27.2197C60.8239 27.2893 60.7085 27.3783 60.6088 27.4834C60.4863 27.6072 60.3602 27.7275 60.2307 27.844C60.1052 27.963 59.9624 28.0624 59.8073 28.1387C59.731 28.1748 59.661 28.2273 59.5909 28.2778C59.4188 28.4004 59.253 28.5333 59.0778 28.6497C58.8048 28.8311 58.5163 28.9691 58.2041 29.0413C58.0702 29.0722 57.9331 29.1175 57.8064 29.1783C57.6507 29.2613 57.4759 29.3018 57.2995 29.2957C57.1984 29.2888 57.0969 29.3018 57.0007 29.3339C56.3506 29.5667 55.685 29.6574 55.0184 29.7305C54.6527 29.7717 54.2869 29.7841 53.9232 29.816C53.6131 29.8428 53.3019 29.8758 52.9918 29.9098C52.59 29.9541 52.1892 30.0025 51.7874 30.0499C51.7328 30.0561 51.6802 30.0602 51.6339 30.1056C51.47 30.2622 51.2702 30.3044 51.0672 30.3343C50.769 30.3763 50.4674 30.3894 50.1667 30.3734C50.0026 30.3604 49.8374 30.3712 49.6763 30.4054C49.5973 30.4278 49.5147 30.434 49.4332 30.4237C49.3518 30.4135 49.2733 30.3869 49.2024 30.3456C49.1405 30.3075 49.0859 30.3127 49.0231 30.3353C48.953 30.3611 48.8819 30.3848 48.8108 30.4116C48.545 30.5094 48.2751 30.5713 47.999 30.5919C47.8444 30.6042 47.6899 30.63 47.5343 30.6506C47.2767 30.6836 47.0284 30.6691 46.776 30.6238C45.9615 30.4776 45.1451 30.3423 44.327 30.2179C43.4007 30.0788 42.4693 29.9654 41.5451 29.8222C41.0755 29.7443 40.6091 29.6481 40.147 29.5337C39.5288 29.3874 38.9137 29.2247 38.3162 29.0124C37.9633 28.887 37.6126 28.7555 37.2642 28.6178C37.1319 28.5642 37.0053 28.4976 36.8861 28.419C36.5873 28.2253 36.2885 28.0305 36 27.8214C35.7682 27.6545 35.5828 27.4319 35.4076 27.2032C35.3131 27.0822 35.222 26.9585 35.1346 26.8323C34.8028 26.348 34.368 25.9833 33.8828 25.6763C33.5809 25.4847 33.2512 25.3487 32.9246 25.2075C32.7185 25.1199 32.5084 25.0457 32.3013 24.9643C32.1949 24.915 32.0785 24.891 31.9613 24.8943C31.9083 24.8952 31.857 24.9126 31.8144 24.944C31.7717 24.9753 31.7399 25.0192 31.7233 25.0694C31.7045 25.1129 31.7001 25.1612 31.7106 25.2073C31.7212 25.2535 31.7462 25.295 31.782 25.326C31.8541 25.3899 31.9365 25.4476 32.0251 25.4867C32.2446 25.5846 32.4682 25.6722 32.6928 25.7608C33.244 25.9782 33.755 26.2615 34.1991 26.6571C34.2856 26.7344 34.3639 26.822 34.4412 26.9085C34.4711 26.9405 34.4927 26.9807 34.5164 27.0177C34.4639 27.0651 34.4134 27.0404 34.3619 27.025C34.0631 26.9291 33.7437 26.9116 33.4336 26.8642C32.9977 26.7962 32.5619 26.7323 32.1251 26.6654C31.8869 26.6237 31.6533 26.5592 31.4276 26.4727C30.8485 26.2667 30.2674 26.0606 29.6905 25.8463C29.3484 25.7196 29.0105 25.5805 28.6736 25.4383C28.2388 25.2549 27.8071 25.0643 27.3754 24.8747C27.1786 24.7892 26.9839 24.7016 26.7902 24.611C26.4759 24.4626 26.1637 24.3101 25.8495 24.1617C25.5682 24.0299 25.2828 23.9021 25.0005 23.7713C24.7254 23.6445 24.4503 23.5188 24.1783 23.387C23.929 23.2674 23.6848 23.1397 23.4365 23.0181C22.9873 22.8017 22.5402 22.5802 22.0868 22.3731C21.758 22.2139 21.4515 22.0123 21.175 21.7735C20.5072 21.2223 19.8637 20.6424 19.2463 20.0354C19.0742 19.8664 18.8877 19.7139 18.7085 19.5532C18.6971 19.5429 18.692 19.5243 18.6837 19.5099L18.759 19.48C18.7672 19.477 18.7775 19.48 18.7857 19.4821C19.0948 19.5398 19.4019 19.6109 19.6924 19.7263C20.1643 19.9138 20.6238 20.1312 21.0607 20.3898C21.513 20.6577 21.9756 20.907 22.4619 21.1079C22.9667 21.315 23.4963 21.4479 24.0393 21.5355C24.1208 21.5449 24.2033 21.5407 24.2834 21.5231C24.3391 21.5108 24.391 21.4854 24.4349 21.449C24.5534 21.3542 24.5688 21.2017 24.472 21.1007C24.4359 21.0615 24.3911 21.0315 24.3411 21.0131C24.2484 20.9822 24.1516 20.9637 24.0547 20.9431C23.6591 20.8627 23.2645 20.7751 22.8905 20.6288C22.5144 20.4888 22.1493 20.3207 21.7983 20.126C21.5665 19.9942 21.3388 19.853 21.1029 19.7283C20.6393 19.4831 20.1694 19.2493 19.6646 19.0896C19.2278 18.9485 18.7744 18.8653 18.3159 18.8423C18.0717 18.831 17.8265 18.8237 17.5823 18.8134C17.4917 18.8103 17.4 18.8093 17.3103 18.798C17.2135 18.7856 17.1167 18.7712 17.0445 18.6888C16.9807 18.6167 16.89 18.5971 16.7952 18.6321C16.6994 18.6671 16.6128 18.6445 16.5283 18.6197C16.0745 18.4867 15.6281 18.3295 15.191 18.1489C14.7964 17.984 14.4008 17.8223 14.0185 17.6307C13.8985 17.5726 13.7813 17.509 13.6672 17.44C13.4096 17.2793 13.1572 17.1124 12.9048 16.9476C12.6312 16.7774 12.3841 16.5681 12.1712 16.3263C12.0733 16.2109 11.9909 16.079 11.9033 15.9543C11.8776 15.9173 11.8611 15.8719 11.8343 15.8369C11.7972 15.7874 11.7261 15.7473 11.721 15.6937C11.7158 15.6143 11.7519 15.5268 11.7776 15.4443C11.8013 15.3712 11.8353 15.3001 11.8652 15.228C11.9641 14.9931 12.0342 14.752 12.0507 14.5006C12.0579 14.4048 12.0682 14.309 12.0692 14.2142C12.0774 13.7928 12.1444 13.3765 12.232 12.9582C12.3144 12.5585 12.4319 12.1752 12.6019 11.7991C12.9336 11.0645 13.4467 10.5731 14.205 10.3928C14.5914 10.3 14.9695 10.2794 15.3301 10.4299C15.396 10.4577 15.4682 10.468 15.5351 10.4927C15.7742 10.5823 16.0235 10.5978 16.2831 10.5669C16.7138 10.5154 17.1414 10.502 17.5638 10.5597C18.0099 10.6215 18.455 10.6905 18.8795 10.8337C19.0577 10.8925 19.2298 10.9677 19.406 11.0295C19.4891 11.0624 19.5766 11.0833 19.6656 11.0913C19.8346 11.0985 19.9417 10.9265 19.8645 10.773C19.7794 10.6132 19.6408 10.4884 19.473 10.4206C19.153 10.2814 18.8185 10.1784 18.4756 10.1136C18.3087 10.0796 18.1397 10.0517 17.9718 10.0208C17.4342 9.92676 16.8857 9.91253 16.3439 9.97859C16.1111 10.0064 15.8885 9.9992 15.6773 9.91265C15.6443 9.89823 15.6052 9.89823 15.5743 9.88483C15.056 9.66538 14.5162 9.71483 13.966 9.8632C13.9031 9.87968 13.8413 9.90338 13.7774 9.91677C13.7548 9.92089 13.7177 9.91368 13.7331 9.8735C13.7929 9.71895 13.8568 9.56544 13.9825 9.45005C14.067 9.37071 14.1483 9.2852 14.24 9.2172C14.442 9.0678 14.6357 8.90811 14.8129 8.72883C14.8793 8.66016 14.9647 8.61282 15.0581 8.59283C15.2951 8.54029 15.5135 8.43623 15.733 8.31465C15.9297 8.20441 16.1502 8.14362 16.3635 8.07768C16.4397 8.05295 16.5273 8.06635 16.6067 8.07768C16.7313 8.09417 16.856 8.11683 16.9776 8.14774C17.4196 8.26108 17.8636 8.37132 18.3005 8.49805C18.5838 8.58047 18.861 8.68041 19.135 8.78653C19.8748 9.07398 20.6166 9.35629 21.3759 9.59326C21.6397 9.67568 21.9086 9.7478 22.1744 9.82508C22.5433 9.93429 22.8977 10.0806 23.2408 10.2527C23.6859 10.4773 24.1268 10.707 24.5534 10.9677C25.0098 11.2459 25.3725 11.623 25.6661 12.0763C25.8196 12.3112 25.969 12.5502 26.1297 12.7769C26.445 13.222 26.8231 13.6032 27.2198 13.9638C27.3115 14.0462 27.4217 14.1101 27.5279 14.175C27.6051 14.2224 27.6927 14.2389 27.7885 14.2203C27.9462 14.1905 28.0482 14.0091 27.9719 13.87C27.9239 13.7838 27.8582 13.7087 27.7793 13.6496C27.5351 13.4672 27.3249 13.2477 27.1116 13.0314C26.8544 12.7667 26.6232 12.478 26.4213 12.169C26.397 12.1309 26.3756 12.0909 26.3574 12.0495C26.3533 12.0423 26.3708 12.0124 26.378 12.0124C26.4502 12.0124 26.5223 12.0124 26.5944 12.0186C27.0951 12.0691 27.5885 12.1752 28.0657 12.3349C28.3109 12.4153 28.554 12.5059 28.7766 12.6388C29.0826 12.8212 29.3948 12.9943 29.6936 13.187C29.9336 13.3394 30.1562 13.5208 30.3921 13.6784C30.7836 13.9422 31.1648 14.2203 31.58 14.448C31.6027 14.4604 31.6254 14.4779 31.6511 14.4841C31.8974 14.548 32.1004 14.6974 32.3208 14.8117C32.4785 14.8942 32.6402 14.9683 32.7989 15.0497C33.0997 15.2053 33.3913 15.3733 33.6674 15.5721C34.1156 15.8946 34.5442 16.2428 34.9708 16.5952C35.3623 16.9187 35.7517 17.2463 36.1587 17.5493C36.509 17.8099 36.8758 18.0459 37.2436 18.2808C38.0267 18.7784 38.7633 19.3358 39.4011 20.023C39.774 20.4248 40.1862 20.7803 40.6045 21.1285C40.7817 21.2759 40.9743 21.4067 41.165 21.5365C41.4019 21.6962 41.6389 21.8559 41.8851 21.9981C42.1551 22.1526 42.4312 22.2969 42.7135 22.4288C43.4399 22.7708 44.1147 23.2046 44.8225 23.5827C44.8534 23.5992 44.8843 23.6177 44.9132 23.6383C44.9266 23.6487 44.9348 23.6662 44.9462 23.6796C44.9225 23.694 44.8977 23.7187 44.874 23.7187C44.7483 23.7197 44.6185 23.727 44.4949 23.7105C44.1734 23.6672 43.8551 23.6126 43.5347 23.5621C43.4553 23.5497 43.376 23.5291 43.2946 23.525C42.833 23.4972 42.3828 23.4127 41.9315 23.3303C41.6034 23.2668 41.2704 23.2323 40.9362 23.2273C40.6833 23.2257 40.4315 23.1918 40.1872 23.1263C39.6082 22.9717 39.0312 22.811 38.4553 22.6472C38.1973 22.5738 37.9495 22.4686 37.7176 22.334L36.746 21.7735C36.7501 21.7694 36.7532 21.7632 36.7563 21.757Z" fill="black"/>
<path d="M4.80454 8.10147C4.94466 8.16329 5.12806 8.25602 5.31969 8.32608C5.6123 8.43426 5.90903 8.53214 6.20781 8.62487C6.49939 8.71553 6.80333 8.75262 7.11448 8.7485C7.25975 8.7485 7.40606 8.74541 7.55133 8.73614C7.99464 8.70421 8.44023 8.73158 8.8763 8.81753C8.92987 8.82784 8.98448 8.83196 9.03599 8.84638C9.11842 8.86905 9.19569 8.84844 9.27399 8.80517C9.41618 8.7279 9.56042 8.65784 9.70363 8.58365C9.82009 8.52307 9.94772 8.48696 10.0787 8.47753C10.2971 8.46208 10.5165 8.44147 10.735 8.43632C10.9544 8.43117 11.1687 8.40644 11.3871 8.34153C11.6272 8.26941 11.8745 8.23129 12.1187 8.18287C12.301 8.14577 12.4782 8.09014 12.6524 8.01493C13.0219 7.85926 13.4113 7.75592 13.8094 7.7079C14.0845 7.67081 14.3544 7.7079 14.6192 7.75941C14.7377 7.78208 14.7665 7.87687 14.7016 7.99638C14.6131 8.15914 14.4839 8.29616 14.3266 8.39408C13.9485 8.63105 13.6394 8.95044 13.3561 9.29868C13.2873 9.38117 13.2326 9.47447 13.1943 9.57481C13.1123 9.784 12.9858 9.97281 12.8234 10.1281C12.7358 10.2187 12.6462 10.3084 12.5617 10.4021C12.4934 10.4827 12.4092 10.5483 12.3144 10.5948C12.1764 10.6587 12.0981 10.7648 12.0599 10.9245C12.0115 11.1203 11.9456 11.316 11.859 11.5015C11.6839 11.8765 11.587 12.269 11.5201 12.6698C11.4768 12.9264 11.4428 13.184 11.3985 13.4395C11.3053 14.0131 11.1633 14.5777 10.974 15.1271C10.9328 15.2446 10.8741 15.36 10.8091 15.4692C10.6804 15.6855 10.3785 15.7432 10.2157 15.5784C10.142 15.4995 10.0787 15.4115 10.0271 15.3167C9.9859 15.2447 9.95569 15.1669 9.93751 15.0859C9.86539 14.7696 9.70878 14.5079 9.5223 14.2617C9.35436 14.0381 9.20806 13.798 9.03806 13.5755C8.84024 13.3189 8.62696 13.0768 8.42296 12.8264C8.22359 12.5832 8.02577 12.3386 7.82951 12.0929C7.7237 11.9642 7.65813 11.8073 7.64096 11.6416C7.63478 11.5798 7.6049 11.5386 7.54824 11.519C7.09586 11.3556 6.65255 11.1682 6.22018 10.9575C5.71224 10.7205 5.21048 10.4701 4.72624 10.1878C4.39654 9.9962 4.08848 9.76644 3.77527 9.54802C3.44007 9.31197 3.11909 9.05636 2.81399 8.7825C2.37883 8.3936 1.98865 7.95711 1.65078 7.48123C1.48284 7.24632 1.32109 7.00626 1.17066 6.75899C0.783392 6.11325 0.550009 5.38702 0.488601 4.63656C0.432147 4.12292 0.452985 3.60372 0.550419 3.09626C0.607086 2.8222 0.669934 2.54814 0.737934 2.27614C0.762358 2.19429 0.767645 2.10793 0.753389 2.02371C0.702395 1.74645 0.755989 1.46013 0.903813 1.22008C1.00169 1.05111 1.11193 0.888321 1.23351 0.736867C1.39733 0.532867 1.62399 0.489594 1.82593 0.610139C1.89393 0.651351 1.95987 0.702867 2.0083 0.764685C2.1546 0.946018 2.29884 1.13147 2.43072 1.32517C2.61824 1.60026 2.61721 1.91553 2.41218 2.20093C2.32623 2.33006 2.25862 2.47049 2.21127 2.6182C2.1783 2.70887 2.15975 2.80468 2.13193 2.89844C2.08557 3.0602 2.05981 3.20959 2.16696 3.35487C2.21539 3.41978 2.21436 3.53105 2.2226 3.62378C2.22981 3.70723 2.22054 3.79481 2.21848 3.88135C2.20053 4.49118 2.32802 5.09651 2.59042 5.64729C2.71509 5.91105 2.85109 6.16965 2.99636 6.42208C3.25703 6.87541 3.60218 7.25147 4.01533 7.55438C4.25951 7.73365 4.51193 7.89953 4.80454 8.10147Z" fill="black"/>
</svg>
