<svg width="36" height="40" viewBox="0 0 36 40" fill="none" xmlns="http://www.w3.org/2000/svg">
<path d="M8.11359 39.7256C8.50187 39.7385 8.84043 39.6917 9.16897 39.618C9.5473 39.5344 9.92564 39.4418 10.3139 39.394C10.752 39.3402 11.19 39.2894 11.628 39.2934C12.0462 39.2974 12.4743 39.3123 12.8925 39.3293C13.5396 39.3561 14.1767 39.381 14.8238 39.4208C15.69 39.4736 16.5661 39.4726 17.4323 39.4836C17.8106 39.4885 18.1791 39.4756 18.5475 39.4676C18.8362 39.4617 19.1149 39.4059 19.3837 39.3143C20.6481 38.8901 21.8428 38.3484 22.9778 37.6613C23.2466 37.502 23.4955 37.3267 23.7444 37.1405C24.0132 36.9314 24.3119 36.779 24.6405 36.6954C24.9192 36.6256 25.1979 36.54 25.4667 36.4683C26.3429 36.2393 27.1294 35.822 27.8661 35.3142C28.5929 34.8173 29.2102 34.2009 29.8175 33.5795C30.3451 33.0428 30.7633 32.4204 31.1714 31.7931C31.4602 31.345 31.7091 30.874 31.9381 30.395C31.9764 30.3342 32.0065 30.2685 32.0276 30.1998C32.1471 29.8731 32.2566 29.5416 32.4159 29.2319C32.4733 29.1328 32.4978 29.0181 32.4857 28.9043C32.4757 28.7708 32.396 28.6692 32.2666 28.6413C32.1371 28.6135 32.0077 28.6055 31.8882 28.6911C31.4502 28.9859 31.0122 29.2627 30.5841 29.5615C30.2356 29.8024 29.9568 30.1211 29.6781 30.4387C29.4889 30.6558 29.3098 30.874 29.1106 31.0851C28.8717 31.3499 28.6028 31.5879 28.3141 31.802C27.5475 32.3616 26.7112 32.75 25.8152 33.0308C25.7156 33.0627 25.6161 33.0876 25.5166 33.0627C25.4805 33.0558 25.4479 33.0367 25.4243 33.0086C25.4007 32.9805 25.3876 32.9451 25.3871 32.9084C25.4071 32.7281 25.4568 32.5628 25.6161 32.4602C25.7157 32.3945 25.8251 32.3318 25.9346 32.282C26.2632 32.1366 26.6017 32.0061 26.9203 31.8548C27.3683 31.6447 27.7666 31.3629 28.125 31.0183C28.5332 30.6359 28.9114 30.2356 29.2898 29.8304C29.6482 29.447 30.0365 29.0984 30.4746 28.8057C31.0022 28.4532 31.5299 28.1016 32.0874 27.7979C32.1969 27.7392 32.2964 27.6664 32.396 27.5967C32.5553 27.4862 32.7146 27.3757 32.9137 27.3458C32.9635 27.3389 33.0133 27.311 33.0531 27.2801C33.4912 26.9226 33.8994 26.5392 34.228 26.0742C34.5466 25.6271 34.7855 25.1461 34.9348 24.6183C35.0045 24.3913 35.0741 24.1652 35.1239 23.9352C35.2235 23.4373 35.2036 22.9345 35.1438 22.4346C35.0482 21.5753 34.7699 20.7465 34.3275 20.0038C34.2777 19.9062 34.218 19.8066 34.1682 19.7101C33.989 19.4183 33.7898 19.1465 33.521 18.9314C33.4633 18.8898 33.4128 18.839 33.3717 18.781C33.2422 18.5888 33.0531 18.4604 32.8639 18.3369C32.6648 18.2074 32.4757 18.077 32.2765 17.9465C32.2467 17.9296 32.2168 17.9176 32.1969 17.8967C31.9381 17.6468 31.5996 17.5432 31.3009 17.3769C30.6637 17.0274 30.0962 16.6012 29.6382 16.0336C29.3395 15.6651 29.1007 15.2579 28.8518 14.8625C28.4934 14.3208 28.1349 13.7861 27.7068 13.3001C27.5824 13.1504 27.4344 13.0219 27.2687 12.9198C26.8207 12.6589 26.3728 12.4119 25.8849 12.2456C25.5962 12.145 25.2975 12.0863 24.9889 12.0484C24.7599 12.0196 24.5408 12.0524 24.3318 12.143C24.1725 12.2117 24.0032 12.2655 23.824 12.2795C23.6647 12.2914 23.5253 12.2525 23.4158 12.1171C23.3063 11.9677 23.1371 11.8791 22.9778 11.7925C22.6051 11.5989 22.2003 11.4747 21.7831 11.4261C20.8832 11.3035 19.9669 11.4041 19.1149 11.7188C18.5673 11.925 18.0695 12.2207 17.6315 12.6259C17.1735 13.0551 16.7554 13.5202 16.4069 14.042C16.2874 14.2212 16.1878 14.4084 16.1182 14.6146C16.0485 14.7978 15.9688 14.9751 15.8992 15.1553C15.8748 15.2181 15.8359 15.2743 15.7858 15.3193C15.7356 15.3643 15.6755 15.3968 15.6104 15.4142C15.481 15.4491 15.3814 15.5347 15.2719 15.6183C15.0031 15.8304 14.7741 16.0704 14.5749 16.3463C14.2962 16.7287 14.0473 17.13 13.8382 17.5522C13.6789 17.8658 13.5595 18.1944 13.4898 18.536C13.4201 18.8606 13.4301 19.1883 13.5297 19.5089C13.5496 19.5717 13.5794 19.5886 13.6392 19.5637C13.9179 19.4591 14.1967 19.4093 14.4854 19.4004C14.7841 19.3904 15.0727 19.3127 15.3216 19.1365C15.471 19.0309 15.6304 18.9383 15.7897 18.8337C16.2377 18.5221 16.7355 18.3667 17.2731 18.304C17.6713 18.2572 18.0695 18.2383 18.4677 18.2502C18.7565 18.2582 19.0452 18.305 19.3239 18.3797C19.5031 18.4275 19.6724 18.4972 19.8018 18.6346C19.8516 18.6854 19.9014 18.7431 19.9312 18.8049C20.0009 18.9433 19.9313 19.1046 19.782 19.1424C19.71 19.1582 19.6357 19.1606 19.5629 19.1494C19.4814 19.1372 19.4014 19.1169 19.3239 19.0887C18.7863 18.8935 18.2189 18.9054 17.6614 18.9453C17.4423 18.9602 17.2332 19.002 17.0142 19.0359C16.7155 19.0837 16.4467 19.2052 16.1978 19.3715C16.0086 19.495 15.8195 19.6145 15.6303 19.74C15.2918 19.969 14.9035 20.0656 14.4953 20.0755C14.1568 20.0845 13.8582 20.189 13.5695 20.3583C13.4102 20.4529 13.2608 20.5545 13.1015 20.6561C12.982 20.7367 12.8625 20.8144 12.7132 20.8035C12.6634 20.8005 12.6138 20.8293 12.5739 20.8612C11.9368 21.4188 11.2398 21.9168 10.6424 22.5272C9.59 23.5821 8.72181 24.8059 8.07385 26.1479C7.95438 26.3899 7.88468 26.6458 7.81499 26.9027L7.18776 29.2787C7.14794 29.427 7.11804 29.5794 7.02843 29.7109C7.01848 29.7278 7.01846 29.7467 7.0085 29.7666C6.97864 29.8632 6.9986 29.9678 7.05833 30.0205C7.14793 30.0862 7.2475 30.0942 7.31719 30.0405C7.68556 29.7955 8.10363 29.68 8.48195 29.4878C8.70098 29.3773 8.92004 29.2568 9.12911 29.1233C9.60596 28.818 9.99671 28.3957 10.2641 27.8965C10.3736 27.6983 10.4732 27.4972 10.5828 27.299C10.7719 26.9455 11.0108 26.6229 11.2995 26.348C11.4588 26.2017 11.638 26.0722 11.8371 25.9836C11.913 25.9542 11.9958 25.9476 12.0754 25.9645C12.155 25.9815 12.2279 26.0214 12.2852 26.0792C12.3748 26.1797 12.3947 26.3062 12.325 26.4178C12.2553 26.5104 12.1856 26.595 12.1059 26.6767C12.0462 26.7424 11.9666 26.8002 11.8969 26.8579C11.7115 27.0049 11.5561 27.1861 11.4389 27.3916C11.19 27.8178 10.9312 28.2361 10.6923 28.6663C10.4035 29.203 9.96547 29.6003 9.44777 29.913C9.169 30.0833 8.88028 30.2257 8.57164 30.3472C8.23314 30.4796 7.90459 30.613 7.56609 30.7355C7.1579 30.8839 6.78953 31.1 6.44107 31.3479C6.28178 31.4535 6.13247 31.55 5.97317 31.6526C5.93201 31.6787 5.89497 31.711 5.86355 31.7482C5.72417 31.9285 5.58481 32.1077 5.51512 32.3238C5.42552 32.5658 5.34587 32.8078 5.26622 33.0517C5.18658 33.3276 5.13681 33.6104 5.15672 33.9012C5.16668 33.9719 5.16667 34.0475 5.14676 34.1152C5.13137 34.1836 5.10078 34.2476 5.05719 34.3024C5.01737 34.3612 4.93769 34.3493 4.90783 34.2885C4.90783 34.2786 4.89786 34.2696 4.89786 34.2597C4.82817 34.0227 4.65898 33.8643 4.45986 33.7219C3.85894 33.2775 3.18982 32.9338 2.47865 32.7042C2.08041 32.5777 1.76174 32.3616 1.5228 32.0121C1.36398 31.7728 1.16132 31.5657 0.925474 31.4017C0.825915 31.332 0.716454 31.2663 0.606939 31.2294C0.38791 31.1627 0.238518 31.2563 0.178783 31.4684C0.158871 31.566 0.13893 31.6726 0.148886 31.7722C0.178753 32.0779 0.238562 32.3786 0.348076 32.6683C0.487459 33.0129 0.60689 33.3604 0.806008 33.6761C0.845832 33.7448 0.875665 33.8255 0.895577 33.9051C0.965268 34.3453 1.15451 34.7446 1.35363 35.1379C1.88996 36.2191 2.70002 37.1409 3.7032 37.8117C4.74857 38.5217 5.87358 39.0873 7.05833 39.5344C7.41674 39.6718 7.77509 39.7545 8.11359 39.7256V39.7256ZM26.9003 23.1685C26.7311 23.1715 26.6415 23.1516 26.5918 23.0619C26.5221 22.9534 26.542 22.8438 26.6117 22.7442C26.6416 22.6945 26.6814 22.6476 26.7312 22.6098C26.8108 22.5471 26.9004 22.4854 26.99 22.4376C27.1195 22.3649 27.2587 22.2991 27.3981 22.2414C28.3638 21.851 29.3594 21.7425 30.3849 21.844C30.7333 21.8789 31.0719 21.8799 31.4004 21.7196C31.5498 21.6469 31.6991 21.6887 31.7887 21.8032C31.8783 21.9137 31.8883 22.079 31.8086 22.2075C31.7787 22.2618 31.7374 22.3089 31.6876 22.3457C31.6378 22.3825 31.5805 22.408 31.5199 22.4206C31.1714 22.5182 30.823 22.575 30.4646 22.5291C30.1079 22.4869 29.7481 22.4749 29.3893 22.4933C28.772 22.5202 28.1748 22.6467 27.5973 22.8877C27.4579 22.9474 27.3285 23.0241 27.1791 23.0808C27.0696 23.1256 26.9501 23.1535 26.9003 23.1685V23.1685ZM15.7199 36.2004C15.1146 36.2231 14.5096 36.1485 13.9279 35.9794C13.8881 35.9674 13.8483 35.9654 13.8084 35.9545C13.6299 35.9058 13.4427 35.8983 13.2608 35.9326C13.1115 35.9565 12.9622 35.9634 12.8029 35.9664C12.6635 35.9684 12.5739 35.8867 12.5241 35.7653C12.4743 35.6497 12.5042 35.5442 12.5739 35.4506C12.612 35.4019 12.6601 35.3621 12.7151 35.3339C12.7702 35.3057 12.8307 35.2898 12.8925 35.2873C13.002 35.2783 13.1015 35.2773 13.201 35.2594C13.44 35.2186 13.669 35.2236 13.898 35.2813C14.0374 35.3162 14.1768 35.3521 14.3162 35.3819C14.4855 35.4178 14.6546 35.4596 14.8338 35.4795C15.4113 35.5462 15.9887 35.5582 16.5761 35.4865C16.6756 35.4745 16.7753 35.4795 16.8748 35.5223C17.0341 35.591 17.0939 35.7583 17.0142 35.9047C16.9828 35.9592 16.9383 36.0051 16.8848 36.0382C16.7952 36.0869 16.7055 36.1267 16.606 36.1516C16.3173 36.2233 16.0186 36.1955 15.7199 36.2004V36.2004ZM31.9181 8.79915C31.9063 9.66838 31.755 10.5301 31.4702 11.3514C31.2412 11.9787 31.0022 12.6001 30.6836 13.1856C30.5442 13.4365 30.4248 13.6974 30.2953 13.9534C30.2555 14.026 30.2058 14.057 30.1162 14.0321C29.9686 13.9875 29.8099 13.9963 29.6681 14.0569C29.5188 14.1177 29.4391 14.2312 29.4491 14.3905C29.4491 14.4702 29.469 14.5519 29.489 14.6285C29.5487 14.7968 29.6482 14.9412 29.7577 15.0747C29.8672 15.2001 29.9668 15.3246 30.0664 15.456C30.3053 15.7717 30.584 16.0415 30.9026 16.2636C31.1913 16.4608 31.49 16.64 31.7787 16.8292C31.8584 16.879 31.948 16.9248 32.0077 16.9886C32.0874 17.0702 32.167 17.0702 32.2566 17.0284C32.4756 16.9308 32.5454 16.8103 32.5454 16.5733C32.5483 16.4167 32.4953 16.2642 32.396 16.1431C32.2666 15.9729 32.2666 15.8076 32.3463 15.6273C32.4658 15.3754 32.5553 15.1125 32.6947 14.8765C33.1925 14.0509 33.531 13.1657 33.8098 12.2506C34.0189 11.5436 34.1681 10.8216 34.2478 10.0857C34.3175 9.40259 34.3374 8.71848 34.2777 8.02939C34.2043 7.16118 34.0134 6.30697 33.7102 5.49012C33.361 4.56501 32.8255 3.72142 32.1371 3.01157C31.2077 2.04743 30.0058 1.39068 28.6924 1.1295C28.1496 1.01246 27.5949 0.959014 27.0397 0.970203C26.1736 0.995098 25.3274 1.13947 24.5011 1.40137C24.4612 1.41332 24.4314 1.42822 24.3916 1.44415C24.2223 1.51386 24.1924 1.57865 24.2123 1.75291C24.2223 1.9202 24.282 2.07351 24.3716 2.21391C24.521 2.46884 24.6802 2.71778 24.8395 2.96872C24.9291 3.11212 25.0685 3.20774 25.2178 3.28143C25.3672 3.35711 25.5165 3.37406 25.6857 3.32726C26.1338 3.20477 26.5917 3.15397 27.0597 3.16194C28.1548 3.18185 29.1206 3.5463 29.9569 4.24933C30.7633 4.9195 31.281 5.77587 31.5996 6.7627C31.8186 7.43188 31.9082 8.12002 31.9181 8.79915V8.79915Z" fill="black"/>
</svg>
