<svg width="39" height="36" viewBox="0 0 39 36" fill="none" xmlns="http://www.w3.org/2000/svg">
<path d="M18.2473 35.0279C22.154 35.3764 25.769 34.8566 29.1799 33.1399C36.589 29.4096 40.2846 20.8787 36.7493 12.3706C35.928 10.395 34.7551 8.63539 33.2986 7.07299C32.8954 6.64181 32.4105 6.28635 31.9575 5.90197C31.5071 5.518 31.0501 5.14187 30.5866 4.77374C30.0188 4.32441 29.4432 3.88483 28.8603 3.45528C28.1673 2.94842 27.5003 2.69947 26.7526 3.44732C26.4589 3.74207 25.9522 3.41643 26.0059 2.93447C26.0766 2.29915 25.9163 1.98251 25.2841 1.76144C19.1603 -0.389471 13.2773 0.0297663 7.80159 3.59969C3.82023 6.19572 1.53934 9.99766 0.865328 14.6988C0.622404 16.3956 0.644305 18.1333 1.09033 19.8222C1.1202 19.9337 1.23966 20.0582 1.3442 20.1C1.41787 20.1269 1.58215 20.0462 1.63592 19.9665C2.01225 19.4238 2.35274 18.8553 2.74798 18.3285C2.8336 18.214 3.17907 18.1413 3.26469 18.215C3.4429 18.3653 3.67686 18.673 3.62509 18.8353C3.30651 19.853 2.8356 20.814 1.97242 21.4772C1.61401 21.752 1.64686 21.985 1.75638 22.3056C2.56579 24.6577 3.85408 26.731 5.54359 28.5384C9.02815 32.2656 13.351 34.3567 18.2473 35.0279V35.0279ZM36.4735 20.0701C36.0096 24.2833 33.3155 27.4958 29.7732 28.5354C27.7323 29.1338 25.8058 28.8859 24.1661 27.4938C21.8633 25.539 20.6885 23.0545 20.9414 19.9685C21.1236 17.7449 22.1669 15.9625 23.6404 14.3612C25.4743 12.3706 27.8079 11.6547 30.4233 11.6358C30.6832 11.6348 30.9699 11.6597 31.1999 11.7652C32.9711 12.5798 34.566 13.6015 35.477 15.4317C36.2963 17.0778 36.59 18.8104 36.4735 20.0701ZM8.19385 11.4137C8.26753 10.6758 8.60105 10.148 9.20039 9.87816C9.29597 9.83434 9.48314 9.86222 9.55681 9.93292C9.68524 10.0574 9.86346 10.2615 9.83757 10.395C9.72208 10.9855 9.43535 11.4993 8.87881 11.7871C8.73943 11.8578 8.50746 11.811 8.34319 11.7493C8.26355 11.7194 8.24363 11.5312 8.19385 11.4137ZM14.2928 17.3636C14.1823 17.3028 14.0121 17.2669 13.9722 17.1763C13.9016 17.012 13.8179 16.7292 13.8976 16.6466C14.252 16.2751 14.6542 15.9466 15.0594 15.6289C15.1281 15.5751 15.3481 15.6109 15.4158 15.6826C15.5423 15.8161 15.7016 16.0193 15.6797 16.1706C15.597 16.7751 14.929 17.3178 14.2928 17.3636V17.3636ZM15.8569 30.9581C15.9087 30.3447 16.4224 29.7373 17.0715 29.5132C17.1681 29.4784 17.3553 29.5262 17.416 29.6039C17.5295 29.7443 17.6719 29.9544 17.639 30.1018C17.5006 30.754 16.8784 31.2767 16.2691 31.2578C16.1217 31.2518 15.9803 31.0507 15.8569 30.9581V30.9581ZM17.1621 8.94412C17.2218 8.972 17.2836 8.99488 17.3383 9.03073C17.5902 9.19802 17.6271 9.62126 17.418 9.90107C17.0337 10.4129 16.5867 10.5553 16.2701 10.2636C16.2181 10.2228 16.177 10.1697 16.1506 10.1092C15.9953 9.5824 16.5966 8.89333 17.1621 8.94412V8.94412ZM13.0085 4.66021C12.905 4.59847 12.7517 4.56263 12.7078 4.47301C12.4888 4.02889 12.6621 3.55288 13.1031 3.32485C13.3868 3.17847 13.802 3.42444 13.8249 3.75206C13.8568 4.22207 13.5183 4.59847 13.0085 4.66021ZM17.4887 26.5936C17.8969 26.5527 18.1169 26.7728 18.096 27.0456C18.0761 27.3245 17.9367 27.5137 17.6509 27.5714C17.4289 27.6152 17.1462 27.3513 17.2069 27.0954C17.2537 26.8883 17.419 26.7101 17.4877 26.5936H17.4887ZM28.915 9.1064C28.8662 8.80865 29.0494 8.63642 29.3093 8.54979C29.6159 8.44822 29.816 8.62445 29.8857 8.89829C29.9644 9.19603 29.7832 9.39023 29.5044 9.45496C29.2247 9.51869 29.0036 9.42405 28.915 9.1064Z" fill="black"/>
</svg>
