<svg width="46" height="40" viewBox="0 0 46 40" fill="none" xmlns="http://www.w3.org/2000/svg">
<path d="M10.1967 33.7998C10.1897 34.2588 10.1837 34.7179 10.1748 35.177C10.1568 36.105 10.1369 37.0331 10.117 37.9612C10.1061 38.4591 10.0941 38.957 10.0772 39.4539C10.0752 39.549 10.0591 39.6433 10.0294 39.7337C9.97266 39.897 9.82531 39.9518 9.66204 39.8911C9.52564 39.8393 9.40816 39.7735 9.32951 39.6371C9.27376 39.5395 9.18614 39.4589 9.1045 39.3792C7.96555 38.2729 6.82361 37.1676 5.68366 36.0612C4.6602 35.0684 3.63873 34.0726 2.61526 33.0798C1.86658 32.3539 1.11491 31.63 0.367227 30.903C0.271651 30.8104 0.188017 30.7039 0.0984142 30.6063C0.0656988 30.5711 0.0407288 30.5294 0.025123 30.4839C0.00951715 30.4385 0.003627 30.3903 0.00781988 30.3424C0.0137934 30.2189 0.0287238 30.0954 0.0416665 29.972C0.0526179 29.8584 0.0745245 29.7449 0.0765157 29.6314C0.0824892 29.2291 0.0864689 28.8278 0.0814909 28.4265C0.0775086 28.0909 0.0556014 27.7573 0.0476367 27.4227C0.0376808 26.9447 0.00781654 26.4648 0.0277283 25.9878C0.0924415 24.514 0.0735241 23.0402 0.0715329 21.5665C0.0715329 21.1642 0.053612 20.7639 0.0307134 20.3635C0.0297178 20.3456 0.0336996 20.3207 0.0456466 20.3108C0.0556025 20.3028 0.083482 20.3068 0.0954291 20.3167C0.349304 20.5079 0.640015 20.6354 0.911811 20.7967C1.07509 20.8943 1.23836 20.9959 1.38869 21.1134C2.12045 21.685 2.88407 22.2117 3.64072 22.7485C3.95233 22.9695 4.26197 23.1996 4.54272 23.4575C5.17938 24.0375 5.84142 24.5891 6.52693 25.1105L8.70926 26.7934C8.88349 26.9268 9.05373 27.0672 9.22696 27.2036C9.29366 27.2574 9.36037 27.3132 9.43205 27.359C9.47291 27.3823 9.51854 27.3959 9.56546 27.3988C9.62819 27.4028 9.68194 27.3699 9.69986 27.3112C9.71281 27.2694 9.71679 27.2086 9.69489 27.1778C9.64485 27.1083 9.58518 27.0462 9.51767 26.9935C9.07364 26.645 8.62862 26.2985 8.18259 25.9519C7.39608 25.3415 6.60856 24.7341 5.82504 24.1207C5.63608 23.9735 5.45434 23.8173 5.28045 23.6527C4.69446 23.1019 4.06522 22.5991 3.39879 22.149C2.80741 21.7447 2.23395 21.3125 1.6595 20.8824C1.40032 20.6859 1.12525 20.5114 0.837145 20.3606C0.74356 20.3118 0.651966 20.261 0.560372 20.2102C0.322428 20.0835 0.130215 19.8853 0.010805 19.6436C-0.0120935 19.5988 0.00482868 19.5699 0.0297184 19.544C0.0964579 19.4749 0.180799 19.4253 0.27364 19.4006C0.40008 19.3608 0.53548 19.3409 0.646986 19.2592C0.670536 19.243 0.69811 19.2337 0.726635 19.2323C1.06314 19.2174 1.38372 19.1148 1.70928 19.0471C2.19712 18.9465 2.68495 18.8659 3.18275 18.83C3.72733 18.7902 4.26395 18.7026 4.79958 18.598C5.18388 18.5233 5.56917 18.4536 5.95447 18.3789C6.41244 18.2893 6.8714 18.1937 7.33236 18.1101C7.45183 18.0892 7.58125 18.0921 7.70371 18.1041C7.86798 18.12 7.94265 18.2017 7.9536 18.365C7.96356 18.5074 7.96555 18.6518 7.95758 18.7952C7.94066 19.072 8.06013 19.2712 8.28115 19.4255C8.43248 19.5311 8.59377 19.6077 8.77596 19.6426C9.14134 19.7133 9.50573 19.793 9.8721 19.8577C10.0125 19.8826 10.1578 19.8786 10.3002 19.8826C10.3968 19.8846 10.4914 19.8706 10.583 19.9154C10.6188 19.9292 10.6572 19.9349 10.6955 19.9324C10.9832 19.9334 11.2649 19.9901 11.5497 20.023C11.6164 20.0309 11.6831 20.0359 11.7498 20.0399C12.3133 20.0728 12.8768 20.1066 13.4413 20.1017C13.7878 20.0987 14.1282 20.1485 14.4697 20.1833C14.8311 20.2202 15.1915 20.261 15.5549 20.263C16.0059 20.264 16.4549 20.2729 16.9049 20.2859C17.2106 20.2948 17.5172 20.3018 17.8209 20.3367C18.249 20.3864 18.6731 20.4542 19.0972 20.5259C19.1968 20.5428 19.2914 20.6035 19.383 20.6543C20.3766 21.21 21.3413 21.8144 22.31 22.4119C23.0756 22.8839 23.8372 23.3619 24.6048 23.8309C24.7223 23.9026 24.788 23.9922 24.801 24.1247C24.8089 24.2103 24.8308 24.2979 24.8179 24.3806C24.782 24.6355 24.7542 24.8904 24.6556 25.1344C24.5879 25.3236 24.5532 25.523 24.553 25.7239C24.5451 25.925 24.5481 26.1262 24.5411 26.3274C24.5212 26.8332 24.5013 27.3401 24.4754 27.8459C24.4405 28.5629 24.4037 29.2789 24.3609 29.9949C24.34 30.3484 24.3022 30.6999 24.2753 31.0534C24.2653 31.1868 24.2673 31.3213 24.2574 31.4547C24.1906 32.334 24.1996 33.2143 24.2056 34.0945C24.2076 34.4968 24.2106 34.8981 24.2056 35.3004C24.2026 35.5982 24.2155 35.8929 24.2822 36.1837C24.3199 36.3722 24.3182 36.5665 24.2773 36.7543C24.2633 36.827 24.2255 36.8748 24.1528 36.8937C24.116 36.9027 24.0791 36.9166 24.0433 36.9256L18.6293 38.1992C17.1419 38.5487 15.6525 38.8982 14.1651 39.2498C13.2352 39.4688 12.3053 39.6869 11.3774 39.913C11.1076 39.9824 10.8227 39.9654 10.563 39.8642C10.4884 39.8363 10.4525 39.7875 10.4476 39.7178C10.4337 39.5655 10.4271 39.4126 10.4276 39.2597C10.4346 38.8196 10.4535 38.3804 10.4615 37.9403C10.4744 37.2602 10.4804 36.581 10.4924 35.9009L10.5521 32.9444L10.6078 30.3324C10.6178 29.8644 10.6327 29.3954 10.6457 28.9264C10.6467 28.8885 10.6387 28.8427 10.6566 28.8138C10.7701 28.6256 10.803 28.3996 10.9434 28.2233C11.0927 28.0381 11.2819 27.9166 11.5049 27.8509C12.3581 27.599 13.2262 27.4078 14.0964 27.2256C14.6659 27.1061 15.2343 26.9736 15.8058 26.8591C16.5644 26.7068 17.3241 26.5574 18.0857 26.4229C18.707 26.3134 19.3312 26.2218 19.9554 26.1302C20.4492 26.0575 20.9251 25.9171 21.402 25.7767C22.0252 25.5915 22.6495 25.4122 23.2717 25.227C23.446 25.1752 23.6152 25.1115 23.7874 25.0527C23.8053 25.0466 23.8227 25.039 23.8392 25.0298C23.8733 25.0116 23.8999 24.982 23.9143 24.9461C23.9286 24.9102 23.9299 24.8704 23.9179 24.8337C23.8999 24.7759 23.8263 24.7172 23.7655 24.7241C23.699 24.7319 23.6333 24.7459 23.5694 24.7659C23.3683 24.8267 23.1702 24.8944 22.9691 24.9542C22.3 25.1533 21.629 25.3425 20.963 25.5486C20.504 25.691 20.0331 25.7677 19.5612 25.8424C19.0136 25.928 18.464 26.0037 17.9184 26.1003C17.2504 26.2178 16.5844 26.3473 15.9183 26.4807C15.3658 26.5912 14.8162 26.7187 14.2646 26.8332C13.3666 27.0204 12.4726 27.2276 11.5835 27.4556C11.4362 27.4934 11.2888 27.5343 11.1415 27.5761C10.9762 27.6239 10.8129 27.6767 10.6407 27.6946C10.4286 27.7175 10.3092 27.8439 10.3032 28.0879C10.2853 28.8338 10.2753 29.5796 10.2634 30.3255C10.2514 31.0146 10.2454 31.7036 10.2315 32.3927C10.2216 32.8618 10.2016 33.3308 10.1877 33.7988L10.1967 33.7998V33.7998ZM17.8786 22.139C17.8846 22.0634 17.8358 22.0096 17.7751 22.0016C17.6608 21.9877 17.5448 22.0024 17.4376 22.0444C17.4067 22.0554 17.351 22.0574 17.333 22.0385C17.2066 21.909 17.0503 21.9389 16.9019 21.9578C16.656 21.9887 16.4111 22.0315 16.1672 22.0723C16.1109 22.0828 16.0558 22.0992 16.0029 22.1211C15.9551 22.14 15.9332 22.1819 15.9322 22.2346C15.9322 22.2934 15.9721 22.3502 16.0298 22.3581C16.0761 22.3637 16.123 22.3634 16.1692 22.3571C16.4997 22.3133 16.8303 22.2705 17.1598 22.2187C17.2424 22.2058 17.3032 22.1958 17.349 22.2834C17.3619 22.3093 17.4187 22.3322 17.4485 22.3253C17.577 22.2954 17.7163 22.2944 17.8269 22.2117C17.8547 22.1918 17.8697 22.152 17.8786 22.14V22.139ZM13.4124 36.2484C13.4094 36.1977 13.4174 36.128 13.3985 36.0662C13.3875 36.0284 13.3417 35.9915 13.3019 35.9736C13.2541 35.9527 13.2043 35.9816 13.1814 36.0254C13.1546 36.075 13.1368 36.1289 13.1287 36.1847C13.1068 36.355 13.0908 36.5263 13.0739 36.6975C13.054 36.9067 13.0301 37.1158 13.0142 37.3249C13.0062 37.4474 13.0759 37.546 13.1536 37.541C13.2213 37.537 13.282 37.4603 13.2949 37.3478C13.3348 36.9873 13.3726 36.6258 13.4124 36.2484V36.2484ZM4.11363 19.7342C4.10566 19.6525 4.05588 19.5978 3.99913 19.5968C3.95177 19.5942 3.90429 19.5976 3.85776 19.6067C3.52324 19.6864 3.18972 19.7661 2.8562 19.8497C2.81011 19.8615 2.76635 19.8811 2.72677 19.9075C2.66205 19.9513 2.66903 20.0568 2.73374 20.1066C2.79347 20.1504 2.85619 20.1544 2.92389 20.1365L3.95035 19.8776C3.98789 19.8708 4.02314 19.8547 4.05289 19.8308C4.08276 19.8009 4.10068 19.7551 4.11262 19.7342H4.11363ZM3.81694 31.5105C3.81694 31.6051 3.81196 31.6817 3.81893 31.7574C3.82291 31.8082 3.86473 31.85 3.91152 31.852C3.95134 31.853 4.01108 31.8301 4.03099 31.7982C4.06557 31.7417 4.08668 31.678 4.09271 31.612C4.12457 31.2605 4.14747 30.909 4.21418 30.5625C4.22513 30.5017 4.19128 30.4489 4.13453 30.425C4.08575 30.4041 4.00809 30.4181 3.9822 30.4669C3.94437 30.5415 3.90056 30.6212 3.89061 30.7029C3.85875 30.9777 3.83983 31.2535 3.81694 31.5105ZM15.1547 22.1261C15.1885 22.1241 15.2174 22.1231 15.2453 22.1191L16.0637 21.9966L16.0905 21.9887C16.1423 21.9747 16.1951 21.912 16.1901 21.8632C16.1851 21.8124 16.1553 21.7706 16.1055 21.7596C16.0318 21.7437 15.9542 21.7218 15.8825 21.7308C15.6376 21.7646 15.3946 21.8084 15.1507 21.8523C15.1139 21.8582 15.0691 21.8722 15.0492 21.8981C15.022 21.9353 15.008 21.9805 15.0093 22.0265C15.0103 22.0554 15.0492 22.0863 15.078 22.1072C15.0989 22.1221 15.1318 22.1211 15.1547 22.1271V22.1261ZM22.4982 29.4004H22.4922C22.4922 29.2669 22.4942 29.1335 22.4912 29.0011C22.4909 28.9539 22.4842 28.907 22.4713 28.8616C22.4484 28.788 22.3299 28.768 22.2821 28.8288C22.2205 28.9019 22.1879 28.9951 22.1905 29.0907C22.1975 29.2331 22.1935 29.3765 22.2035 29.5179C22.2104 29.6314 22.2274 29.7449 22.2473 29.8574C22.2541 29.8944 22.273 29.928 22.301 29.953C22.3269 29.9749 22.3727 29.9899 22.4036 29.9819C22.4204 29.9761 22.4359 29.9668 22.4489 29.9546C22.4619 29.9424 22.4723 29.9276 22.4792 29.9112C22.4952 29.8684 22.4962 29.8186 22.4972 29.7708C22.4991 29.6473 22.4972 29.5238 22.4972 29.4004H22.4982ZM22.1278 28.5878C22.1278 28.5291 22.1298 28.4056 22.1268 28.2821C22.1251 28.2348 22.1174 28.188 22.1039 28.1427C22.089 28.0909 22.0243 28.0481 21.9725 28.0491C21.9227 28.0501 21.864 28.1019 21.852 28.1546C21.847 28.1736 21.8421 28.1925 21.8421 28.2104C21.85 28.4574 21.855 28.7053 21.8719 28.9513C21.8759 29.014 21.9117 29.0777 21.9466 29.1325C21.9625 29.1574 22.0133 29.1743 22.0462 29.1693C22.0637 29.1652 22.0801 29.1573 22.0942 29.1461C22.1083 29.1349 22.1198 29.1207 22.1278 29.1046C22.1449 29.0606 22.1524 29.0134 22.1497 28.9662C22.1467 28.8616 22.1377 28.7571 22.1278 28.5878V28.5878ZM22.5917 30.6959H22.5868V30.4091C22.5865 30.3707 22.5811 30.3326 22.5708 30.2956C22.5646 30.2725 22.5516 30.2518 22.5335 30.2362C22.5154 30.2206 22.493 30.2107 22.4693 30.208C22.4115 30.199 22.3468 30.2319 22.3279 30.2816C22.318 30.3085 22.305 30.3364 22.305 30.3643C22.309 30.5734 22.312 30.7835 22.3239 30.9936C22.3259 31.0375 22.3538 31.0853 22.3837 31.1191C22.4056 31.144 22.4514 31.1639 22.4822 31.1589C22.5131 31.154 22.5479 31.1211 22.5659 31.0912C22.5829 31.0573 22.5914 31.0197 22.5907 30.9817C22.5947 30.8871 22.5917 30.7915 22.5917 30.6959V30.6959ZM9.21203 23.4854C9.16424 23.4983 9.1065 23.5073 9.05572 23.5302C8.90738 23.5969 8.76202 23.6696 8.61766 23.7413C8.59178 23.7542 8.56987 23.7741 8.54897 23.7931C8.50715 23.8309 8.49123 23.9046 8.51313 23.9494C8.53503 23.9972 8.59476 24.0221 8.65948 24.0131C8.66943 24.0121 8.67939 24.0131 8.68835 24.0091C8.89543 23.9135 9.10251 23.818 9.30959 23.7204C9.32453 23.7134 9.33548 23.6935 9.34743 23.6795C9.38725 23.6298 9.36336 23.5332 9.30263 23.5102C9.27674 23.4993 9.24886 23.4943 9.21203 23.4854V23.4854ZM7.90084 35.5564H7.89188C7.89188 35.4518 7.89586 35.3473 7.89089 35.2437C7.89064 35.2193 7.88097 35.1959 7.8639 35.1785C7.84683 35.161 7.82368 35.1509 7.79929 35.1501C7.75648 35.1491 7.70172 35.162 7.67186 35.1909C7.63896 35.225 7.61982 35.27 7.61809 35.3174C7.61511 35.4976 7.62009 35.6788 7.62805 35.8591C7.63104 35.9039 7.65592 35.9487 7.67783 35.9905C7.70769 36.0483 7.81024 36.0543 7.84708 35.9985C7.8745 35.9605 7.89226 35.9164 7.89885 35.87C7.90582 35.7665 7.90084 35.6609 7.90084 35.5564ZM12.2735 24.9621C12.2506 24.9293 12.2376 24.8864 12.2097 24.8725C12.1699 24.8536 12.1152 24.8376 12.0763 24.8506C11.8802 24.9173 11.6851 24.989 11.4939 25.0687C11.4143 25.1015 11.4242 25.2389 11.5029 25.2808C11.5347 25.2977 11.5785 25.3176 11.6084 25.3087C11.8175 25.2489 12.0226 25.1762 12.2087 25.0617C12.2366 25.0438 12.2486 25.0019 12.2735 24.9621V24.9621ZM17.4605 24.523C17.4087 24.526 17.3788 24.522 17.353 24.5309C17.1937 24.5877 17.0334 24.6455 16.8751 24.7092C16.8432 24.7221 16.8173 24.756 16.7934 24.7839C16.7486 24.8347 16.7755 24.9263 16.8412 24.9462C16.8761 24.9571 16.9179 24.9661 16.9507 24.9571C17.122 24.9054 17.2922 24.8476 17.4625 24.7898C17.4794 24.7839 17.4953 24.7719 17.5122 24.762C17.559 24.7311 17.5949 24.6564 17.567 24.6156C17.5371 24.5748 17.4884 24.5459 17.4605 24.523V24.523ZM6.57272 34.5775C6.58069 34.6671 6.58268 34.7528 6.59861 34.8354C6.60757 34.8842 6.64839 34.9141 6.70116 34.9201C6.7599 34.927 6.81963 34.8942 6.83755 34.8414C6.84719 34.8147 6.85387 34.7869 6.85746 34.7587C6.87439 34.5895 6.89031 34.4202 6.90425 34.2499C6.90923 34.1961 6.86443 34.1354 6.81266 34.1204C6.7599 34.1055 6.68722 34.1264 6.66034 34.1712C6.63644 34.212 6.60956 34.2539 6.60159 34.2997C6.58566 34.3923 6.58168 34.4869 6.57272 34.5775V34.5775ZM4.92403 22.3521C5.07835 22.3123 5.28244 22.2496 5.46563 22.1291C5.51143 22.0992 5.51939 22.0176 5.49251 21.9747C5.45966 21.921 5.4049 21.8871 5.35014 21.907C5.16416 21.9731 4.98023 22.0449 4.79859 22.1221C4.74184 22.146 4.72392 22.2038 4.73587 22.2655C4.74582 22.3173 4.79859 22.3531 4.92403 22.3521V22.3521ZM18.6283 33.2879C18.6283 33.1914 18.6303 33.1625 18.6283 33.1346C18.6276 33.1058 18.6171 33.0781 18.5984 33.0561C18.5797 33.0342 18.5541 33.0194 18.5258 33.0141C18.4927 33.0093 18.4589 33.0159 18.43 33.0327C18.4011 33.0495 18.3787 33.0756 18.3665 33.1067C18.3635 33.1157 18.3575 33.1246 18.3565 33.1336C18.3316 33.284 18.3067 33.4343 18.2858 33.5857C18.2796 33.6235 18.2833 33.6623 18.2968 33.6982C18.3127 33.7312 18.3389 33.7581 18.3714 33.7749C18.4182 33.7968 18.466 33.7789 18.5009 33.742C18.5213 33.7216 18.536 33.6962 18.5437 33.6683C18.5785 33.521 18.6104 33.3716 18.6283 33.2879ZM6.62549 30.0387C6.64042 30.1193 6.64938 30.194 6.67029 30.2657C6.68522 30.3135 6.73002 30.3384 6.78179 30.3354C6.83357 30.3334 6.86941 30.3016 6.89131 30.2558C6.8996 30.2388 6.90532 30.2207 6.90824 30.202L6.97394 29.7539C6.97638 29.735 6.97638 29.716 6.97394 29.6971C6.97225 29.6734 6.9636 29.6508 6.94908 29.632C6.93455 29.6132 6.9148 29.5992 6.89231 29.5916C6.8703 29.5824 6.84606 29.5799 6.82267 29.5846C6.79927 29.5892 6.77778 29.6006 6.76089 29.6175C6.73269 29.6425 6.71142 29.6744 6.69916 29.7101C6.66929 29.8196 6.64938 29.9301 6.62549 30.0387V30.0387ZM2.0886 24.751C2.0866 24.7211 2.08661 24.6923 2.08263 24.6644C2.07466 24.5927 2.0199 24.5359 1.95518 24.5309C1.92157 24.5291 1.88851 24.54 1.86252 24.5614C1.83652 24.5827 1.81949 24.6131 1.81481 24.6465C1.793 24.7781 1.77408 24.9103 1.75806 25.0428C1.75484 25.0807 1.75652 25.1188 1.76304 25.1563C1.76786 25.1897 1.78464 25.2203 1.81028 25.2422C1.83592 25.2642 1.86866 25.2761 1.90242 25.2758C1.93115 25.275 1.95879 25.2646 1.98083 25.2462C2.00288 25.2277 2.01805 25.2024 2.02388 25.1742C2.04777 25.0338 2.06669 24.8914 2.0886 24.75V24.751ZM4.56761 19.8039C4.72391 19.7641 4.88022 19.7242 5.03554 19.6804C5.06042 19.6745 5.08133 19.6476 5.10125 19.6267C5.15501 19.5699 5.12414 19.4623 5.04748 19.4424C5.01108 19.4314 4.97277 19.428 4.93498 19.4325C4.82248 19.4524 4.71098 19.4763 4.60047 19.5042C4.55423 19.516 4.50972 19.5337 4.46805 19.557C4.39836 19.5948 4.39538 19.7043 4.46109 19.7511C4.49095 19.773 4.52778 19.785 4.56661 19.8039H4.56761ZM2.07764 25.5715C2.08162 25.6422 2.08361 25.7289 2.09357 25.8135C2.10054 25.8733 2.15928 25.9161 2.21503 25.9111C2.26581 25.9061 2.30663 25.8812 2.32156 25.8314C2.37632 25.6452 2.36836 25.453 2.37135 25.2628C2.37135 25.2131 2.33152 25.1762 2.28174 25.1633C2.23196 25.1513 2.18218 25.1603 2.15232 25.2011C2.12298 25.2385 2.10254 25.2821 2.09258 25.3286C2.08063 25.4033 2.08262 25.4809 2.07764 25.5715ZM6.10978 21.4509C6.10281 21.3603 6.04307 21.3066 5.9704 21.3095C5.79018 21.3225 5.61744 21.3867 5.4726 21.4948C5.42183 21.5286 5.40889 21.5864 5.4278 21.6471C5.44373 21.6969 5.50446 21.7367 5.56718 21.7168C5.72889 21.6652 5.88832 21.6067 6.04506 21.5416C6.07891 21.5266 6.09584 21.4719 6.10978 21.452V21.4509ZM7.08047 33.6853C7.09043 33.5807 7.10039 33.504 7.10039 33.4284C7.10238 33.3796 7.08246 33.3357 7.0297 33.3168C6.97593 33.2969 6.90425 33.3128 6.87439 33.3557C6.85248 33.3865 6.82958 33.4204 6.82261 33.4562C6.79275 33.6066 6.79175 33.759 6.82361 33.9103C6.8313 33.9381 6.84738 33.9629 6.86965 33.9813C6.89192 33.9996 6.91929 34.0107 6.94806 34.0129C7.01078 34.0139 7.0745 33.9571 7.07948 33.8854C7.08446 33.8097 7.08047 33.7331 7.08047 33.6853V33.6853ZM11.4113 22.3113C11.5387 22.2814 11.6881 22.2516 11.8324 22.2068C11.8663 22.1968 11.8951 22.1371 11.9071 22.0972C11.921 22.0464 11.8692 21.9817 11.8155 21.9678C11.7886 21.9608 11.7577 21.9508 11.7319 21.9568C11.6115 21.983 11.492 22.0128 11.3735 22.0464C11.3376 22.0564 11.3077 22.0843 11.2789 22.1082C11.2281 22.153 11.243 22.2516 11.3058 22.2775C11.3316 22.2874 11.3595 22.2944 11.4113 22.3113V22.3113ZM12.3402 30.1363C12.2904 30.1771 12.2237 30.203 12.2117 30.2438C12.1906 30.322 12.1863 30.4039 12.1992 30.4839C12.2121 30.5639 12.2418 30.6402 12.2864 30.7078C12.3163 30.7596 12.3889 30.7865 12.4338 30.7676C12.4925 30.7417 12.5313 30.6899 12.5234 30.6342C12.5059 30.5027 12.4793 30.3726 12.4437 30.2448C12.4328 30.207 12.384 30.1801 12.3402 30.1363ZM1.97112 27.3221C1.9751 27.3729 1.97112 27.4426 1.99103 27.5034C2.00298 27.5422 2.04678 27.5771 2.08462 27.599C2.12643 27.6209 2.19911 27.5771 2.22201 27.5233C2.27975 27.3869 2.26581 27.2445 2.24291 27.1041C2.23495 27.0533 2.16526 27.0045 2.11647 27.0065C2.0657 27.0065 2.00098 27.0563 1.99202 27.1081C1.98207 27.1738 1.97908 27.2395 1.97112 27.3221V27.3221ZM8.14078 37.9005C8.14874 38.005 8.1567 38.0837 8.21843 38.1375C8.24431 38.1604 8.28912 38.1773 8.32098 38.1713C8.35184 38.1653 8.39665 38.1295 8.40162 38.1016C8.42651 37.9712 8.44244 37.8387 8.45538 37.7063C8.46036 37.6515 8.40859 37.5967 8.35383 37.5818C8.30505 37.5689 8.22739 37.5987 8.20947 37.6505C8.17961 37.7401 8.15969 37.8337 8.14078 37.9005V37.9005ZM10.0702 23.7751C10.0712 23.6935 10.0025 23.6188 9.94279 23.6238C9.80146 23.6358 9.66679 23.6892 9.55551 23.7771C9.53358 23.7953 9.51841 23.8203 9.51245 23.8481C9.50648 23.8759 9.51008 23.9049 9.52265 23.9305C9.54954 23.9823 9.60827 24.0201 9.66303 24.0012C9.77852 23.9633 9.89301 23.9215 10.0025 23.8677C10.0384 23.8508 10.0553 23.797 10.0702 23.7751V23.7751ZM16.9209 29.0399C16.9428 29.0967 16.9587 29.1624 16.9926 29.2171C17.0164 29.257 17.0682 29.2819 17.117 29.261C17.1489 29.247 17.1917 29.2161 17.1966 29.1873C17.2166 29.0568 17.2295 28.9244 17.2375 28.7919C17.2414 28.7382 17.1827 28.6844 17.1289 28.6744C17.0792 28.6655 17.0065 28.6993 16.9896 28.7521C16.9637 28.8437 16.9458 28.9363 16.9209 29.0399ZM21.4886 35.4628C21.4886 35.4777 21.4837 35.5275 21.4966 35.5713C21.5065 35.6032 21.5344 35.638 21.5633 35.6549C21.6081 35.6808 21.6629 35.6689 21.6927 35.6281C21.7421 35.5581 21.7749 35.4778 21.7887 35.3933C21.8025 35.3087 21.7969 35.2222 21.7724 35.1401C21.7634 35.1063 21.7067 35.0734 21.6658 35.0635C21.638 35.0555 21.5932 35.0814 21.5683 35.1053C21.5426 35.1327 21.5254 35.1669 21.5185 35.2039C21.5036 35.2785 21.4996 35.3552 21.4886 35.4628V35.4628ZM1.26226 29.7001C1.27221 29.6244 1.23538 29.5577 1.17664 29.5368C1.1179 29.5159 1.04522 29.5478 1.01137 29.6125C0.944521 29.7378 0.920731 29.8816 0.943668 30.0217C0.953623 30.0825 0.990462 30.1233 1.05119 30.1373C1.09998 30.1492 1.16369 30.1114 1.18062 30.0516C1.21248 29.9341 1.23637 29.8146 1.26226 29.7001ZM6.11077 19.1268C6.0142 19.1457 5.88079 19.1576 5.77127 19.2433C5.73045 19.2751 5.70656 19.3229 5.72846 19.3687C5.74738 19.4066 5.7882 19.4564 5.82404 19.4594C5.97836 19.4733 6.12272 19.4265 6.24916 19.3359C6.28898 19.307 6.29894 19.2562 6.28201 19.2064C6.26509 19.1547 6.22327 19.1367 6.17349 19.1298L6.10978 19.1268H6.11077ZM12.7683 31.2257C12.7643 31.1569 12.7643 31.1101 12.7583 31.0633C12.7532 31.0353 12.7391 31.0097 12.718 30.9904C12.697 30.9712 12.6702 30.9594 12.6418 30.9568C12.5841 30.9518 12.5224 30.9847 12.5044 31.0365C12.4634 31.163 12.4606 31.2987 12.4965 31.4268C12.5048 31.4541 12.521 31.4783 12.5432 31.4962C12.5654 31.5142 12.5925 31.525 12.6209 31.5274C12.6707 31.5304 12.7324 31.4856 12.7434 31.4288C12.7573 31.3551 12.7623 31.2794 12.7683 31.2257ZM6.61454 21.1253C6.72903 21.0915 6.86941 21.0925 6.97295 20.9959C6.99684 20.972 7.01775 20.9212 7.00879 20.8943C6.99485 20.8545 6.95802 20.8017 6.92218 20.7947C6.76388 20.7648 6.62251 20.8246 6.49706 20.9152C6.46918 20.9351 6.45923 21.0018 6.4662 21.0427C6.47018 21.0706 6.51597 21.0935 6.54584 21.1134C6.56077 21.1233 6.58268 21.1203 6.61454 21.1253V21.1253ZM4.3675 29.8614C4.38144 29.9222 4.38741 29.9789 4.40931 30.0307C4.41782 30.053 4.43407 30.0715 4.45508 30.0829C4.4761 30.0942 4.50049 30.0976 4.5238 30.0924C4.55666 30.0855 4.60345 30.0586 4.60843 30.0327C4.63829 29.8953 4.66418 29.7569 4.67513 29.6165C4.6821 29.5308 4.55666 29.478 4.48398 29.5318C4.45411 29.5527 4.42424 29.5836 4.41429 29.6165C4.39238 29.6971 4.38243 29.7818 4.3675 29.8614V29.8614ZM3.54714 28.1377L3.53718 28.1367V28.0511C3.53587 28.0323 3.5332 28.0137 3.52921 27.9953C3.51826 27.9366 3.47246 27.8888 3.41969 27.8808C3.36095 27.8718 3.28729 27.9226 3.27136 27.9893C3.2412 28.109 3.24188 28.2344 3.27335 28.3538C3.28629 28.4016 3.32412 28.4315 3.37589 28.4384C3.43065 28.4464 3.49934 28.4115 3.51229 28.3598C3.52921 28.2871 3.53618 28.2114 3.54714 28.1377V28.1377ZM19.0843 22.1271C18.9987 22.1629 18.8901 22.1998 18.7916 22.2526C18.7398 22.2794 18.7249 22.3422 18.7408 22.4039C18.7537 22.4557 18.7946 22.4975 18.8394 22.4935C18.9822 22.4845 19.1189 22.4324 19.2316 22.3442C19.2934 22.2944 19.2675 22.1839 19.1918 22.157C19.1659 22.147 19.138 22.142 19.0843 22.1271ZM6.36663 26.9388C6.38655 27.0443 6.40347 27.1568 6.43036 27.2674C6.44429 27.3241 6.51 27.357 6.56476 27.35C6.59311 27.3449 6.61912 27.331 6.63913 27.3103C6.65914 27.2895 6.67213 27.263 6.67627 27.2345C6.68927 27.1009 6.66803 26.9663 6.61454 26.8432C6.58766 26.7725 6.4652 26.7635 6.42239 26.8262C6.40148 26.8571 6.38854 26.894 6.36663 26.9388ZM8.35781 21.6362C8.20349 21.6531 8.08303 21.6999 7.99044 21.8055C7.97427 21.8226 7.96385 21.8444 7.96064 21.8678C7.95743 21.8912 7.96158 21.915 7.97252 21.9359C7.99542 21.9827 8.03624 22.0096 8.08602 22.0056C8.21866 21.9952 8.34212 21.9338 8.43049 21.8343C8.45638 21.8064 8.46534 21.7417 8.4504 21.7059C8.43746 21.672 8.3837 21.6541 8.35881 21.6362H8.35781ZM23.0726 31.1789C23.0756 31.157 23.0846 31.1211 23.0865 31.0833C23.0874 31.0551 23.0791 31.0274 23.063 31.0042C23.0468 30.9811 23.0237 30.9638 22.9969 30.9548C22.9312 30.9339 22.8576 30.9608 22.8327 31.0235C22.8067 31.0836 22.7889 31.1469 22.7799 31.2117C22.7758 31.2495 22.781 31.2877 22.7948 31.323C22.8087 31.3584 22.8309 31.3899 22.8595 31.4149C22.8879 31.4382 22.9234 31.4509 22.9601 31.4507C22.9839 31.4493 23.0066 31.4398 23.0242 31.4236C23.0418 31.4075 23.0533 31.3857 23.0567 31.3621C23.0666 31.3073 23.0666 31.2506 23.0716 31.1789H23.0726ZM2.34147 24.1346C2.33849 24.0818 2.33749 24.053 2.33451 24.0251C2.32754 23.9653 2.28273 23.9145 2.22997 23.9066C2.18019 23.8996 2.11647 23.9365 2.09457 23.9892C2.04578 24.0925 2.02847 24.2078 2.04479 24.3208C2.05475 24.3706 2.08561 24.4065 2.13539 24.4204C2.18815 24.4343 2.25984 24.4065 2.27875 24.3547C2.30763 24.276 2.32554 24.1934 2.34147 24.1356V24.1346ZM18.6651 32.566C18.6771 32.6317 18.6811 32.7094 18.7079 32.7781C18.7219 32.812 18.7776 32.8379 18.8185 32.8488C18.8682 32.8618 18.9101 32.8289 18.931 32.7821C18.9482 32.7488 18.9574 32.712 18.9578 32.6745C18.9508 32.5896 18.9388 32.5052 18.922 32.4216C18.912 32.3639 18.8533 32.329 18.7936 32.335C18.7428 32.3409 18.703 32.3648 18.69 32.4166C18.6781 32.4614 18.6741 32.5092 18.6651 32.566V32.566ZM21.853 22.9715C21.7377 22.9707 21.6258 23.0109 21.5374 23.0851C21.4996 23.1199 21.4876 23.1707 21.5115 23.2145C21.5275 23.2444 21.5653 23.2772 21.5962 23.2802C21.6617 23.2898 21.7284 23.2861 21.7926 23.2696C21.8567 23.253 21.9168 23.2238 21.9695 23.1836C22.0292 23.1358 22.0073 23.0203 21.9356 22.9944C21.9088 22.9845 21.8809 22.9795 21.853 22.9715V22.9715ZM0.98947 28.3628L0.992455 28.3966C0.997433 28.4514 1.04522 28.5131 1.09102 28.5231C1.11945 28.5265 1.14821 28.5204 1.17286 28.5058C1.19751 28.4913 1.21669 28.469 1.22741 28.4424C1.25728 28.3528 1.28217 28.2612 1.29909 28.1686C1.30806 28.1218 1.28416 28.076 1.23936 28.0491C1.19556 28.0222 1.11989 28.0371 1.08305 28.077C1.00539 28.1596 0.98947 28.2612 0.98947 28.3628V28.3628ZM5.66276 28.5908C5.66276 28.5749 5.66475 28.547 5.66276 28.5181C5.66182 28.4944 5.65396 28.4715 5.64016 28.4522C5.62636 28.4329 5.60723 28.4181 5.5851 28.4096C5.53532 28.3867 5.48952 28.4046 5.45368 28.4354C5.42431 28.4629 5.40134 28.4966 5.38639 28.5339C5.37144 28.5713 5.36486 28.6115 5.36714 28.6516C5.36942 28.6918 5.38049 28.731 5.39958 28.7664C5.41866 28.8019 5.44529 28.8327 5.47758 28.8567C5.53034 28.8945 5.62592 28.8636 5.63886 28.7999C5.65181 28.7352 5.6538 28.6695 5.66276 28.5908V28.5908ZM7.73956 31.0693C7.72164 31.0763 7.68978 31.0793 7.66987 31.0962C7.61755 31.1451 7.5819 31.2091 7.56797 31.2794C7.55403 31.3496 7.56251 31.4224 7.59221 31.4876C7.6161 31.5314 7.65791 31.5682 7.7057 31.5533C7.74652 31.5413 7.7973 31.5065 7.81124 31.4696C7.8431 31.382 7.86102 31.2874 7.87595 31.1938C7.88591 31.1321 7.81323 31.0653 7.73956 31.0693ZM3.9623 25.1712C3.94537 25.0746 3.93342 24.991 3.91649 24.9073C3.90941 24.8794 3.89323 24.8547 3.87051 24.837C3.84779 24.8194 3.81983 24.8098 3.79105 24.8098C3.75755 24.8107 3.72539 24.8231 3.69987 24.8448C3.67435 24.8666 3.657 24.8963 3.65067 24.9293C3.63839 24.9853 3.64143 25.0437 3.65947 25.0982C3.67751 25.1527 3.7099 25.2013 3.75322 25.2389C3.78308 25.2658 3.84482 25.2808 3.88165 25.2688C3.9165 25.2559 3.9374 25.2031 3.96129 25.1712H3.9623ZM13.0759 29.6095C13.0709 29.5597 13.0759 29.5069 13.056 29.4671C13.0381 29.4302 12.9943 29.3884 12.9564 29.3834C12.9196 29.3795 12.8609 29.4093 12.84 29.4422C12.7742 29.5458 12.7822 29.6593 12.836 29.7678C12.8579 29.8116 12.8977 29.8405 12.9515 29.8315C13.0012 29.8236 13.0411 29.7977 13.055 29.7479C13.0679 29.7021 13.0699 29.6543 13.0759 29.6095V29.6095ZM21.8789 34.6472C21.8918 34.7 21.8948 34.7617 21.9237 34.8065C21.9436 34.8384 21.9994 34.8603 22.0412 34.8633C22.0691 34.8653 22.1178 34.8304 22.1248 34.8035C22.1507 34.7139 22.1646 34.6203 22.1756 34.5267C22.1826 34.4729 22.1348 34.4162 22.082 34.4012C22.0173 34.3833 21.9386 34.4172 21.9177 34.4789C21.9008 34.5317 21.8918 34.5885 21.8789 34.6472V34.6472ZM13.9271 35.9965C13.9271 35.9358 13.9291 35.9168 13.9271 35.8979C13.9192 35.8481 13.8973 35.8073 13.8455 35.7914C13.7957 35.7764 13.7459 35.7854 13.7151 35.8232C13.6728 35.8693 13.6445 35.9264 13.6334 35.9879C13.6223 36.0494 13.6289 36.1128 13.6523 36.1708C13.6802 36.2435 13.8047 36.2604 13.8415 36.1937C13.8833 36.12 13.9092 36.0383 13.9271 35.9965ZM13.5926 31.3571C13.5827 31.3053 13.5787 31.2585 13.5647 31.2137C13.5418 31.142 13.4293 31.1161 13.3766 31.1669C13.3268 31.2181 13.2983 31.2863 13.297 31.3577C13.2957 31.4291 13.3217 31.4983 13.3696 31.5513C13.4224 31.6061 13.5369 31.5881 13.5608 31.5174C13.5777 31.4646 13.5827 31.4079 13.5926 31.3571V31.3571ZM12.5005 24.4204C12.406 24.4108 12.3113 24.4356 12.2336 24.4901C12.1878 24.518 12.1649 24.5937 12.1839 24.6415C12.2058 24.6933 12.2685 24.7381 12.3193 24.7311C12.4059 24.7201 12.4885 24.6972 12.5492 24.6295C12.5831 24.5927 12.607 24.5449 12.5821 24.5001C12.5622 24.4622 12.5194 24.4373 12.5005 24.4204ZM13.2531 37.8178C13.2422 37.779 13.2352 37.7421 13.2213 37.7073C13.1974 37.6475 13.0988 37.6246 13.052 37.6655C12.9594 37.7461 12.9355 37.9074 13.0082 38.001C13.0281 38.0279 13.0739 38.0568 13.1028 38.0518C13.1436 38.0449 13.1954 38.017 13.2153 37.9821C13.2412 37.9353 13.2412 37.8736 13.2531 37.8178ZM18.0021 37.1944C18.0001 37.1755 17.9991 37.1566 17.9961 37.1387C17.9928 37.1204 17.9881 37.1025 17.9822 37.0849C17.9733 37.058 17.9562 37.0345 17.9334 37.0178C17.9106 37.001 17.8831 36.9917 17.8547 36.9913C17.8218 36.9924 17.7904 37.0056 17.7665 37.0284C17.7426 37.0512 17.728 37.0819 17.7253 37.1148C17.723 37.1608 17.7297 37.2068 17.7452 37.2502C17.7691 37.3169 17.8338 37.3498 17.9015 37.3408C17.9652 37.3329 18.0041 37.2751 18.0011 37.1944H18.0021ZM18.8145 24.287C18.8977 24.2879 18.9783 24.2577 19.0405 24.2023C19.1002 24.1515 19.0803 24.045 19.0056 24.0131C18.915 23.9733 18.8254 23.9942 18.7488 24.0788C18.7169 24.1147 18.691 24.1625 18.7229 24.2083C18.7478 24.2432 18.7906 24.2671 18.8145 24.287V24.287ZM14.2368 34.9061C14.2099 34.8693 14.193 34.8245 14.1651 34.8145C14.1253 34.8006 14.0655 34.7966 14.0317 34.8175C13.955 34.8663 13.9251 34.9469 13.9381 35.0395C13.947 35.0963 13.9978 35.1461 14.0516 35.1501C14.1034 35.1551 14.1501 35.1361 14.1711 35.0923C14.2009 35.0346 14.2149 34.9698 14.2368 34.9061V34.9061ZM22.755 33.6245C22.7271 33.5937 22.6973 33.5399 22.6525 33.52C22.6206 33.506 22.5579 33.5279 22.528 33.5548C22.4583 33.6176 22.4484 33.7291 22.4902 33.8147C22.5191 33.8745 22.6097 33.8874 22.6594 33.8426C22.7202 33.7888 22.7431 33.7201 22.755 33.6245V33.6245ZM17.8199 28.0421C17.8249 27.9585 17.7721 27.8907 17.6934 27.8788C17.6228 27.8678 17.5471 27.9316 17.5381 28.0112C17.5262 28.1108 17.578 28.1905 17.6636 28.2044C17.7472 28.2174 17.8149 28.1487 17.8199 28.0421ZM17.2992 36.4108C17.334 36.4008 17.3549 36.3998 17.3689 36.3889C17.4 36.3673 17.4257 36.3388 17.444 36.3056C17.4623 36.2724 17.4727 36.2355 17.4744 36.1977C17.4764 36.1469 17.4575 36.0981 17.4087 36.0841C17.3679 36.0722 17.3121 36.0692 17.2763 36.0881C17.1837 36.1369 17.1578 36.2713 17.2205 36.359C17.2395 36.3859 17.2793 36.3978 17.3002 36.4108H17.2992ZM12.7673 22.0355C12.8589 22.0395 12.9415 21.9757 12.9485 21.8931C12.9544 21.8234 12.9047 21.7726 12.826 21.7676C12.7205 21.7606 12.6478 21.8154 12.6458 21.903C12.6438 21.9678 12.7026 22.0325 12.7673 22.0355V22.0355ZM19.144 31.5334C19.2416 31.5254 19.2764 31.4706 19.3003 31.4079C19.3078 31.3882 19.3102 31.367 19.3072 31.3462C19.3043 31.3254 19.2961 31.3057 19.2835 31.2889C19.2709 31.2721 19.2542 31.2588 19.235 31.2501C19.2159 31.2415 19.1948 31.2379 19.1739 31.2396C19.1455 31.2407 19.1181 31.2502 19.0951 31.2669C19.072 31.2835 19.0544 31.3066 19.0445 31.3332C19.0235 31.388 19.0245 31.4457 19.0664 31.4895C19.0903 31.5134 19.1281 31.5244 19.144 31.5334V31.5334Z" fill="black"/>
<path d="M27.4084 8.76072C27.4084 9.46773 27.4203 10.1767 27.4054 10.8847C27.3925 11.4872 27.3377 12.0887 27.3228 12.6911C27.3098 13.188 27.3278 13.6859 27.3337 14.1828C27.3347 14.2973 27.3467 14.4119 27.3467 14.5274C27.3487 15.0631 27.3487 15.5988 27.3487 16.1346C27.3487 16.1734 27.3497 16.2122 27.3427 16.2491C27.34 16.2684 27.3298 16.2859 27.3143 16.2978C27.2989 16.3097 27.2794 16.3151 27.2601 16.3128C27.2042 16.3082 27.1494 16.2948 27.0978 16.273C27.046 16.2501 27.0052 16.2053 26.9554 16.1764C26.821 16.0987 26.6537 16.1445 26.596 16.2919C26.5502 16.4064 26.5064 16.518 26.4437 16.6255C26.38 16.737 26.4526 16.8874 26.586 16.9203C26.6956 16.9461 26.813 16.9451 26.9255 16.9402C26.9634 16.9402 27.0052 16.8934 27.0331 16.8575C27.0679 16.8127 27.0918 16.7639 27.1525 16.741C27.3049 16.6843 27.3626 16.7101 27.3875 16.8675C27.4492 17.2479 27.4403 17.6303 27.4273 18.0126C27.4263 18.0644 27.3845 18.0963 27.3287 18.0883C27.2824 18.0819 27.2372 18.0692 27.1943 18.0505C27.1257 18.0186 27.0619 17.9758 26.9932 17.9429C26.9604 17.926 26.8867 17.9629 26.8718 17.9977C26.831 18.0943 26.8698 18.2297 26.9634 18.2666C27.0689 18.3104 27.1794 18.3442 27.2909 18.3681C27.4333 18.399 27.4353 18.394 27.4363 18.5314C27.4363 18.5892 27.4482 18.6519 27.4293 18.7027C27.3696 18.8631 27.4074 19.0244 27.4104 19.1847C27.4164 19.5392 27.4273 19.8927 27.4253 20.2472C27.4243 20.4653 27.3019 20.5728 27.0789 20.5639C26.8578 20.5559 26.6398 20.5669 26.4198 20.5758C26.2107 20.5858 26.0006 20.5539 25.7906 20.539C25.6671 20.529 25.5437 20.5021 25.4202 20.5071C24.6257 20.534 23.8322 20.4892 23.0388 20.4583C22.3794 20.4305 21.7247 20.3337 21.0854 20.1695C20.9928 20.1456 20.8992 20.1227 20.8106 20.0899C20.6314 20.0212 20.6464 20.0261 20.7081 19.8359C20.7429 19.7294 20.8355 19.6726 20.9271 19.6179C20.9401 19.6099 20.946 19.588 20.955 19.5711C20.9351 19.5611 20.9122 19.5392 20.8923 19.5412C20.721 19.5591 20.5498 19.578 20.3795 19.6009C20.3507 19.6034 20.3232 19.6139 20.3001 19.6314C20.277 19.6488 20.2593 19.6725 20.2491 19.6995C20.2131 19.7891 20.1506 19.8655 20.0699 19.9186C20.0261 19.9505 20.041 19.9763 20.0729 20.0052C20.0769 20.0082 20.0659 20.0351 20.055 20.0441C20.0023 20.0854 19.9377 20.1084 19.8708 20.1098C19.6518 20.1138 19.4327 20.1417 19.2117 20.1257C18.6203 20.0819 18.028 20.05 17.4356 20.0132C17.3311 20.0072 17.2265 19.9983 17.121 19.9963C16.5177 19.9873 15.9163 19.9365 15.316 19.8917C14.7052 19.8469 14.0939 19.8104 13.4821 19.7822C13.0988 19.7642 12.7245 19.6886 12.3471 19.6238C12.2904 19.6139 12.2346 19.596 12.1779 19.594C11.71 19.584 11.241 19.5701 10.7731 19.6139C10.564 19.6338 10.353 19.6438 10.1429 19.6537C9.92089 19.6637 9.70684 19.6019 9.49279 19.5561C9.18416 19.4914 8.87851 19.4167 8.57187 19.342C8.34487 19.2873 8.21345 19.1349 8.18856 18.8979C8.18086 18.8218 8.17788 18.7453 8.17961 18.6689C8.18147 18.3721 8.1494 18.0761 8.08403 17.7866C8.06312 17.687 8.07109 17.5775 8.07507 17.4739C8.07887 17.4068 8.09159 17.3405 8.1129 17.2768C8.18558 17.0517 8.17562 16.8326 8.11688 16.6016C8.02927 16.2551 8.05217 15.8976 8.07905 15.5441C8.08907 15.4115 8.079 15.2783 8.04918 15.1487C7.96459 14.7651 7.94107 14.3706 7.97949 13.9797C7.98546 13.914 7.99841 13.8472 7.99941 13.7805C8.00638 13.3314 8.01235 12.8813 8.01633 12.4322C8.01832 12.1454 8.02927 11.8576 8.01534 11.5708C8.00071 11.342 7.97278 11.1143 7.93171 10.8887C7.85264 10.4262 7.82227 9.95656 7.8411 9.48765C7.85305 9.22077 7.83215 8.95092 7.8889 8.68704C7.90283 8.62131 7.90681 8.55359 7.92573 8.48986C8.14078 7.76293 8.15372 7.01808 8.12883 6.27124C8.1191 6.10893 8.09409 5.94789 8.05416 5.79027C7.97981 5.48311 7.94964 5.16691 7.96456 4.85123C7.97451 4.67896 7.97452 4.5057 7.95859 4.33442C7.94067 4.14821 8.00637 3.97693 8.02429 3.79768C8.03086 3.76014 8.05021 3.72601 8.07905 3.70109C8.23237 3.56766 8.39465 3.45613 8.61667 3.48003C8.77079 3.49032 8.92453 3.455 9.05871 3.37846C9.28072 3.26494 9.50673 3.16934 9.7596 3.13946C9.87111 3.12751 9.98361 3.08569 10.0872 3.03789C10.4963 2.84869 10.9264 2.71526 11.3615 2.60572C11.9091 2.46631 12.4407 2.28209 12.9614 2.06301C13.1725 1.97339 13.3845 1.88576 13.5986 1.80411C13.8236 1.71946 14.0366 1.6169 14.2437 1.49442C14.4926 1.34804 14.7614 1.24846 15.0482 1.20365C15.4743 1.13693 15.8924 1.04232 16.2897 0.869053C16.439 0.804326 16.5883 0.737609 16.7307 0.659937C17.0941 0.465757 17.4704 0.302449 17.8657 0.186937C17.9772 0.154076 18.0857 0.122209 18.1713 0.0375661C18.2171 -0.00724461 18.2769 -0.00325913 18.3336 0.00570302C18.7677 0.073417 19.2077 0.0893485 19.6418 0.16005C19.8668 0.195898 20.0988 0.201876 20.3278 0.209843C21.1023 0.240712 21.8759 0.265606 22.6505 0.294484C22.7938 0.299463 22.9362 0.315397 23.0786 0.31938C23.1931 0.322368 23.3096 0.328341 23.4211 0.308425C23.6501 0.265606 23.8731 0.271576 24.1011 0.330328C24.5003 0.429908 24.9075 0.486671 25.3187 0.518536C25.4799 0.531482 25.6412 0.555382 25.8025 0.571315C26.0056 0.591231 26.2047 0.569324 26.3969 0.500614C26.599 0.426925 26.8011 0.406013 27.0151 0.445845C27.2123 0.48269 27.4144 0.495636 27.6155 0.470742C27.6443 0.466758 27.6742 0.460778 27.7011 0.466753C27.8903 0.506585 28.0804 0.462775 28.2686 0.470742C28.4597 0.478708 28.6499 0.497623 28.841 0.506586C29.0422 0.516544 29.2433 0.515552 29.4434 0.526506C30.0835 0.560363 30.7237 0.588245 31.3649 0.595216C31.6785 0.598203 31.9931 0.638029 32.3077 0.661928C32.3356 0.664915 32.3644 0.670889 32.3923 0.676864C32.4769 0.693793 32.4959 0.732632 32.464 0.822254C32.457 0.840178 32.4421 0.854122 32.4351 0.872046C32.4013 0.966647 32.4321 1.0234 32.5247 1.03436C32.6303 1.0463 32.7308 1.05527 32.8105 0.952699C32.8413 0.912868 32.91 0.891962 32.9638 0.885987C33.1442 0.868391 33.3252 0.856763 33.5064 0.851131C33.554 0.853437 33.6005 0.866008 33.6428 0.887978C33.8937 0.998511 33.8956 1.03336 33.7403 1.25443C33.6696 1.35566 33.5771 1.43972 33.4695 1.50039C33.3531 1.5681 33.2455 1.64876 33.132 1.71847C32.8712 1.8778 32.6113 2.04011 32.3455 2.19247C32.0468 2.36275 31.7551 2.54597 31.4744 2.74613C31.2255 2.92338 30.9706 3.09465 30.7137 3.25995C30.4985 3.40325 30.2669 3.52026 30.0238 3.60848C29.8237 3.67819 29.6435 3.78673 29.4673 3.90225C29.2761 4.02871 29.08 4.1492 28.8958 4.28662C28.5474 4.54353 28.1561 4.72278 27.7738 4.91795C27.731 4.93986 27.6822 4.95181 27.6453 4.9797C27.5707 5.03944 27.4861 5.03545 27.3994 5.03147L26.5392 4.99662L26.0524 4.96974C25.9001 4.96077 25.7468 4.94484 25.5944 4.94384C25.0767 4.93887 24.563 4.88709 24.0483 4.84427C23.3713 4.78751 22.6943 4.74767 22.0153 4.71381C21.5768 4.69058 21.1409 4.63129 20.7121 4.53656C20.3676 4.46188 20.0152 4.41807 19.6667 4.35832C19.593 4.34537 19.5203 4.32147 19.4467 4.30056L19.0624 4.19002C18.9827 4.16712 18.8901 4.18804 18.8284 4.11236C18.8892 4.06755 18.9519 4.02273 19.0116 3.97593C19.0265 3.96398 19.0803 3.94904 19.0385 3.92813C18.9041 3.85842 18.7677 3.78275 18.6054 3.84847C18.5307 3.87835 18.476 3.92415 18.473 3.9819C18.468 4.04364 18.5068 4.09642 18.5845 4.13127C18.6014 4.13825 18.6213 4.14024 18.6403 4.14522L18.695 4.16015C18.6821 4.16712 18.6701 4.17808 18.6572 4.18007C18.5952 4.18741 18.5359 4.20927 18.484 4.24388C18.4321 4.27849 18.3891 4.32486 18.3585 4.37923C18.3426 4.40512 18.2958 4.41906 18.2609 4.42404C18.2141 4.432 18.1654 4.42503 18.1176 4.42603C17.4573 4.42879 16.7971 4.40754 16.1383 4.3623C15.9193 4.34936 15.7003 4.32247 15.4813 4.30056C14.7873 4.23284 14.0934 4.15816 13.3975 4.09643C12.9983 4.06058 12.596 4.04663 12.1948 4.01875C11.8135 3.99186 11.4322 3.95801 11.0509 3.93013C10.8796 3.91818 10.7074 3.9122 10.5352 3.90623C10.1051 3.89129 9.67399 3.88034 9.24389 3.86241C9.1007 3.85504 8.95788 3.84175 8.81579 3.82258C8.74055 3.80802 8.66276 3.81421 8.59078 3.8405C8.52408 3.86838 8.47928 3.9132 8.46932 3.98689C8.46136 4.0556 8.51312 4.13824 8.59178 4.16214C8.6545 4.18206 8.72121 4.19202 8.78791 4.19501C8.90241 4.20198 9.01689 4.197 9.13238 4.20297C9.51369 4.22289 9.896 4.2428 10.2773 4.26969C10.4306 4.27965 10.5839 4.29259 10.7323 4.32645C11.1186 4.41507 11.5089 4.41408 11.9011 4.43101C12.4457 4.45391 12.9913 4.45292 13.5309 4.54453C13.6066 4.55748 13.6802 4.57838 13.7559 4.59033C13.8156 4.60029 13.8604 4.62718 13.8933 4.67996C13.9779 4.81439 14.1153 4.85721 14.2597 4.87912C14.401 4.89903 14.5444 4.91596 14.6878 4.92193C14.8311 4.92791 14.9715 4.93588 15.1109 4.98368C15.1806 5.00758 15.2662 5.01355 15.3369 4.99662C15.531 4.95082 15.7301 4.907 15.9104 4.82435C16.0026 4.77789 16.1064 4.75921 16.209 4.77057C16.6172 4.82036 17.0294 4.83431 17.4406 4.82734C17.5551 4.82634 17.6696 4.82335 17.785 4.81738C18.0638 4.80543 18.3366 4.8373 18.6104 4.89804C18.8991 4.96177 19.1918 5.00757 19.4855 5.04641C19.6946 5.07429 19.9047 5.06234 20.1147 5.0265C20.502 4.96077 20.8903 4.90999 21.2835 4.98169C21.3114 4.98667 21.3403 4.98467 21.3692 4.98666L23.0607 5.06035C23.2419 5.06832 23.4211 5.08724 23.5963 5.143C23.6759 5.16889 23.7655 5.17287 23.8502 5.17287C24.1678 5.17287 24.4794 5.22167 24.792 5.26051C25.0668 5.29436 25.3426 5.31826 25.6183 5.34913C25.7507 5.36307 25.8832 5.38299 26.0166 5.39892C26.4526 5.45369 26.8877 5.50647 27.3238 5.56522C27.3516 5.5692 27.3925 5.61003 27.3974 5.63891C27.4104 5.71259 27.4034 5.79127 27.4104 5.86794C27.4243 6.02727 27.3795 6.1856 27.4084 6.34991C27.4343 6.49928 27.4164 6.65562 27.4164 6.80797V8.76072H27.4084V8.76072ZM10.8269 11.4922C10.5212 11.3647 10.2136 11.4165 9.90595 11.4753C9.8273 11.4902 9.78848 11.544 9.78748 11.6147C9.78748 11.6913 9.84423 11.7541 9.93283 11.7571C10.0075 11.7591 10.0822 11.7461 10.1568 11.7401C10.2703 11.7312 10.3828 11.7202 10.4953 11.7152C10.5511 11.7142 10.6078 11.7312 10.6646 11.7332C10.795 11.7401 10.8368 11.6903 10.8279 11.539C10.8269 11.5201 10.8209 11.5021 10.8179 11.4832C10.9672 11.5559 11.0887 11.5091 11.1962 11.3996C11.2351 11.3617 11.247 11.2861 11.2211 11.2432C11.1942 11.1994 11.1514 11.1835 11.1017 11.1835C11.0262 11.1838 10.9533 11.2105 10.8956 11.2592C10.8179 11.3239 10.8309 11.4095 10.8259 11.4922H10.8269ZM25.5785 10.0254C25.5825 10.0921 25.5805 10.1598 25.5905 10.2255C25.6043 10.34 25.6486 10.4487 25.7189 10.5402C25.7571 10.5901 25.8127 10.6239 25.8746 10.635C25.9365 10.6461 26.0002 10.6336 26.0534 10.6C26.1407 10.5399 26.2069 10.454 26.2426 10.3543C26.2783 10.2545 26.2818 10.1461 26.2525 10.0443C26.1983 9.86872 26.2111 9.67926 26.2884 9.51254C26.3244 9.4244 26.3423 9.32993 26.3411 9.23472C26.3439 9.1011 26.3572 8.96792 26.381 8.8364C26.3969 8.74379 26.3989 8.64621 26.3919 8.55161C26.3881 8.50323 26.3696 8.45715 26.339 8.41946C26.3085 8.38177 26.2672 8.35424 26.2207 8.3405C26.1442 8.31127 26.0616 8.30224 25.9807 8.31427C25.8998 8.32631 25.8233 8.359 25.7587 8.4092C25.7237 8.43465 25.6947 8.46745 25.6737 8.50529C25.6528 8.54314 25.6403 8.58511 25.6372 8.62828C25.6273 8.75375 25.6253 8.88121 25.685 8.99374C25.7607 9.13514 25.7388 9.26758 25.689 9.40699C25.6152 9.60441 25.5777 9.81359 25.5785 10.0244V10.0254ZM23.4878 9.55238C23.5674 9.55835 23.5973 9.56433 23.6242 9.56234C23.7068 9.55238 23.7626 9.4747 23.7436 9.39902C23.7347 9.36664 23.7141 9.33871 23.6858 9.32068C23.6574 9.30265 23.6234 9.29579 23.5903 9.30144C23.5545 9.3094 23.5097 9.32035 23.4898 9.34625C23.443 9.40599 23.4002 9.39106 23.3424 9.36617C23.22 9.31638 23.0915 9.28053 22.9691 9.22974C22.8177 9.168 22.6724 9.18493 22.523 9.23571C22.3981 9.28274 22.2691 9.31841 22.1378 9.34226C21.8819 9.3801 21.6748 9.51155 21.4767 9.66291C21.3836 9.73287 21.3218 9.83657 21.3044 9.95169C21.2975 9.98853 21.2865 10.0264 21.2865 10.0642C21.2865 10.1877 21.2148 10.2534 21.1093 10.2972C20.9331 10.3709 20.7579 10.4466 20.5637 10.4556C20.496 10.4585 20.4293 10.4655 20.3776 10.5153C20.3407 10.5502 20.3208 10.593 20.3347 10.6438C20.3487 10.6906 20.3746 10.7304 20.4283 10.7414C20.4462 10.7453 20.4652 10.7493 20.4841 10.7503C20.7897 10.7633 21.0675 10.6687 21.3303 10.5283C21.395 10.4962 21.451 10.4491 21.4936 10.3909C21.5362 10.3326 21.5642 10.265 21.5752 10.1937C21.622 9.92182 21.8012 9.76349 22.0491 9.66988C22.1069 9.64798 22.1616 9.64498 22.2064 9.69477C22.2622 9.75751 22.3339 9.77544 22.4135 9.77046C22.5171 9.76349 22.6226 9.75652 22.7261 9.74158C22.8755 9.71967 23.0248 9.68681 23.1762 9.66589C23.2717 9.65195 23.3653 9.64598 23.438 9.5693C23.4589 9.54839 23.5027 9.54839 23.4878 9.55238V9.55238ZM11.4999 15.6337L11.4989 15.6267C11.3844 15.6267 11.2699 15.6247 11.1554 15.6267C11.1218 15.6274 11.0887 15.6359 11.0588 15.6514C11.029 15.6669 11.0031 15.6892 10.9832 15.7163C10.9394 15.7721 10.9553 15.8627 11.018 15.8886C11.0437 15.9011 11.0713 15.9088 11.0997 15.9115C11.3187 15.9165 11.5387 15.9255 11.7577 15.9225C11.9867 15.9195 12.2157 15.9055 12.4437 15.8966C12.4915 15.8946 12.5403 15.9016 12.5861 15.8936C12.7175 15.8697 12.8469 15.8358 12.9744 15.9115C12.9963 15.9245 13.0321 15.9215 13.059 15.9155C13.2262 15.8796 13.3935 15.8428 13.5598 15.803C13.6384 15.7841 13.7071 15.7382 13.729 15.6616C13.7629 15.5441 13.8435 15.5212 13.9461 15.5222C14.0038 15.5222 14.0605 15.5261 14.1173 15.5222C14.173 15.5192 14.2308 15.4654 14.2398 15.4176C14.2432 15.3891 14.2381 15.3601 14.2251 15.3345C14.2122 15.3088 14.192 15.2875 14.1671 15.2732C14.1257 15.2504 14.0805 15.2355 14.0337 15.2294C13.9481 15.2227 13.862 15.2247 13.7768 15.2354C13.6404 15.2553 13.518 15.3031 13.4622 15.4485C13.4493 15.4813 13.4204 15.5261 13.3925 15.5321C13.2561 15.558 13.1277 15.6347 12.9783 15.5839C12.9096 15.56 12.829 15.564 12.7553 15.564C12.603 15.568 12.4507 15.5779 12.2974 15.5849C12.1739 15.5909 12.0504 15.5949 11.926 15.6018C11.7836 15.6108 11.6423 15.6217 11.4999 15.6337V15.6337ZM23.9149 13.5027L23.9119 13.4868C23.8213 13.5087 23.7287 13.5296 23.6391 13.5565C23.5913 13.5694 23.5824 13.6062 23.6262 13.6361C23.7327 13.7058 23.7406 13.7875 23.7058 13.905C23.6895 13.9883 23.6929 14.0742 23.7158 14.1559C23.7357 14.2485 23.8064 14.3053 23.9029 14.3013C24.2016 14.2904 24.4913 14.3431 24.783 14.3889C25.019 14.4268 25.237 14.3581 25.4481 14.2695C25.5576 14.2236 25.5695 14.0494 25.468 13.9827C25.4052 13.9405 25.3331 13.9142 25.2579 13.906C25.097 13.8913 24.935 13.8917 24.7741 13.907C24.6708 13.9174 24.5667 13.9174 24.4634 13.907C24.2822 13.893 24.1508 13.8233 24.1369 13.6202C24.1359 13.6013 24.1309 13.5784 24.118 13.5664C24.0931 13.5403 24.0629 13.5199 24.0294 13.5067C23.9945 13.4957 23.9537 13.5037 23.9159 13.5037L23.9149 13.5027ZM12.4786 18.7904L12.1968 18.8521C12.1908 18.8541 12.1868 18.874 12.1868 18.886C12.1868 18.8899 12.2028 18.8959 12.2117 18.8959C12.2307 18.8989 12.2506 18.8959 12.2685 18.9009C12.3322 18.9148 12.3402 18.9278 12.3083 18.9656C12.2764 19.0015 12.2306 19.0303 12.2157 19.0712C12.2008 19.111 12.2018 19.1707 12.2237 19.2046C12.2456 19.2375 12.3033 19.2673 12.3432 19.2644C12.4069 19.2614 12.4696 19.2275 12.5343 19.2116C12.6448 19.1847 12.7553 19.1498 12.8678 19.1419C12.9574 19.1359 13.0371 19.1449 13.0918 19.0542C13.1018 19.0363 13.1416 19.0244 13.1655 19.0274C13.3616 19.0592 13.5309 18.9288 13.723 18.9357C13.7778 18.9377 13.8216 18.87 13.8236 18.8133C13.8276 18.7455 13.7788 18.6738 13.7111 18.6689C13.4881 18.6509 13.272 18.6609 13.1108 18.8501C13.0839 18.882 13.053 18.8899 13.0112 18.882C12.8419 18.8501 12.6737 18.8242 12.4786 18.7914V18.7904ZM22.313 17.6432C22.3369 17.6402 22.3956 17.6412 22.4484 17.6253C22.4826 17.6113 22.5103 17.585 22.526 17.5516C22.5479 17.5038 22.528 17.453 22.4862 17.4261C22.4419 17.3912 22.3895 17.3679 22.3339 17.3584C22.2825 17.3568 22.2321 17.3438 22.1863 17.3204C22.1405 17.297 22.1005 17.2637 22.0691 17.223C21.9675 17.1035 21.8222 17.0955 21.6758 17.1234C21.6571 17.1269 21.6394 17.1343 21.6238 17.1451C21.6082 17.156 21.5951 17.17 21.5853 17.1863C21.5756 17.2025 21.5693 17.2207 21.5671 17.2396C21.5648 17.2584 21.5666 17.2775 21.5723 17.2957C21.5932 17.3574 21.633 17.4132 21.6071 17.4819C21.6688 17.4948 21.7325 17.5048 21.7943 17.5187C21.8391 17.5287 21.8908 17.5347 21.9267 17.5605C22.0342 17.6382 22.1577 17.6362 22.313 17.6432V17.6432ZM14.6221 14.7056C14.5046 14.7255 14.3453 14.7504 14.186 14.7783C14.1681 14.7813 14.1511 14.7922 14.1342 14.8012C14.0824 14.8291 14.0486 14.8908 14.0566 14.9426C14.0613 14.9709 14.0752 14.9969 14.096 15.0167C14.1168 15.0364 14.1435 15.0489 14.1721 15.0521C14.2288 15.0581 14.2855 15.0551 14.3433 15.0581C14.408 15.0621 14.3911 15.085 14.3612 15.1228C14.3154 15.1806 14.3075 15.2453 14.3602 15.3041C14.408 15.3569 14.4986 15.3618 14.5713 15.322C14.6005 15.3057 14.6224 15.2791 14.6328 15.2473C14.6431 15.2155 14.641 15.181 14.627 15.1507C14.6171 15.1258 14.5872 15.1069 14.5812 15.081C14.5763 15.0611 14.5912 15.0253 14.6071 15.0173C14.641 15.0014 14.6808 15.0014 14.7166 14.9904C14.8331 14.9546 14.8958 14.8868 14.8739 14.8221C14.8481 14.7454 14.7794 14.7076 14.6221 14.7066V14.7056ZM19.0385 12.4681C19.0086 12.4173 18.9937 12.3695 18.9618 12.3386C18.9258 12.3083 18.8842 12.2853 18.8394 12.2709C18.6233 12.1892 18.3943 12.1713 18.1693 12.1325C18.1514 12.1295 18.1315 12.1355 18.1136 12.1394C18.0668 12.1494 18.0031 12.2191 18.014 12.2639C18.0246 12.3087 18.0473 12.3498 18.0797 12.3824C18.1036 12.4063 18.1494 12.4103 18.1853 12.4183C18.4083 12.4681 18.6373 12.488 18.8523 12.5716C18.8762 12.5816 18.914 12.5796 18.9349 12.5666C18.9718 12.5427 18.9997 12.5069 19.0385 12.4681V12.4681ZM18.3953 1.83497C18.3177 1.84493 18.1942 1.85887 18.0718 1.87879C18.0359 1.88476 17.9921 1.89572 17.9672 1.91962C17.9348 1.95283 17.9118 1.99407 17.9005 2.03911C17.8906 2.08392 17.9513 2.15662 18.0001 2.16458C18.0369 2.17155 18.0777 2.18051 18.1126 2.17155C18.3107 2.12375 18.5108 2.13172 18.7119 2.13571C18.7498 2.13768 18.7875 2.12979 18.8214 2.1128C18.8513 2.09488 18.8832 2.06002 18.8882 2.02816C18.8931 1.99629 18.8762 1.94352 18.8513 1.92759C18.7964 1.89048 18.7349 1.86412 18.6701 1.84991C18.5964 1.83497 18.5178 1.83995 18.3953 1.83497V1.83497ZM19.6388 12.9899C19.6309 12.951 19.6338 12.9182 19.6189 12.9002C19.589 12.8644 19.5542 12.8206 19.5144 12.8106C19.3053 12.7499 19.0932 12.6971 18.8812 12.6443C18.8553 12.6383 18.8244 12.6483 18.7976 12.6543C18.7498 12.6672 18.689 12.7399 18.703 12.7827C18.7195 12.8257 18.7453 12.8645 18.7786 12.8963C18.7956 12.9142 18.8294 12.9182 18.8573 12.9251C19.0325 12.967 19.2077 13.0098 19.384 13.0496C19.4288 13.0596 19.4795 13.0715 19.5233 13.0616C19.5632 13.0516 19.599 13.0157 19.6388 12.9899V12.9899ZM24.8358 18.7854C25.1862 18.7923 25.1872 18.7924 25.2868 18.4946C25.3054 18.4415 25.3178 18.3863 25.3236 18.3303C25.3256 18.3124 25.2977 18.2775 25.2778 18.2725C25.1763 18.2496 25.0618 18.2307 24.9782 18.2915C24.9294 18.3273 24.9174 18.4239 24.9045 18.4966C24.8846 18.6101 24.8278 18.6858 24.7183 18.7236C24.7014 18.7296 24.6825 18.7336 24.6656 18.7416C24.6576 18.7455 24.6536 18.7555 24.6476 18.7635C24.6556 18.7655 24.6636 18.7704 24.6725 18.7714L24.8358 18.7854V18.7854ZM24.3709 1.25144C24.4465 1.23949 24.569 1.22356 24.6894 1.19667C24.7193 1.1897 24.7631 1.14389 24.7611 1.11999C24.7581 1.07817 24.7332 1.01842 24.6994 1.00249C24.6093 0.958337 24.5113 0.932598 24.4111 0.926785C24.3109 0.920971 24.2106 0.935203 24.116 0.968638C24.0572 0.988554 24.0264 1.03834 24.0274 1.10207C24.0284 1.16879 24.0782 1.22655 24.1518 1.2375C24.2076 1.24547 24.2653 1.24547 24.3709 1.25144V1.25144ZM16.5027 14.0006C16.5226 13.9966 16.5545 13.9966 16.5764 13.9817C16.6063 13.9617 16.6421 13.9339 16.6491 13.904C16.651 13.8859 16.6488 13.8676 16.6425 13.8506C16.6363 13.8335 16.6263 13.818 16.6132 13.8054C16.5625 13.7639 16.5058 13.7304 16.445 13.7058C16.1871 13.6033 16.0537 13.6401 15.8785 13.8542L15.8606 13.8761C15.8277 13.9169 15.8357 13.9488 15.8835 13.9538C15.984 13.9637 16.0806 13.9916 16.1891 13.9707C16.2857 13.9518 16.3922 13.9886 16.5027 14.0006V14.0006ZM13.8087 5.64289C13.7718 5.64986 13.6962 5.65882 13.6235 5.67774C13.5906 5.68516 13.5617 5.70457 13.5423 5.73219C13.523 5.75982 13.5147 5.79367 13.5189 5.82711C13.5249 5.87989 13.5717 5.94063 13.6285 5.94262C13.7977 5.9486 13.969 5.95059 14.1392 5.94561C14.185 5.94461 14.2248 5.90479 14.2338 5.85201C14.2437 5.79824 14.2119 5.76239 14.1721 5.7345C14.0745 5.66878 13.963 5.64886 13.8087 5.64289V5.64289ZM27.054 3.16535C27.1087 3.16137 27.2053 3.16337 27.2979 3.14445C27.3357 3.13648 27.3726 3.08967 27.3955 3.05084C27.4184 3.012 27.3736 2.93931 27.3208 2.91143C27.2959 2.89848 27.269 2.88156 27.2421 2.87957C27.0998 2.87459 26.9564 2.8696 26.813 2.87458C26.7712 2.87657 26.7254 2.90745 26.6906 2.93632C26.6239 2.9901 26.6498 3.11855 26.7294 3.14743C26.7553 3.15739 26.7842 3.16336 26.813 3.16436C26.8797 3.16635 26.9464 3.16436 27.054 3.16436V3.16535ZM22.1119 12.004C21.9551 12.0131 21.8075 12.081 21.6987 12.1942C21.6774 12.2199 21.6653 12.2521 21.6644 12.2855C21.6635 12.3189 21.6738 12.3516 21.6937 12.3784C21.7355 12.4282 21.7953 12.4392 21.848 12.4133C21.9834 12.3456 22.1268 12.3028 22.2702 12.257C22.3578 12.2291 22.4414 12.1225 22.4135 12.1026C22.3697 12.0727 22.316 12.0568 22.2642 12.0409C22.2104 12.0239 22.1547 12.014 22.1119 12.004ZM12.9754 3.07474C12.9096 3.08769 12.823 3.09465 12.7444 3.12453C12.7095 3.13847 12.6797 3.19324 12.6687 3.23406C12.6568 3.28485 12.6986 3.32169 12.7424 3.3436C12.7679 3.35655 12.795 3.36593 12.823 3.37148C12.9455 3.39339 13.0669 3.41132 13.1894 3.43124C13.29 3.44916 13.3188 3.42924 13.3407 3.32269C13.3686 3.19224 13.3248 3.11955 13.1954 3.09664C13.1297 3.08569 13.062 3.0837 12.9754 3.07474ZM22.6206 0.959674C22.755 0.975606 22.8247 0.976601 22.8715 0.919841C22.9282 0.84914 23.0009 0.853122 23.0786 0.852126C23.0995 0.852126 23.1433 0.855114 23.1254 0.810303C23.1145 0.785022 23.0941 0.765011 23.0686 0.754539C22.9591 0.723669 22.8486 0.697779 22.7381 0.670893C22.6266 0.644006 22.5121 0.620104 22.4046 0.676864C22.3656 0.701443 22.3359 0.738201 22.3199 0.781426C22.303 0.825241 22.3548 0.898926 22.4076 0.912867C22.4992 0.936766 22.5927 0.952703 22.6206 0.959674ZM16.5007 9.81925C16.4231 9.82422 16.3713 9.81626 16.3305 9.83319C16.2803 9.85327 16.2364 9.88625 16.2031 9.92878C16.1802 9.95866 16.2528 10.0682 16.2996 10.0881C16.3163 10.0968 16.334 10.1031 16.3524 10.107C16.4549 10.123 16.5575 10.1419 16.661 10.1508C16.7077 10.153 16.7544 10.1459 16.7984 10.1299C16.8552 10.111 16.895 10.0702 16.898 10.0065C16.8984 9.97802 16.8895 9.95023 16.8726 9.92737C16.8557 9.90451 16.8317 9.88787 16.8044 9.87999C16.6949 9.85311 16.5824 9.83518 16.5007 9.81925V9.81925ZM9.12342 6.99917C9.06568 7.00713 9.00495 7.00414 8.95418 7.02405C8.89247 7.04819 8.83601 7.08403 8.78791 7.12961C8.7451 7.17044 8.7441 7.23317 8.77297 7.28893C8.79786 7.33574 8.84565 7.3676 8.89046 7.35267C9.04577 7.2989 9.20706 7.30288 9.36834 7.29193C9.445 7.28595 9.48681 7.17243 9.43006 7.11567C9.39078 7.07492 9.34327 7.043 9.29068 7.02206C9.23991 7.00215 9.17918 7.00614 9.12442 6.99917H9.12342ZM12.0544 16.2361C11.936 16.2431 11.8304 16.2571 11.7448 16.3228C11.6996 16.3563 11.6647 16.4018 11.6443 16.4542C11.6323 16.4911 11.6472 16.5538 11.6741 16.5827C11.701 16.6116 11.7637 16.6345 11.7996 16.6225C11.934 16.5777 12.0634 16.517 12.1948 16.4632C12.2476 16.4413 12.3013 16.4243 12.3521 16.4004C12.3611 16.3965 12.3651 16.3586 12.3581 16.3517C12.2723 16.2815 12.1661 16.241 12.0554 16.2361H12.0544ZM16.8283 16.738C16.888 16.7311 17.0005 16.7181 17.112 16.7032C17.1584 16.6981 17.2041 16.6881 17.2484 16.6733C17.2982 16.6564 17.3251 16.5877 17.3141 16.5299C17.3106 16.5064 17.3002 16.4843 17.2843 16.4666C17.2684 16.4489 17.2476 16.4363 17.2245 16.4303C17.1668 16.4134 17.0901 16.4084 17.0652 16.4562C16.9945 16.6006 16.886 16.5558 16.7765 16.5359C16.739 16.531 16.701 16.5324 16.664 16.5399C16.6402 16.5422 16.6177 16.5513 16.599 16.5662C16.5802 16.581 16.5662 16.6009 16.5585 16.6235C16.5485 16.6504 16.5416 16.6783 16.5336 16.7052C16.5117 16.7848 16.5415 16.8207 16.6122 16.8018C16.667 16.7868 16.7218 16.7699 16.8283 16.738V16.738ZM16.8054 1.90667L17.1399 1.94153C17.1757 1.94551 17.2096 1.89173 17.1927 1.86186C17.1777 1.83697 17.1608 1.81506 17.1449 1.79116C17.0865 1.70413 16.9982 1.6415 16.8968 1.61509C16.7953 1.58867 16.6878 1.6003 16.5943 1.64777C16.578 1.65704 16.5629 1.66842 16.5495 1.68162C16.5117 1.71648 16.4898 1.79913 16.5197 1.83996C16.5475 1.87381 16.5893 1.90269 16.6312 1.91763C16.663 1.92858 16.7048 1.91464 16.8054 1.90767V1.90667ZM30.9497 1.11601C30.9666 1.119 31.0144 1.13393 31.0602 1.13095C31.1438 1.12398 31.2285 1.11103 31.3111 1.09211C31.3698 1.07916 31.3927 1.01245 31.3818 0.925812C31.3738 0.862082 31.3211 0.858099 31.2763 0.856107C31.1807 0.854116 31.0861 0.862081 30.9915 0.857102C30.9204 0.852889 30.8495 0.867079 30.7855 0.898303C30.7215 0.929526 30.6666 0.976728 30.6261 1.03535C30.6162 1.0473 30.6072 1.07419 30.6122 1.07817C30.6271 1.08983 30.6451 1.09677 30.664 1.09809C30.7486 1.10506 30.8342 1.10904 30.9497 1.11601V1.11601ZM15.769 9.55039C15.8486 9.54142 15.9342 9.53943 16.0179 9.52151C16.0477 9.51553 16.0826 9.47769 16.0945 9.44582C16.1115 9.39902 16.0886 9.35322 16.0487 9.32035C16.0343 9.30812 16.0182 9.29806 16.0009 9.29048C15.8536 9.23073 15.7023 9.24468 15.5509 9.27057C15.5325 9.27587 15.516 9.28621 15.5032 9.30044C15.4693 9.3333 15.4275 9.37015 15.4504 9.42193C15.4683 9.46176 15.5002 9.51354 15.537 9.52449C15.6077 9.54541 15.6863 9.54242 15.769 9.54939V9.55039ZM24.1767 7.42038L24.1787 7.40445C24.2733 7.40445 24.3679 7.41043 24.4624 7.40246C24.5162 7.39649 24.569 7.3696 24.6208 7.34869C24.6327 7.34271 24.6436 7.31882 24.6427 7.30288C24.6417 7.28795 24.6277 7.26304 24.6158 7.26006C24.4236 7.20927 24.2295 7.17044 24.0294 7.21326C23.9476 7.23169 23.8669 7.25429 23.7874 7.28097C23.7725 7.28496 23.7556 7.30885 23.7556 7.32379C23.7556 7.33773 23.7745 7.36362 23.7874 7.36462C23.9169 7.38453 24.0473 7.40246 24.1767 7.42038V7.42038ZM15.8904 2.42946C15.98 2.40855 16.0647 2.39561 16.1423 2.36773C16.1871 2.35279 16.213 2.30698 16.21 2.25321C16.207 2.22495 16.1958 2.1982 16.1777 2.17625C16.1597 2.15431 16.1356 2.13813 16.1085 2.12973C16.0985 2.12774 16.0896 2.12475 16.0806 2.12475C15.9578 2.12596 15.835 2.12762 15.7122 2.12973C15.7023 2.12973 15.6903 2.13172 15.6843 2.1377C15.6545 2.17155 15.6087 2.20342 15.6037 2.24126C15.5977 2.2791 15.6236 2.34482 15.6535 2.35976C15.7272 2.39561 15.8118 2.40756 15.8904 2.42946V2.42946ZM16.1821 6.59886H16.1363C16.0627 6.60284 16.0069 6.65063 16 6.71636C15.9965 6.74935 16.0046 6.78253 16.023 6.81017C16.0413 6.8378 16.0687 6.85816 16.1005 6.86772C16.1801 6.89162 16.2648 6.91353 16.3474 6.91751C16.4123 6.91759 16.4765 6.90508 16.5366 6.88066C16.5535 6.8736 16.5687 6.86303 16.5813 6.84964C16.5938 6.83624 16.6033 6.82035 16.6092 6.80299C16.6222 6.7532 16.5834 6.71635 16.5425 6.69046C16.4328 6.62812 16.3083 6.59648 16.1821 6.59886V6.59886ZM28.8142 2.46332C28.8829 2.45137 28.9665 2.44042 29.0481 2.4225C29.0969 2.41055 29.1377 2.3727 29.1347 2.32291C29.1318 2.28208 29.1099 2.22533 29.077 2.20541C28.9277 2.1138 28.7724 2.12376 28.62 2.20442C28.5752 2.22831 28.5444 2.303 28.5673 2.35279C28.5872 2.3934 28.6197 2.42654 28.6599 2.44739C28.6997 2.46531 28.7514 2.45735 28.8142 2.46332V2.46332ZM20.2979 13.4429C20.4174 13.439 20.4711 13.4031 20.4781 13.3503C20.4861 13.2906 20.4701 13.2388 20.4164 13.204C20.4084 13.199 20.4014 13.191 20.3925 13.189C20.283 13.1641 20.1735 13.1352 20.0639 13.1183C20.0301 13.1123 19.9913 13.1332 19.9574 13.1482C19.9076 13.1681 19.8907 13.2119 19.8907 13.2617C19.8907 13.3125 19.9136 13.3583 19.9634 13.3712C20.0908 13.4021 20.2203 13.426 20.2979 13.4429ZM12.4706 8.45501C12.5522 8.44804 12.6398 8.45003 12.7215 8.42912C12.7573 8.42016 12.7942 8.37037 12.8081 8.33054C12.8171 8.30465 12.7902 8.26084 12.7703 8.23096C12.754 8.20757 12.7306 8.1901 12.7036 8.18117C12.5767 8.13846 12.4388 8.14199 12.3143 8.19113C12.2974 8.19909 12.2764 8.21104 12.2705 8.22697C12.2516 8.2678 12.2257 8.31361 12.2297 8.35444C12.2336 8.40025 12.2725 8.44007 12.3252 8.44704C12.372 8.45302 12.4198 8.45302 12.4706 8.45501V8.45501ZM17.4983 16.0211C17.6735 16.0201 17.8109 15.9514 17.9623 15.796C17.9722 15.786 17.9623 15.7382 17.9503 15.7333C17.9095 15.7134 17.8607 15.6904 17.8179 15.6944C17.7057 15.7083 17.5943 15.7286 17.4844 15.7552C17.4187 15.7701 17.3679 15.8508 17.3699 15.9344C17.3699 15.9573 17.3918 15.9892 17.4127 16.0001C17.4445 16.0161 17.4844 16.0181 17.4993 16.0211H17.4983ZM20.1665 3.83851C20.2491 3.81461 20.3328 3.79769 20.4094 3.76582C20.4721 3.74093 20.4741 3.63338 20.4164 3.59654C20.3488 3.55251 20.2715 3.5256 20.1912 3.51814C20.1109 3.51068 20.03 3.52289 19.9554 3.55371C19.9455 3.5567 19.9335 3.56068 19.9305 3.56765C19.9136 3.60848 19.8857 3.65131 19.8857 3.69313C19.8857 3.723 19.9156 3.7708 19.9435 3.78175C20.0132 3.80864 20.0888 3.81959 20.1665 3.83851V3.83851ZM19.8798 8.5038C19.8778 8.5038 19.8111 8.50978 19.7473 8.52372C19.6916 8.53667 19.6577 8.59741 19.6617 8.65715C19.6657 8.71889 19.7045 8.77366 19.7593 8.78163C19.8628 8.79856 19.9664 8.8115 20.0699 8.82047C20.1257 8.82545 20.1854 8.77964 20.2003 8.72786C20.2183 8.66712 20.1974 8.61434 20.1555 8.57251C20.0978 8.51476 20.0221 8.50181 19.8798 8.50281V8.5038ZM19.6219 13.9588L19.5781 13.9618C19.5054 13.9667 19.4457 14.0175 19.4417 14.0793C19.4367 14.146 19.4765 14.1888 19.5313 14.2087C19.6269 14.2436 19.7254 14.2734 19.826 14.2963C19.8585 14.3028 19.8922 14.2975 19.9211 14.2812C19.95 14.265 19.972 14.2389 19.9833 14.2077C19.9972 14.1609 19.9714 14.0902 19.9236 14.0603C19.8341 14.0006 19.7303 13.9655 19.6229 13.9588H19.6219ZM28.4797 2.91441L28.3771 2.94728C28.389 2.98014 28.4129 3.01499 28.41 3.04686C28.404 3.1086 28.411 3.16635 28.4647 3.19623C28.5852 3.26593 28.7126 3.28585 28.841 3.21116C28.9097 3.17133 28.9167 3.06478 28.853 3.01898C28.7438 2.94322 28.6123 2.90639 28.4797 2.91441V2.91441ZM15.6963 3.60948C15.6196 3.61744 15.533 3.58359 15.4882 3.66923C15.4255 3.78972 15.4424 3.88631 15.538 3.97792C15.5649 4.00381 15.5977 4.02373 15.6306 4.04265C15.651 4.05491 15.6746 4.0608 15.6984 4.05956C15.7221 4.05831 15.745 4.05 15.764 4.03568C15.7884 4.02043 15.8071 3.99746 15.817 3.9704C15.8269 3.94335 15.8276 3.91375 15.8188 3.88631C15.805 3.84169 15.7823 3.80035 15.752 3.76483C15.7112 3.71404 15.7222 3.68516 15.7789 3.66425C15.7819 3.66325 15.7789 3.62741 15.774 3.62542C15.7471 3.61546 15.7192 3.61346 15.6973 3.60948H15.6963ZM21.4866 14.0793C21.5444 14.0743 21.5922 14.0743 21.638 14.0653C21.6614 14.0617 21.683 14.0507 21.6997 14.0338C21.7164 14.0169 21.7272 13.9952 21.7306 13.9717C21.7356 13.9485 21.7332 13.9243 21.7237 13.9025C21.7143 13.8807 21.6982 13.8624 21.6778 13.8502C21.5593 13.7726 21.4289 13.7755 21.2965 13.8004C21.2457 13.8114 21.2019 13.8761 21.2039 13.9299C21.2049 13.9817 21.2487 14.0424 21.3025 14.0534C21.3662 14.0673 21.4319 14.0723 21.4866 14.0793V14.0793ZM25.1165 16.4054L24.7552 16.518C24.7492 16.519 24.7432 16.5339 24.7452 16.5379C24.7532 16.5528 24.7631 16.5757 24.7751 16.5777C24.9314 16.6036 25.0887 16.6295 25.246 16.6504C25.3296 16.6623 25.3854 16.6335 25.3824 16.5906C25.3809 16.5625 25.3717 16.5353 25.3557 16.5121C25.3397 16.4889 25.3176 16.4706 25.2918 16.4592C25.242 16.4353 25.1862 16.4263 25.1165 16.4054V16.4054ZM9.29267 13.2697V13.2747C9.34046 13.2717 9.38825 13.2727 9.43404 13.2647C9.4888 13.2547 9.51369 13.2109 9.5117 13.1611C9.51131 13.1233 9.50027 13.0864 9.47985 13.0546C9.41016 12.96 9.23891 12.9371 9.14532 13.0068C9.09554 13.0446 9.08261 13.1004 9.09256 13.1611C9.09702 13.1893 9.11066 13.2152 9.13136 13.2349C9.15207 13.2545 9.17868 13.2667 9.20705 13.2697C9.23592 13.2727 9.2648 13.2697 9.29267 13.2697V13.2697ZM21.1063 2.57386C21.1471 2.56091 21.2109 2.54199 21.2726 2.52108C21.3094 2.50813 21.2975 2.48025 21.2885 2.45436C21.2437 2.32092 21.185 2.2781 21.0635 2.29304C21.0305 2.2963 20.9997 2.31122 20.9767 2.33513C20.9538 2.35905 20.94 2.39038 20.9381 2.42349C20.9361 2.49419 21.0097 2.56987 21.1063 2.57286V2.57386ZM9.16325 14.8291C9.17619 14.7604 9.13736 14.7076 9.05771 14.6887C8.96114 14.6648 8.87552 14.7146 8.86656 14.8002C8.86163 14.833 8.86969 14.8665 8.88903 14.8934C8.90836 14.9204 8.93745 14.9387 8.9701 14.9446C9.06867 14.9625 9.14533 14.9167 9.16325 14.8291V14.8291ZM12.1052 11.2671C12.0793 11.2771 12.0086 11.302 11.9399 11.3309C11.928 11.3358 11.918 11.3617 11.92 11.3777C11.921 11.3926 11.935 11.4155 11.9479 11.4195C12.0116 11.4394 12.0753 11.4563 12.1411 11.4693C12.2336 11.4862 12.3153 11.4324 12.3073 11.3637C12.3013 11.304 12.2396 11.2641 12.1052 11.2671V11.2671ZM23.2538 13.7516C23.2484 13.7188 23.2321 13.6886 23.2075 13.6661C23.183 13.6435 23.1516 13.6298 23.1184 13.6272C23.0408 13.6252 22.981 13.7048 22.9969 13.7865C23.0109 13.8562 23.0736 13.903 23.1413 13.894C23.206 13.8861 23.2608 13.8144 23.2548 13.7516H23.2538ZM28.5454 1.21759C28.619 1.21759 28.6579 1.22256 28.6947 1.21658C28.7146 1.2126 28.7315 1.1907 28.7495 1.17676C28.7365 1.16282 28.7256 1.14589 28.7096 1.13792C28.65 1.10875 28.5845 1.09384 28.5181 1.09436C28.4518 1.09488 28.3865 1.11081 28.3273 1.14091C28.3214 1.14389 28.3194 1.15784 28.3194 1.1668C28.3184 1.17377 28.3223 1.18671 28.3263 1.18671C28.411 1.19966 28.4956 1.21161 28.5454 1.21759V1.21759ZM9.3554 14.6558C9.33748 14.6578 9.29068 14.6628 9.24588 14.6747C9.23493 14.6777 9.22199 14.7026 9.22298 14.7176C9.22298 14.7315 9.23792 14.7544 9.24986 14.7564C9.29562 14.7666 9.34237 14.7716 9.38924 14.7713C9.444 14.7693 9.50274 14.7733 9.54057 14.7166C9.56646 14.6787 9.50474 14.6548 9.3554 14.6558ZM12.6568 11.4155C12.6588 11.3627 12.6229 11.3239 12.5692 11.3309C12.5562 11.3337 12.544 11.3394 12.5335 11.3474C12.523 11.3555 12.5145 11.3659 12.5084 11.3777C12.4915 11.4185 12.5333 11.4733 12.5791 11.4812C12.613 11.4862 12.6558 11.4514 12.6568 11.4155ZM38.3708 24.0063C38.336 24.1746 38.3718 24.3708 38.4077 24.568C38.4345 24.7173 38.4355 24.8717 38.4495 25.024C38.4554 25.0808 38.4584 25.1385 38.4744 25.1923C38.4883 25.2401 38.5321 25.268 38.5839 25.27C38.6366 25.272 38.6814 25.2461 38.6984 25.2003C38.7175 25.1465 38.7282 25.09 38.7302 25.033C38.7382 24.8318 38.7452 24.6307 38.7452 24.4295C38.7452 24.1985 38.7671 23.9715 38.8308 23.7494C38.8547 23.6668 38.8816 23.5831 38.8885 23.4975C38.9045 23.2834 39.009 23.129 39.1633 22.9836C39.679 22.4987 40.1868 22.0058 40.6955 21.5139C40.8259 21.3874 40.9474 21.251 41.0778 21.1245L45.0443 17.2568C45.092 17.21 45.1448 17.1682 45.1976 17.1284C45.2055 17.1224 45.2344 17.1344 45.2454 17.1453C45.2572 17.1604 45.2638 17.1789 45.2643 17.1981C45.2732 17.4948 45.2902 17.7896 45.3758 18.0784C45.3957 18.1481 45.3808 18.2297 45.3738 18.3054C45.3419 18.7057 45.3071 19.106 45.2742 19.5063L45.1577 20.8785C45.1528 20.9263 45.1518 20.9781 45.1299 21.0179C45.0552 21.1504 45.0612 21.2928 45.0522 21.4362C45.0413 21.6164 45.0124 21.7967 44.9915 21.9769C44.987 22.0444 44.9584 22.108 44.9108 22.1561C44.8805 22.1869 44.8568 22.2235 44.841 22.2637C44.8253 22.304 44.8179 22.347 44.8192 22.3901C44.8173 22.5136 44.8192 22.6381 44.8202 22.7616C44.9208 22.8831 44.8461 22.9687 44.7655 23.0593C44.6769 23.1589 44.6609 23.2585 44.7018 23.3999C44.7476 23.5532 44.7605 23.7136 44.8601 23.851C44.885 23.8848 44.8879 23.9406 44.885 23.9864C44.8611 24.33 44.8372 24.6735 44.8043 25.0171C44.7906 25.0919 44.7614 25.1631 44.7187 25.2262C44.6619 25.3257 44.5893 25.4154 44.5345 25.5159C44.4993 25.583 44.4751 25.6553 44.4628 25.73C44.4449 25.8456 44.5036 25.8934 44.6321 25.8824C44.6958 25.8774 44.7187 25.8934 44.7167 25.9501C44.7127 26.0557 44.7097 26.1612 44.7008 26.2658L44.5494 27.9805C44.5275 28.2285 44.5056 28.4754 44.4857 28.7234L44.3533 30.3824C44.3314 30.6493 44.3045 30.9161 44.2866 31.183C44.2737 31.3901 44.197 31.5694 44.0865 31.7426C43.6259 32.4815 43.1171 33.189 42.5632 33.8607C41.4502 35.1881 40.3939 36.5603 39.3306 37.9275C39.1195 38.1994 38.9035 38.4682 38.6964 38.7441C38.565 38.9193 38.4455 39.1045 38.32 39.2858C38.2603 39.3724 38.2016 39.4591 38.1 39.5049C38.0542 39.5258 37.9955 39.4969 37.9955 39.4481C37.9955 39.3336 37.9965 39.2181 38.0024 39.1036C38.0124 38.9034 38.0293 38.7032 38.0403 38.5031L38.113 37.0124L38.2275 34.8635L38.3429 32.6867L38.4574 30.5387C38.4963 29.8128 38.5331 29.0869 38.5739 28.3609C38.5988 27.9128 38.6307 27.4647 38.6576 27.0166C38.6596 26.969 38.6546 26.9213 38.6426 26.8752C38.6345 26.8476 38.6179 26.8232 38.5953 26.8056C38.5726 26.7879 38.5449 26.7778 38.5162 26.7766C38.4624 26.7766 38.4007 26.8224 38.3887 26.8762C38.3808 26.9133 38.3758 26.9509 38.3738 26.9887C38.3539 27.3522 38.337 27.7147 38.3161 28.0781C38.2882 28.5551 38.2563 29.0321 38.2285 29.5091C38.2205 29.6525 38.2205 29.7959 38.2135 29.9393C38.1577 31.1432 38.0956 32.3468 38.0273 33.55C38.0005 34.018 37.9676 34.4851 37.9397 34.9531C37.9298 35.1154 37.9308 35.2777 37.9228 35.441C37.9019 35.8991 37.881 36.3581 37.8551 36.8162C37.8292 37.2842 37.7954 37.7513 37.7685 38.2193C37.7565 38.4194 37.7555 38.6206 37.7446 38.8217C37.7336 39.0319 37.7177 39.241 37.7028 39.4511C37.6958 39.5367 37.659 39.5716 37.5714 39.5626C37.4479 39.5489 37.3251 39.5306 37.203 39.5078C36.1616 39.3057 35.1212 39.0996 34.0798 38.9014C33.7145 38.8317 33.3441 38.7849 32.9757 38.7261C32.5606 38.6604 32.1464 38.5917 31.7302 38.529C31.3619 38.4722 30.9925 38.4244 30.6241 38.3687C30.0756 38.287 29.528 38.2014 28.9804 38.1177L28.0446 37.9753C27.724 37.9275 27.4024 37.8817 27.0808 37.8349C26.7214 37.7831 26.362 37.7294 26.0016 37.6816C25.5666 37.6238 25.1305 37.5631 24.6934 37.5212C24.4963 37.5023 24.4216 37.3659 24.336 37.2295C24.3061 37.1827 24.347 37.0871 24.4047 37.0572C24.4644 37.0263 24.5282 37.0054 24.5879 36.9765C24.6327 36.9585 24.6717 36.9286 24.7007 36.89C24.7296 36.8514 24.7474 36.8055 24.7522 36.7575C24.7721 36.5683 24.8089 36.3801 24.6924 36.2018C24.6586 36.151 24.6586 36.0734 24.6576 36.0076C24.6536 35.8354 24.6536 35.6631 24.6576 35.4908C24.6825 34.3526 24.7084 33.2134 24.7362 32.0752C24.7532 31.3583 24.7731 30.6403 24.792 29.9233L24.8517 27.5703L24.9055 25.4462C24.9095 25.3018 24.9075 25.1595 25.007 25.038C25.0288 25.0064 25.0419 24.9697 25.0449 24.9314C25.0638 24.7572 25.1295 24.5978 25.1912 24.4375C25.3077 24.1348 25.2181 23.9057 24.9792 23.7325C24.8566 23.6411 24.7424 23.5391 24.6377 23.4278C24.4854 23.2694 24.3191 23.129 24.1001 23.0573C23.9338 23.0036 23.8113 22.8741 23.6809 22.7636C23.6341 22.7237 23.6192 22.667 23.6232 22.6072C23.6301 22.5007 23.5983 22.4011 23.5823 22.2985C23.5604 22.1492 23.5774 21.9938 23.5804 21.8405C23.5814 21.7937 23.5953 21.7459 23.6013 21.6991C23.6272 21.5099 23.5843 21.4611 23.8701 21.5109C24.2185 21.5726 24.57 21.6085 24.9204 21.6562L25.914 21.7907L27.051 21.945C27.3815 21.9898 27.713 22.0347 28.0446 22.0815C28.395 22.1293 28.7445 22.179 29.0949 22.2258C29.5778 22.2906 30.0616 22.3523 30.5445 22.418C31.0652 22.4877 31.5859 22.5604 32.1066 22.6321C32.5984 22.7008 33.0902 22.7696 33.583 22.8363L34.6344 22.9777C35.1262 23.0444 35.618 23.1141 36.1108 23.1818C36.4513 23.2286 36.7918 23.2744 37.1333 23.3192C37.4648 23.363 37.7964 23.4039 38.1279 23.4487C38.1757 23.4547 38.2215 23.4686 38.2683 23.4786C38.335 23.4925 38.3668 23.5403 38.3688 23.601C38.3738 23.7245 38.3708 23.849 38.3708 24.0053V24.0063ZM43.2024 24.6775C43.1745 24.6476 43.1487 24.5968 43.1128 24.5879C43.061 24.5759 42.9913 24.5759 42.9485 24.6018C42.7046 24.7516 42.4804 24.9316 42.2815 25.1375C42.2676 25.1515 42.2596 25.1694 42.2506 25.1853C42.2378 25.211 42.233 25.24 42.2369 25.2684C42.2408 25.2968 42.2533 25.3234 42.2725 25.3447C42.2926 25.3653 42.3189 25.3786 42.3474 25.3826C42.3759 25.3866 42.4049 25.3809 42.4298 25.3666C42.4617 25.3467 42.4906 25.3218 42.5204 25.2969C42.6986 25.1535 42.8769 25.0101 43.0541 24.8647C43.0915 24.8358 43.1265 24.8038 43.1586 24.7691C43.1765 24.7492 43.1835 24.7193 43.2024 24.6775V24.6775ZM33.7403 36.3631C33.7632 36.3601 33.7851 36.3631 33.7991 36.3532C33.8289 36.3323 33.8618 36.3094 33.8787 36.2795C33.9066 36.2317 33.8817 36.1819 33.8449 36.153C33.8014 36.117 33.7503 36.0911 33.6955 36.0773C33.5007 36.0387 33.3048 36.0055 33.1081 35.9778C33.0614 35.9728 33.0143 35.983 32.9737 36.0066C32.9449 36.0216 32.912 36.0644 32.913 36.0933C32.9171 36.1391 32.9364 36.1822 32.9678 36.2157C32.9907 36.2396 33.0355 36.2446 33.0723 36.2516C33.2674 36.2884 33.4636 36.3233 33.6587 36.3581C33.6866 36.3631 33.7154 36.3621 33.7403 36.3631V36.3631ZM34.6752 25.5618C34.5876 25.5618 34.5109 25.5598 34.4353 25.5618C34.4064 25.5625 34.3788 25.5732 34.357 25.5921C34.3352 25.611 34.3206 25.6369 34.3158 25.6653C34.3068 25.7221 34.3347 25.7858 34.3865 25.8087C34.4293 25.8286 34.4761 25.8436 34.5219 25.8485C34.6921 25.8655 34.8634 25.8824 35.0336 25.8884C35.0991 25.8883 35.1638 25.8747 35.2238 25.8485C35.2885 25.8217 35.2974 25.7201 35.2427 25.6793C35.2061 25.6498 35.1632 25.6293 35.1172 25.6195C34.9679 25.5956 34.8156 25.5797 34.6752 25.5618V25.5618ZM28.9197 34.7111C29.0292 34.6962 29.1248 34.6902 29.2164 34.6683C29.293 34.6494 29.3329 34.5597 29.311 34.4851C29.296 34.4353 29.2482 34.4024 29.1736 34.4074C28.9742 34.4269 28.7729 34.4127 28.5782 34.3656C28.5513 34.3576 28.5165 34.3516 28.4946 34.3636C28.4534 34.3833 28.4175 34.4127 28.39 34.4492C28.3622 34.494 28.392 34.5747 28.4358 34.6006C28.4597 34.6155 28.4856 34.6304 28.5125 34.6364C28.6519 34.6633 28.7913 34.6872 28.9197 34.7111ZM34.2282 38.2312L34.2252 38.2482C34.1595 38.2482 34.0928 38.2442 34.0271 38.2492C33.9988 38.2523 33.9724 38.2651 33.9524 38.2854C33.9325 38.3057 33.9201 38.3323 33.9176 38.3607C33.9157 38.3892 33.923 38.4175 33.9384 38.4415C33.9538 38.4655 33.9765 38.484 34.0032 38.4941C34.0382 38.5077 34.0746 38.5174 34.1117 38.523C34.261 38.5449 34.4104 38.5658 34.5597 38.5847C34.5971 38.5889 34.6349 38.5886 34.6722 38.5837C34.7349 38.5768 34.7996 38.5061 34.7987 38.4493C34.7987 38.4025 34.7519 38.3358 34.6991 38.3238C34.5428 38.291 34.3855 38.2621 34.2282 38.2312V38.2312ZM29.4583 34.0081V34.0041L29.2015 34.0051C29.1827 34.0054 29.164 34.0078 29.1457 34.0121C29.118 34.0188 29.0928 34.0336 29.0734 34.0544C29.0539 34.0753 29.041 34.1014 29.0362 34.1296C29.0272 34.1903 29.08 34.259 29.1457 34.2749C29.1557 34.2769 29.1646 34.2799 29.1746 34.2799C29.3448 34.2769 29.5151 34.2759 29.6853 34.271C29.7122 34.27 29.7391 34.254 29.765 34.2421C29.7912 34.2305 29.8126 34.2102 29.8255 34.1846C29.8384 34.159 29.842 34.1297 29.8356 34.1017C29.8247 34.0519 29.7948 34.0121 29.7421 34.0091C29.6475 34.0051 29.5529 34.0081 29.4583 34.0081V34.0081ZM39.9677 24.9344C39.9926 24.9264 40.0524 24.9205 40.0992 24.8946C40.1728 24.8517 40.2405 24.798 40.3072 24.7452C40.3822 24.6873 40.4543 24.6258 40.5233 24.561C40.5406 24.5444 40.5525 24.523 40.5573 24.4995C40.5621 24.476 40.5596 24.4516 40.5502 24.4295C40.5384 24.4033 40.5185 24.3816 40.4934 24.3676C40.4682 24.3536 40.4393 24.3481 40.4108 24.3519C40.3839 24.3558 40.3501 24.3568 40.3301 24.3728C40.1818 24.4923 40.0364 24.6118 39.8921 24.7352C39.8732 24.7522 39.8652 24.784 39.8542 24.8099C39.8323 24.8597 39.8791 24.9294 39.9677 24.9344V24.9344ZM30.1861 33.9483C30.203 33.9483 30.2697 33.9513 30.3364 33.9473C30.3733 33.9453 30.4191 33.9414 30.4439 33.9204C30.4787 33.8909 30.5025 33.8506 30.5116 33.8059C30.5156 33.778 30.4838 33.7342 30.4559 33.7163C30.4166 33.69 30.3707 33.6752 30.3235 33.6735C30.1716 33.676 30.0199 33.683 29.8685 33.6944C29.8399 33.6953 29.8121 33.7046 29.7888 33.7213C29.759 33.743 29.7364 33.7732 29.7241 33.8079C29.7122 33.8557 29.7311 33.9085 29.7779 33.9284C29.8376 33.9543 29.9033 33.9712 29.9671 33.9762C30.0228 33.9812 30.0806 33.9633 30.1861 33.9483V33.9483ZM40.1221 34.1764C40.1639 34.1654 40.1937 34.1634 40.2166 34.1485C40.353 34.0638 40.4884 33.9772 40.6228 33.8886C40.6473 33.8735 40.6653 33.8499 40.6736 33.8224C40.6818 33.7949 40.6797 33.7653 40.6676 33.7392C40.6398 33.6795 40.589 33.6526 40.5293 33.6605C40.3499 33.6902 40.1861 33.7806 40.0653 33.9165C40.0464 33.9374 40.0245 33.9613 40.0195 33.9872C40.0125 34.022 40.0076 34.0678 40.0245 34.0937C40.0474 34.1296 40.0912 34.1525 40.1221 34.1764ZM27.4612 25.1445C27.508 25.1475 27.5557 25.1515 27.6035 25.1525C27.6234 25.1535 27.6424 25.1525 27.6613 25.1505C27.7379 25.1435 27.8036 25.0888 27.8036 25.034C27.8027 24.9673 27.7588 24.9294 27.7071 24.9045C27.6728 24.8873 27.6357 24.8765 27.5976 24.8727C27.493 24.8621 27.388 24.8554 27.283 24.8527C27.2355 24.8509 27.1882 24.8597 27.1446 24.8786C27.1121 24.897 27.0881 24.9274 27.0779 24.9633C27.071 24.9864 27.0721 25.0111 27.0809 25.0334C27.0898 25.0558 27.1059 25.0746 27.1266 25.0868C27.1675 25.1097 27.2143 25.1266 27.2601 25.1346C27.3258 25.1445 27.3935 25.1425 27.4612 25.1445V25.1445ZM31.7741 27.394L31.776 27.3751C31.8418 27.3751 31.9094 27.3791 31.9752 27.3741C32.0133 27.374 32.0508 27.3636 32.0837 27.3442C32.1185 27.3173 32.1584 27.2745 32.1593 27.2367C32.1613 27.1988 32.1265 27.1451 32.0926 27.1242C32.043 27.0959 31.9865 27.0818 31.9294 27.0833C31.8057 27.0891 31.6824 27.1014 31.56 27.1202C31.5092 27.1281 31.4833 27.173 31.4724 27.2217C31.4614 27.2735 31.4973 27.3442 31.552 27.3582C31.6237 27.3761 31.6994 27.3821 31.7741 27.394ZM41.3934 28.7304C41.4074 28.7274 41.4442 28.7314 41.4601 28.7144C41.5856 28.588 41.71 28.4605 41.8245 28.3251C41.8434 28.3032 41.8215 28.2345 41.8016 28.1956C41.7777 28.1498 41.6971 28.1359 41.6493 28.1638C41.4846 28.2593 41.3522 28.4018 41.269 28.573C41.2331 28.6417 41.2988 28.7304 41.3934 28.7304V28.7304ZM39.241 36.6838C39.2768 36.6748 39.3007 36.6758 39.3126 36.6648C39.449 36.5334 39.5695 36.39 39.6233 36.2038C39.6292 36.1839 39.6113 36.1441 39.5924 36.1311C39.5645 36.1122 39.5197 36.0933 39.4928 36.1042C39.3156 36.1759 39.2101 36.3183 39.1424 36.4906C39.1368 36.5084 39.1348 36.5272 39.1365 36.5459C39.1382 36.5645 39.1436 36.5826 39.1524 36.5991C39.1733 36.636 39.2151 36.6609 39.241 36.6838ZM41.1366 28.6338C41.1445 28.5392 41.0788 28.4794 41.0101 28.4904C40.8976 28.5073 40.6348 28.7294 40.589 28.8459C40.5691 28.8937 40.597 28.9733 40.6497 28.9873C40.6925 28.9992 40.7543 29.0092 40.7831 28.9873C40.8956 28.9026 41.0012 28.807 41.1037 28.7105C41.1286 28.6875 41.1326 28.6437 41.1366 28.6338V28.6338ZM33.6597 24.9752C33.6129 24.9812 33.5721 24.9782 33.5392 24.9932C33.507 25.0097 33.4806 25.0358 33.4636 25.0678C33.4397 25.1136 33.4576 25.1614 33.4934 25.1963C33.5133 25.2162 33.5382 25.2361 33.5641 25.2401C33.7025 25.266 33.8419 25.2899 33.9823 25.3058C34.0151 25.3098 34.0539 25.2859 34.0868 25.268C34.1445 25.2381 34.1575 25.1395 34.1087 25.0967C34.0817 25.0709 34.0489 25.0518 34.0131 25.041C33.8937 25.0151 33.7722 24.9961 33.6597 24.9752V24.9752ZM26.5183 25.6832C26.5452 25.6822 26.5731 25.6812 26.601 25.6783C26.6627 25.6713 26.7115 25.6265 26.7175 25.5737C26.7234 25.5209 26.6886 25.4701 26.6308 25.4423C26.5084 25.3825 26.374 25.3835 26.2436 25.3726C26.2061 25.3707 26.1685 25.3744 26.1321 25.3835C26.1088 25.388 26.0873 25.3992 26.0701 25.4156C26.053 25.432 26.041 25.453 26.0355 25.4761C26.0205 25.5289 26.0524 25.5976 26.1012 25.6185C26.135 25.6325 26.1709 25.6484 26.2077 25.6534C26.3103 25.6663 26.4138 25.6733 26.5183 25.6832V25.6832ZM26.7155 31.7138C26.7911 31.7088 26.819 31.7078 26.8469 31.7048C26.9116 31.6978 26.9564 31.655 26.9604 31.5992C26.9634 31.5465 26.9395 31.5007 26.8927 31.4867C26.7312 31.4397 26.5681 31.3982 26.4039 31.3623C26.3561 31.3513 26.3152 31.3881 26.2933 31.4339C26.2832 31.4555 26.28 31.4796 26.2843 31.503C26.2885 31.5264 26.3001 31.5479 26.3172 31.5644C26.3416 31.593 26.3723 31.6155 26.4068 31.6301C26.5223 31.666 26.6408 31.6939 26.7155 31.7138V31.7138ZM42.5463 30.4441C42.5861 30.4342 42.622 30.4352 42.6389 30.4182C42.7484 30.3037 42.8569 30.1862 42.9595 30.0657C42.9933 30.0259 42.9615 29.9432 42.9067 29.9243C42.8659 29.9094 42.8092 29.8994 42.7733 29.9174C42.6295 29.9905 42.5191 30.1159 42.4647 30.2679C42.4517 30.2987 42.4587 30.3455 42.4736 30.3764C42.4876 30.4053 42.5234 30.4242 42.5463 30.4441ZM27.3935 32.8111C27.487 32.7992 27.6095 32.7862 27.731 32.7673C27.7678 32.7613 27.8126 32.7474 27.8325 32.7215C27.86 32.6855 27.8744 32.6413 27.8733 32.596C27.8713 32.5682 27.8315 32.5243 27.8036 32.5194C27.6344 32.4885 27.4642 32.4855 27.3059 32.5711C27.2501 32.601 27.2332 32.6558 27.2411 32.7155C27.2491 32.7713 27.3009 32.8101 27.3935 32.8111V32.8111ZM34.1844 30.3416C34.1555 30.3366 34.1276 30.3306 34.0987 30.3286C34.0707 30.3248 34.0424 30.3235 34.0141 30.3246C33.9365 30.3286 33.8777 30.4222 33.9195 30.4929C33.9469 30.5411 33.9887 30.5794 34.039 30.6025C34.1475 30.6423 34.264 30.6373 34.3755 30.6045C34.4173 30.5925 34.4542 30.5557 34.488 30.5238C34.5278 30.486 34.5119 30.4053 34.4601 30.3794C34.4275 30.361 34.3917 30.3488 34.3546 30.3436C34.2979 30.3376 34.2401 30.3416 34.1844 30.3416V30.3416ZM43.8127 21.1733C43.8306 21.1713 43.8545 21.1753 43.8675 21.1663C43.9929 21.0777 44.1034 20.9731 44.1801 20.8397C44.193 20.819 44.1977 20.7943 44.1932 20.7703C44.1888 20.7464 44.1756 20.7249 44.1562 20.7102C44.1293 20.6903 44.0875 20.6883 44.0516 20.6804C44.0422 20.6789 44.0325 20.6803 44.0238 20.6844C43.9524 20.7121 43.8876 20.7544 43.8334 20.8086C43.7792 20.8628 43.7369 20.9276 43.7092 20.999C43.6803 21.0727 43.738 21.1663 43.8127 21.1733V21.1733ZM43.4324 24.8657C43.2641 24.9145 43.1287 24.9892 43.0501 25.1435C43.0461 25.1515 43.0431 25.1634 43.0471 25.1714C43.064 25.2122 43.075 25.261 43.1048 25.2909C43.1257 25.3128 43.1835 25.3248 43.2074 25.3108C43.3298 25.2421 43.4553 25.1724 43.5349 25.0509C43.5487 25.0311 43.5551 25.0072 43.5531 24.9832C43.5511 24.9592 43.5408 24.9367 43.524 24.9195C43.4991 24.8946 43.4623 24.8826 43.4324 24.8657ZM36.5877 24.076C36.6385 24.071 36.6863 24.0701 36.7331 24.0621C36.761 24.0565 36.7862 24.0417 36.8046 24.02C36.823 23.9983 36.8336 23.971 36.8346 23.9426C36.8356 23.8888 36.8097 23.849 36.762 23.8321C36.6366 23.7875 36.502 23.7755 36.3707 23.7972C36.294 23.8082 36.2572 23.9197 36.31 23.9794C36.3399 24.0153 36.3787 24.0428 36.4225 24.0591C36.4752 24.075 36.535 24.071 36.5877 24.076ZM41.8882 22.7058C41.8663 22.6869 41.8365 22.6431 41.7986 22.6361C41.6364 22.6003 41.4562 22.8054 41.4502 22.9418C41.4462 23.0275 41.5607 23.1211 41.6224 23.0753C41.7399 22.9965 41.8322 22.8855 41.8882 22.7556C41.8912 22.7466 41.8882 22.7367 41.8882 22.7058V22.7058ZM33.4168 37.5999C33.369 37.6059 33.3182 37.6039 33.2764 37.6208C33.2445 37.6338 33.2057 37.6696 33.2027 37.6975C33.1987 37.7393 33.2117 37.804 33.2406 37.824C33.2994 37.8648 33.3677 37.89 33.439 37.8969C33.5102 37.9039 33.5821 37.8925 33.6477 37.8638C33.6935 37.8469 33.7324 37.803 33.7184 37.7533C33.7065 37.7114 33.6746 37.6596 33.6388 37.6457C33.5701 37.6188 33.4914 37.6138 33.4168 37.5999V37.5999ZM42.4368 31.1053C42.4378 31.0247 42.3422 30.951 42.2755 30.9749C42.1671 31.0119 42.0743 31.0841 42.0117 31.18C42.0026 31.1967 41.9969 31.2149 41.9948 31.2338C41.9888 31.2826 41.9908 31.3334 42.0376 31.3593C42.0674 31.3752 42.1112 31.3832 42.1431 31.3742C42.251 31.3369 42.3448 31.2674 42.4119 31.175C42.4278 31.1541 42.4308 31.1233 42.4368 31.1053V31.1053ZM28.172 29.523C28.0655 29.52 27.9998 29.6106 28.0257 29.6794C28.0784 29.8188 28.2556 29.9074 28.397 29.8546C28.4339 29.8417 28.4677 29.7919 28.4806 29.7521C28.4896 29.7252 28.4707 29.6724 28.4468 29.6535C28.366 29.5902 28.2721 29.5457 28.172 29.523V29.523ZM40.1091 33.4674C40.0663 33.4375 40.0325 33.3957 39.9926 33.3887C39.8692 33.3688 39.682 33.4823 39.6511 33.5958C39.6402 33.6337 39.6591 33.6884 39.681 33.7253C39.6938 33.746 39.7142 33.7609 39.7379 33.7667C39.7616 33.7725 39.7866 33.7687 39.8075 33.7561C39.8971 33.7044 39.9827 33.6446 40.0633 33.5799C40.0882 33.559 40.0912 33.5132 40.1091 33.4674ZM36.0093 29.768C36.0531 29.761 36.1019 29.758 36.1457 29.7431C36.1945 29.7262 36.2194 29.6823 36.2184 29.6306C36.2184 29.5808 36.2004 29.537 36.1497 29.5161C36.0517 29.4771 35.9444 29.4674 35.841 29.4882C35.7883 29.4991 35.7415 29.5599 35.7415 29.6136C35.7415 29.6694 35.7833 29.7311 35.8361 29.7421C35.8918 29.754 35.9486 29.76 36.0093 29.768ZM30.7844 30.8016C30.8422 30.7877 30.9169 30.7747 30.9865 30.7488C31.0092 30.7401 31.0278 30.7232 31.0386 30.7015C31.0495 30.6797 31.0519 30.6547 31.0453 30.6313C31.0333 30.5905 31.0035 30.5367 30.9686 30.5248C30.9105 30.5035 30.848 30.4971 30.7868 30.5062C30.7256 30.5152 30.6676 30.5394 30.6182 30.5766C30.5893 30.5965 30.5803 30.6612 30.5843 30.703C30.5873 30.7319 30.6261 30.7638 30.657 30.7787C30.6889 30.7956 30.7297 30.7937 30.7844 30.8016V30.8016ZM30.3623 28.1488C30.3792 28.1468 30.4081 28.1448 30.436 28.1399C30.4639 28.1341 30.4894 28.1198 30.5088 28.0989C30.5283 28.0781 30.5407 28.0516 30.5445 28.0234C30.5459 27.9947 30.5375 27.9665 30.5207 27.9433C30.5039 27.9201 30.4796 27.9034 30.4519 27.8959C30.3696 27.8776 30.2861 27.8653 30.202 27.8591C30.1502 27.8551 30.1144 27.8889 30.0925 27.9347C30.0706 27.9825 30.0925 28.0473 30.1383 28.0871C30.2 28.1409 30.2737 28.1478 30.3623 28.1488V28.1488ZM36.1746 32.854C36.304 32.8639 36.3667 32.8261 36.3786 32.7653C36.3856 32.7329 36.3809 32.6991 36.3652 32.6699C36.3495 32.6407 36.3239 32.618 36.293 32.606C36.224 32.5773 36.1528 32.5543 36.08 32.5373C36.0163 32.5233 35.9416 32.5751 35.9266 32.6339C35.9127 32.6867 35.9356 32.7534 35.9874 32.7783C36.063 32.8141 36.1417 32.841 36.1746 32.854V32.854ZM26.5183 23.5483C26.5323 23.5453 26.5661 23.5483 26.585 23.5333C26.6221 23.5084 26.6522 23.4745 26.6727 23.4347C26.6926 23.3879 26.6627 23.3451 26.6209 23.3182C26.5405 23.2687 26.4459 23.2473 26.3521 23.2575C26.3013 23.2605 26.2675 23.2903 26.2475 23.3372C26.2256 23.3869 26.2436 23.4308 26.2754 23.4646C26.3361 23.5313 26.4168 23.5522 26.5183 23.5483V23.5483ZM34.7767 23.8669C34.7618 23.8271 34.7598 23.7922 34.7409 23.7773C34.7 23.7385 34.6511 23.7092 34.5975 23.6914C34.544 23.6737 34.4873 23.668 34.4313 23.6747C34.4076 23.6773 34.3853 23.6873 34.3677 23.7035C34.3502 23.7196 34.3383 23.7409 34.3337 23.7643C34.3283 23.801 34.3368 23.8383 34.3576 23.8689C34.3973 23.9154 34.4501 23.9488 34.509 23.9648C34.568 23.9808 34.6304 23.9786 34.6881 23.9585C34.725 23.9426 34.7489 23.8968 34.7767 23.8669V23.8669ZM30.9816 33.4285H30.9049C30.8491 33.4305 30.7854 33.4763 30.7864 33.5291C30.7867 33.574 30.8021 33.6175 30.8302 33.6526C30.8597 33.6839 30.898 33.7053 30.94 33.714C30.9821 33.7228 31.0258 33.7183 31.0652 33.7014C31.0991 33.6862 31.1263 33.6594 31.1419 33.6257C31.1527 33.6043 31.1557 33.5798 31.1502 33.5565C31.1447 33.5332 31.1312 33.5125 31.112 33.4982C31.0692 33.4644 31.0154 33.4454 30.9816 33.4285V33.4285ZM43.7769 25.0141C43.7343 25.0189 43.695 25.039 43.6663 25.0708C43.6375 25.1025 43.6213 25.1435 43.6206 25.1863C43.6216 25.2491 43.6863 25.3158 43.747 25.3178C43.8366 25.3208 43.9053 25.2252 43.8933 25.1166C43.8874 25.0609 43.8286 25.0101 43.7769 25.0151V25.0141Z" fill="black"/>
</svg>
