<svg width="106" height="124" viewBox="0 0 106 124" fill="none" xmlns="http://www.w3.org/2000/svg">
<path d="M46.2083 123.9C45.0847 123.9 43.9611 123.901 42.8375 123.899C41.9605 123.897 41.0925 123.816 40.2443 123.584C40.0057 123.518 39.774 123.422 39.5424 123.329C39.1884 123.185 38.9269 122.945 38.6803 122.642C37.3668 121.031 36.0076 119.46 34.3918 118.136C33.4967 117.412 32.5351 116.775 31.5202 116.234C30.8629 115.877 30.1888 115.545 29.5435 115.165C28.8137 114.734 28.1047 114.262 27.3908 113.803C27.2038 113.682 27.0527 113.506 26.8061 113.492C26.7395 113.488 26.6669 113.433 26.6152 113.384C26.1608 112.954 25.7104 112.521 25.258 112.088C24.0916 110.346 23.9166 108.947 24.903 107.089C25.0313 106.848 25.2063 106.63 25.3663 106.407C25.8506 105.732 26.2264 105.002 26.5357 104.233C26.6092 104.049 26.7246 103.881 26.822 103.707C27.3371 102.791 27.8561 101.877 28.3632 100.956C28.4965 100.716 28.6118 100.463 28.7092 100.206C29.7752 97.4004 29.2959 94.8481 27.4465 92.5254C27.2744 92.3107 27.0746 92.117 26.9244 91.8883C26.6868 91.5278 26.3487 91.344 25.952 91.2402C25.3223 91.0802 24.6779 90.9858 24.029 90.9586C23.7544 90.9463 23.4795 90.941 23.2047 90.9426C21.8325 90.9377 20.4584 90.9406 19.0852 90.9277C18.7124 90.9237 18.3395 90.8768 17.9676 90.8458C17.3213 90.7909 16.675 90.736 16.0287 90.6761C15.7801 90.6531 15.5116 90.67 15.2919 90.5762C14.93 90.4204 14.7212 90.5992 14.5133 90.8248C14.3622 90.9906 14.2379 91.1813 14.0858 91.3471C13.5392 91.9363 12.8788 92.4076 12.1449 92.7321C11.1187 93.1974 10.0598 93.5739 8.93521 93.7087C8.1497 93.8026 7.39004 93.6837 6.71191 93.2473C6.38876 93.0396 6.06064 92.8829 5.67186 92.8689C5.57342 92.8659 5.47598 92.8349 5.37853 92.812C5.01163 92.7221 4.74913 92.5164 4.6497 92.1359C4.62484 92.0391 4.60098 91.9402 4.56518 91.8483C4.49558 91.6686 4.36134 91.5568 4.16745 91.5588C3.8443 91.5628 3.52114 91.5798 3.19799 91.5997C2.97427 91.6137 2.75154 91.6646 2.52881 91.6576C2.1102 91.6466 1.90537 91.359 2.00182 90.9456C2.02569 90.8488 2.07341 90.7579 2.09728 90.6611C2.146 90.4713 2.10126 90.3905 1.90836 90.3206C1.7443 90.2596 1.57228 90.2187 1.41319 90.1508C1.18549 90.0539 1.1477 89.7613 1.33861 89.5926C1.43208 89.5107 1.53748 89.4438 1.6389 89.3689C2.33989 88.8467 3.04884 88.3344 3.74089 87.7991C4.1764 87.4626 4.59898 87.1111 5.09416 86.8635C5.20751 86.8065 5.21546 86.7157 5.11205 86.6398C4.42199 86.1385 3.80949 85.5484 3.20594 84.9482C2.70795 84.454 2.27973 83.8936 1.93321 83.2826C0.991786 81.6524 0.376389 79.8533 0.121565 77.9862C-0.118066 76.2208 -0.0116697 74.4862 0.514325 72.7827C1.00254 71.204 1.48577 69.6232 1.99288 68.0505C2.43336 66.6834 3.10353 65.4252 3.85921 64.209C4.22811 63.6138 4.58009 63.0057 4.89927 62.3836C6.35098 59.5616 8.13479 56.9693 10.2 54.5698C13.5926 50.6274 17.5629 47.3711 21.9439 44.606C27.0428 41.3886 32.5006 38.9481 38.211 37.0618C41.8357 35.8632 45.5323 34.8964 49.2787 34.167C50.0623 34.0152 50.8478 33.8724 51.6313 33.7226C51.7785 33.6957 51.9246 33.6627 52.0698 33.6258C52.8175 33.438 53.5672 33.2553 54.315 33.0705C55.363 32.8119 56.3135 32.2957 57.2402 31.7475C58.2723 31.1374 59.3045 30.5292 60.3932 30.0219C61.7972 29.3689 63.2559 29.0064 64.813 29.0633C65.512 29.0882 66.211 29.0573 66.91 29.0713C67.428 29.0823 67.8844 28.9595 68.309 28.6429C69.0319 28.1057 69.8253 27.6773 70.6288 27.2709C71.2325 26.9692 71.8036 26.6058 72.333 26.1864C72.5935 25.9777 72.69 25.743 72.6383 25.4045C72.4623 24.2342 72.511 23.0539 72.5259 21.8756C72.5339 21.1836 72.7606 20.5465 73.1335 19.9663C73.3234 19.6718 73.5322 19.3892 73.7261 19.0976C73.8583 18.8989 73.8504 18.808 73.6594 18.6542C73.4674 18.4948 73.2632 18.3506 73.0489 18.2229C72.4613 17.8853 71.8428 17.6227 71.1756 17.4879C70.9796 17.4507 70.7857 17.4027 70.595 17.3441C69.9158 17.1264 69.3053 16.7979 68.8827 16.1977C68.5238 15.6865 68.1609 15.1762 67.8288 14.646C67.2296 13.6919 66.6449 12.7289 66.0748 11.7571C65.0203 9.95562 63.5923 8.40306 61.8877 7.20465C60.5986 6.28935 59.5225 5.10408 58.7337 3.73062C58.331 3.03861 57.9293 2.34361 57.3964 1.73848C57.3331 1.66136 57.2953 1.56644 57.288 1.46683C57.2651 1.03945 57.6141 0.492215 58.0198 0.341431C58.4871 0.16768 58.9644 0.0189096 59.4735 0.0209068C59.8483 0.0229039 60.2232 0.0259225 60.5971 0.00694972C61.6729 -0.0479716 62.6782 0.226595 63.6327 0.689931C64.5763 1.14927 65.4921 1.66153 66.2866 2.36752C66.6405 2.68307 67.0214 2.97068 67.3823 3.27924C68.1082 3.89835 68.7515 4.59534 69.3023 5.37822C69.892 6.21802 70.4647 7.07278 71.0991 7.87763C71.983 8.99803 72.9077 10.0855 73.8315 11.1719C74.7353 12.2344 75.8698 13.0103 77.055 13.7163C77.2251 13.8182 77.413 13.897 77.6009 13.9599C78.0166 14.0997 78.4292 14.1227 78.8349 13.904C79.1869 13.7153 79.5508 13.5495 79.9038 13.3638C80.92 12.8266 81.9362 12.2933 83.0031 11.8629C83.9646 11.4745 84.9539 11.2438 85.997 11.3147C86.1909 11.3277 86.3907 11.3656 86.5717 11.4345C87.9429 11.9628 89.3339 12.0617 90.7508 11.6502C91.5651 11.4146 92.3755 11.164 93.1909 10.9313C93.526 10.8354 93.874 10.7815 94.208 10.6836C94.8215 10.5049 95.443 10.5089 96.0654 10.5858C97.7508 10.7965 99.4173 11.102 101.043 11.6053C102.506 12.0577 103.673 12.9065 104.495 14.2156C104.535 14.2785 104.572 14.3444 104.615 14.4063C104.94 14.8646 104.806 15.312 104.564 15.7434C104.531 15.8033 104.371 15.8502 104.306 15.8213C104.035 15.6975 103.772 15.5568 103.518 15.3999C103.157 15.1762 102.812 14.9286 102.451 14.7049C102.064 14.4662 101.633 14.3334 101.19 14.2455C100.894 14.1807 100.585 14.2202 100.315 14.3574C100.232 14.4095 100.165 14.4833 100.12 14.571C100.047 14.6999 100.138 14.9066 100.275 14.9365C100.37 14.9635 100.469 14.973 100.567 14.9645C101.117 14.8747 101.607 15.0533 102.068 15.315C102.415 15.5107 102.745 15.7384 103.074 15.965C103.552 16.2946 104.033 16.6041 104.642 16.6071C104.818 16.6071 104.916 16.726 104.971 16.8708C105.238 17.5778 105.424 18.3017 105.395 19.0686C105.386 19.3033 105.303 19.494 105.19 19.6967C104.312 21.2884 103.017 22.4957 101.64 23.6291C101.254 23.9457 100.825 24.2113 100.442 24.5318C100.004 24.9003 99.5933 25.3027 99.1707 25.6912C99.1548 26.0956 98.8088 26.2523 98.5671 26.478C98.314 26.7201 98.0398 26.939 97.7478 27.1321C97.1333 27.5265 96.6073 28.0268 96.0595 28.5011C95.5772 28.9195 95.2461 29.4498 95.0085 30.0369C94.7639 30.6391 94.5362 31.2502 94.3015 31.8573C93.3291 34.3697 91.8694 36.5636 90.011 38.5008C89.2964 39.2367 88.6021 39.9923 87.9289 40.7665C86.9962 41.853 86.2266 43.0562 85.5674 44.3274C85.1747 45.0853 84.8694 45.8702 84.7431 46.73C84.6735 47.2003 84.6318 47.6587 84.6337 48.133C84.6397 49.2614 84.5284 50.3828 84.407 51.5042C84.242 53.037 83.8433 54.5048 83.2924 55.9358C82.7383 57.3609 82.0616 58.7348 81.27 60.0419C80.27 61.7219 79.1205 63.3075 77.8356 64.7791C77.4398 65.2305 77.069 65.7048 76.6722 66.1552C76.2586 66.6245 75.8301 67.0798 75.4005 67.5342C75.2633 67.679 75.1211 67.8368 74.9501 67.9276C74.4519 68.1923 74.092 68.6046 73.7092 69.0001C72.7924 69.9457 71.7364 70.6877 70.5084 71.177C69.7905 71.4635 69.0776 71.7661 68.3677 72.0717C68.1628 72.1605 67.96 72.2674 67.78 72.3972C67.6461 72.4896 67.5323 72.6083 67.4453 72.7461C67.3583 72.8839 67.3 73.038 67.2739 73.1991C67.2232 73.4937 67.1278 73.7792 67.0472 74.0668C66.8523 74.7658 66.5928 75.4539 66.4745 76.1658C66.3293 77.0506 66.2597 77.9452 66.3244 78.8569C66.4437 80.5245 66.8802 82.1103 67.3704 83.691C67.6448 84.5747 67.9341 85.4575 68.0853 86.3742C68.1668 86.8685 68.2513 87.3628 68.306 87.8601C68.3796 88.5181 68.2742 89.1662 68.0823 89.7903C67.8019 90.699 67.4917 91.5977 67.1745 92.4944C66.9488 93.1315 66.6664 93.7486 66.4486 94.3877C65.9067 95.9824 65.1371 97.4753 64.4501 99.0041C64.0802 99.8289 63.583 100.585 63.0441 101.309C62.8614 101.546 62.6533 101.762 62.4236 101.954C61.7077 102.566 60.7134 102.512 60.0502 102.082C59.6075 101.795 59.2426 101.403 58.9883 100.939C58.5928 100.24 58.3498 99.4643 58.2753 98.6636C58.1282 97.0798 58.3181 95.562 59.0986 94.1491C59.2806 93.8215 59.4417 93.481 59.6157 93.1485C59.8603 92.6831 60.1069 92.2188 60.3555 91.7545C60.8168 90.8897 61.1111 89.9561 61.4432 89.0384C61.6878 88.3624 61.6401 87.7123 61.2831 87.0832C61.0863 86.7347 60.9103 86.3742 60.7263 86.0177C59.8432 84.2991 59.2629 82.44 59.0111 80.5226C58.8443 79.2305 58.7047 77.9351 58.5925 76.6372C58.515 75.7654 58.2714 74.9795 57.7086 74.2895C56.9579 73.3678 56.4378 72.3123 56.065 71.187C55.9983 70.9862 55.9049 70.8954 55.7189 70.8624C55.2775 70.7845 54.838 70.6777 54.3935 70.6337C53.599 70.5548 52.8026 70.4989 52.0052 70.459C50.8836 70.4031 49.762 70.3691 48.6394 70.3272C48.5145 70.3217 48.3894 70.3217 48.2645 70.3272C47.5516 70.3621 47.479 70.424 47.305 71.112C47.2871 71.1849 47.2553 71.2549 47.2434 71.3288C46.9938 72.8915 46.2441 74.2047 45.2159 75.37C44.3051 76.4015 43.3725 77.414 42.4488 78.4346C41.8557 79.0795 41.3194 79.7747 40.8459 80.5126C40.5655 80.9559 40.2931 81.4113 40.0783 81.8886C39.5867 82.9634 39.3936 84.1517 39.5195 85.3277C39.6517 86.6049 39.9838 87.8371 40.2284 89.0903C40.4014 89.9751 40.5914 90.8548 40.6669 91.7575C40.7363 92.6078 40.629 93.4634 40.3517 94.2699C40.1497 94.8903 39.8715 95.483 39.5235 96.0343C38.6972 97.3185 37.858 98.5937 37.0237 99.8739C36.7374 100.314 36.446 100.753 36.1726 101.201C35.5382 102.238 35.1455 103.37 34.9029 104.557C34.8631 104.75 34.8024 104.935 34.8989 105.141C34.9585 105.269 34.9546 105.434 34.9566 105.583C34.9755 107.14 35.4806 108.532 36.4033 109.771C36.7463 110.231 37.1301 110.663 37.5159 111.089C37.9793 111.599 38.55 111.954 39.2132 112.146C39.7402 112.299 40.2642 112.468 40.8002 112.581C41.882 112.808 42.8027 113.331 43.627 114.05C44.3628 114.691 45.0887 115.344 45.7151 116.097C46.1377 116.606 46.6239 117.025 47.2543 117.257C47.298 117.273 47.3338 117.311 47.3736 117.339C47.3319 117.354 47.2921 117.379 47.2493 117.384C47.1002 117.401 46.949 117.397 46.8029 117.428C46.6824 117.456 46.5668 117.501 46.4598 117.564C46.3405 117.631 46.2809 117.764 46.3365 117.884C46.3833 117.985 46.4946 118.12 46.5841 118.124C46.8556 118.14 47.131 118.112 47.4025 118.079C48.222 117.981 49.0518 118.018 49.8594 118.189C50.4021 118.292 50.9118 118.525 51.3449 118.87C51.7138 119.168 52.0847 119.467 52.4715 119.74C52.6932 119.897 52.9348 120.053 53.1914 120.125C53.9491 120.339 54.6202 120.71 55.2635 121.149C55.3461 121.206 55.4226 121.28 55.5141 121.312C55.9228 121.457 55.9854 121.808 55.9884 122.161C55.9934 122.569 55.7667 122.875 55.4177 123.07C55.2675 123.154 55.0915 123.195 54.9235 123.238C54.8018 123.267 54.6775 123.282 54.5526 123.283C54.1539 123.294 53.7383 123.372 53.3634 123.281C52.9995 123.193 52.8493 122.76 52.5789 122.504C52.1981 122.143 51.8311 121.765 51.4255 121.434C50.8577 120.969 50.2174 120.638 49.4726 120.55C49.0888 120.505 48.7657 120.33 48.4614 120.096C48.1049 119.821 47.7395 119.558 47.3657 119.308C46.6793 118.841 45.8771 118.575 45.0489 118.54C44.6561 118.524 44.2554 118.604 43.8647 118.673C43.7294 118.697 43.5972 118.802 43.4878 118.898C43.4404 118.939 43.4076 118.995 43.3941 119.057C43.3807 119.119 43.3874 119.183 43.4132 119.241C43.4689 119.381 43.629 119.477 43.7742 119.45C43.8468 119.437 43.9174 119.409 43.988 119.386C44.9614 119.058 45.8642 119.291 46.7213 119.764C47.1131 119.98 47.486 120.243 47.835 120.522C48.3142 120.906 48.8203 121.201 49.4398 121.272C49.9499 121.331 50.3954 121.559 50.7981 121.862C51.1172 122.103 51.4285 122.359 51.7089 122.641C51.8918 122.826 52.1603 122.959 52.1981 123.264C51.9196 123.418 51.6571 123.624 51.3598 123.713C51.0317 123.811 50.6648 123.864 50.3248 123.83C49.2489 123.722 48.18 123.867 47.1071 123.859C46.8078 123.857 46.5086 123.859 46.2083 123.859V123.9V123.9ZM87.8424 20.0372C88.7801 20.0003 89.6143 19.55 90.2278 18.7221C90.6882 18.101 91.067 17.421 91.6218 16.8688C91.6613 16.8274 91.69 16.7767 91.7051 16.7215C91.7203 16.6662 91.7215 16.608 91.7087 16.5521C91.6959 16.4962 91.6694 16.4445 91.6317 16.4014C91.5939 16.3584 91.5461 16.3254 91.4926 16.3056C91.0332 16.1438 90.6732 15.8382 90.2904 15.5616C90.1295 15.4435 89.9577 15.3412 89.7774 15.2561C89.317 15.0424 88.8457 14.9515 88.3276 15.0504C87.6774 15.1732 87.0957 15.4338 86.5359 15.7684C86.0828 16.0381 85.7133 16.4291 85.469 16.8977C85.2005 17.404 85.0026 17.9472 84.6019 18.3796C84.4637 18.5294 84.5274 18.795 84.6934 18.9128C84.7739 18.9698 84.8634 19.0377 84.9549 19.0507C85.3656 19.1086 85.6837 19.3542 86.0318 19.544C86.5637 19.8316 87.1235 20.0372 87.8424 20.0372V20.0372ZM63.2509 5.13461C63.0739 5.14759 62.9914 5.13357 62.9278 5.16253C62.8397 5.2005 62.762 5.25907 62.7011 5.3333C62.6364 5.41818 62.6981 5.58992 62.8134 5.65383C62.9655 5.73771 63.1206 5.8206 63.2847 5.87452C65.1083 6.47067 66.6296 7.5172 67.9123 8.93916C68.9364 10.0745 69.8283 11.3128 70.7332 12.541C71.4749 13.5486 72.2117 14.5591 72.9853 15.5407C73.906 16.709 75.0913 17.5189 76.5002 17.9892C76.6842 18.0501 76.886 18.075 77.0809 18.081C77.2131 18.084 77.3046 17.9752 77.3305 17.8414C77.3563 17.7126 77.3334 17.5757 77.2161 17.5098C77.065 17.4259 76.8979 17.371 76.7349 17.3121C75.4602 16.8548 74.3803 16.1188 73.5272 15.0594C73.2742 14.7495 73.0279 14.4342 72.7884 14.1137C71.8389 12.8245 70.9042 11.5244 69.9427 10.2453C69.1303 9.16482 68.2513 8.14029 67.2222 7.25456C66.2647 6.43074 65.1809 5.82159 64.0175 5.35226C63.7431 5.23942 63.4458 5.18854 63.2509 5.13461V5.13461Z" fill="black"/>
<path d="M19.6709 92.0132C20.4226 92.151 21.23 92.0621 22.0106 92.2808C23.1411 92.5993 24.2975 92.788 25.4648 92.8999C25.5633 92.9089 25.6597 92.9368 25.7562 92.9617C25.8576 92.9877 25.8954 93.1075 25.8267 93.1984C25.7074 93.3592 25.5891 93.522 25.4569 93.6707C24.8583 94.3428 24.2518 95.0089 23.6522 95.6799C23.0301 96.3671 22.5118 97.1422 22.114 97.9806C21.7361 98.7874 21.5353 99.6292 21.5591 100.524C21.5989 102.059 22.2253 103.277 23.4951 104.144C23.866 104.396 24.2617 104.612 24.6445 104.848C25.1248 105.142 25.1277 105.154 24.8066 105.648C24.6839 105.837 24.5546 106.021 24.4188 106.201C23.7476 107.084 23.4334 108.103 23.2853 109.185C23.2196 109.665 23.2783 110.143 23.4294 110.594C23.6124 111.139 23.8401 111.669 24.0758 112.192C24.2716 112.632 24.5878 112.99 24.9388 113.316C25.0313 113.401 25.1198 113.489 25.2023 113.583C25.2321 113.617 25.2421 113.671 25.262 113.716C25.2003 113.738 25.1387 113.783 25.079 113.779C24.3581 113.727 23.6373 113.672 22.9174 113.609C22.5948 113.579 22.2732 113.54 21.9529 113.491C21.7062 113.459 21.4613 113.414 21.2191 113.357C20.6473 113.215 20.2297 112.873 20.0388 112.309C19.8887 111.863 19.5834 111.473 19.5685 110.974C19.5645 110.863 19.4621 110.752 19.3975 110.645C18.436 109.073 17.2766 107.674 15.8219 106.535C14.9171 105.827 14.0083 105.123 13.1015 104.418C12.8837 104.25 12.661 104.089 12.4532 103.908C11.8358 103.387 11.4248 102.661 11.2948 101.862C11.1934 101.271 11.3465 100.716 11.5115 100.165C11.7671 99.3127 12.2513 98.5827 12.7972 97.8917C13.5375 96.9422 14.4316 96.1247 15.4421 95.4732C15.7563 95.2714 16.0675 95.0608 16.3718 94.8421C16.9057 94.464 17.3155 93.9349 17.549 93.3222C17.6133 93.1599 17.6603 92.9913 17.6892 92.819C17.7688 92.3077 17.7598 92.2897 18.2262 92.2048C18.6905 92.122 19.1638 92.0791 19.6709 92.0132V92.0132ZM84.1177 86.6958C83.359 86.7037 82.6086 86.5367 81.9243 86.2074C80.4591 85.5067 79.0708 84.6543 77.7819 83.6641C76.6335 82.7893 75.7317 81.6919 75.0406 80.4208C74.9094 80.1791 74.7662 79.9414 74.6518 79.6928C74.1875 78.6753 73.5054 77.8195 72.7298 77.0276C71.643 75.9182 70.4727 74.9037 69.2606 73.9351C69.1632 73.8582 69.0618 73.7823 68.9792 73.6904C68.9365 73.6425 68.8957 73.5546 68.9882 73.5007C69.0956 73.4378 69.2029 73.3729 69.3183 73.3259C69.8493 73.1083 70.3812 72.8935 70.9142 72.6828C72.3122 72.1305 73.5806 71.2923 74.6389 70.2214C74.7443 70.1145 74.8477 70.0037 74.968 69.9178C75.0127 69.8848 75.1192 69.8918 75.1689 69.9238C75.2723 69.9897 75.3608 70.0826 75.4493 70.1704C77.1406 71.854 78.6798 73.6584 79.7706 75.8033C80.2021 76.6511 80.8077 77.3202 81.5594 77.8874C82.5229 78.6144 83.3342 79.4991 84.0571 80.4657C85.0991 81.8577 85.8608 83.4054 86.5697 84.9832C86.6314 85.12 86.6791 85.2648 86.7149 85.4096C86.8332 85.8979 86.6453 86.2624 86.1621 86.3992C85.4966 86.5882 84.8092 86.688 84.1177 86.6958V86.6958ZM68.9375 17.6397C68.839 17.6407 68.7336 17.6656 68.6431 17.6397C67.276 17.2472 65.9187 16.8229 64.6679 16.1288C63.1008 15.2591 61.7674 14.0968 60.5941 12.7457C60.2183 12.3123 59.8732 11.851 59.5083 11.4056C58.8909 10.6517 58.2784 9.89281 57.646 9.15087C57.0772 8.48183 56.413 7.90964 55.7259 7.36741C55.2705 7.01605 54.7668 6.73286 54.2305 6.52664C53.6472 6.30409 53.1024 5.99104 52.6157 5.59895C52.2876 5.33134 51.9147 5.11966 51.5727 4.87002C51.3491 4.71069 51.1374 4.53514 50.9393 4.34477C50.6927 4.10112 50.6539 3.81749 50.8269 3.52191C50.9274 3.35215 51.0626 3.19738 51.2058 3.06157C51.7368 2.55769 52.4181 2.24329 53.1447 2.16686C54.1877 2.04703 55.2347 2.078 56.2798 2.20782C56.6884 2.25874 56.9778 2.44946 57.1906 2.78298C57.5137 3.28826 57.8448 3.78954 58.1491 4.3068C58.6204 5.10965 59.1583 5.86155 59.8215 6.51262C60.266 6.948 60.7443 7.35147 61.2225 7.7509C61.6829 8.13535 62.1741 8.48182 62.6305 8.87027C63.5701 9.6591 64.3821 10.5895 65.0377 11.6283C65.6721 12.6469 66.3075 13.6654 66.924 14.6959C67.5156 15.6845 68.136 16.6511 68.9017 17.5159C68.9275 17.5459 68.9176 17.6068 68.9255 17.6537C68.929 17.6486 68.933 17.6439 68.9375 17.6397ZM50.4014 117.122C51.3798 117.092 52.3164 117.473 53.0592 118.304C53.4072 118.693 53.786 119.059 54.0078 119.546C54.0276 119.589 54.0465 119.674 54.0316 119.683C53.9779 119.715 53.9043 119.749 53.8467 119.738C53.4788 119.663 53.1337 119.537 52.8364 119.29C52.5302 119.036 52.1991 118.812 51.8968 118.554C51.167 117.932 50.3079 117.651 49.3742 117.555C49.1525 117.532 48.9298 117.516 48.707 117.494C48.6911 117.492 48.6623 117.464 48.6643 117.458C48.6832 117.415 48.7001 117.347 48.7329 117.338C49.2762 117.188 49.8379 117.115 50.4014 117.122V117.122Z" fill="black"/>
<path d="M68.9246 17.6528L69.0091 17.7087C68.9912 17.7067 68.9663 17.7117 68.9584 17.7027C68.9454 17.6868 68.9434 17.6607 68.9365 17.6398L68.9246 17.6528ZM88.5325 16.128C89.5269 16.091 90.2338 17.0726 89.9325 18.0212C89.682 18.8081 88.8418 19.4782 87.7162 19.0967C86.9118 18.8231 86.5936 17.8295 87.0122 17.0336C87.3135 16.4605 87.8703 16.129 88.5325 16.128Z" fill="black"/>
</svg>
